<svg xmlns="http://www.w3.org/2000/svg" width="232.653" height="205.889" viewBox="0 0 232.653 205.889">
  <g id="deleted" transform="translate(-85.82 -44.334)">
    <circle id="Ellipse_113" data-name="Ellipse 113" cx="84.44" cy="84.44" r="84.44" transform="translate(118.815 44.334)" fill="#dbe8ec"/>
    <path id="Path_1014" data-name="Path 1014" d="M318.472,177.47v-9.808a7.052,7.052,0,0,0-7.052-7.052H286.53a7.052,7.052,0,0,1-7.052-7.052v-9.808a7.052,7.052,0,0,1,7.052-7.052h.786a7.052,7.052,0,0,0,7.052-7.052v-9.808a7.052,7.052,0,0,0-7.052-7.052H123.6a7.052,7.052,0,0,0-7.052,7.052v9.808A7.052,7.052,0,0,0,123.6,136.7h0a7.052,7.052,0,0,1,7.052,7.052v9.808a7.052,7.052,0,0,1-7.052,7.052H96.329a7.052,7.052,0,0,0-7.052,7.052v9.808a7.052,7.052,0,0,0,7.052,7.052h10.7a7.052,7.052,0,0,1,7.052,7.052v9.808a7.052,7.052,0,0,1-7.052,7.052H107a7.052,7.052,0,0,0-7.052,7.052v9.808A7.052,7.052,0,0,0,107,232.344h1.548A7.052,7.052,0,0,1,115.6,239.4V249.2a7.052,7.052,0,0,1-7.052,7.052H92.872a7.052,7.052,0,0,0-7.052,7.052v9.808a7.052,7.052,0,0,0,7.052,7.052H291.1a7.052,7.052,0,0,0,7.052-7.052v-9.808a7.052,7.052,0,0,0-7.052-7.052h-6.114a7.052,7.052,0,0,1-7.052-7.052V239.4a7.052,7.052,0,0,1,7.052-7.052H299.4a7.052,7.052,0,0,0,7.052-7.052v-9.808a7.052,7.052,0,0,0-7.052-7.052h-4.373a7.052,7.052,0,0,1-7.052-7.052v-9.808a7.052,7.052,0,0,1,7.052-7.052h16.389a7.052,7.052,0,0,0,7.052-7.052Z" transform="translate(0 -35.161)" fill="#dbe8ec"/>
    <line id="Line_1" data-name="Line 1" x2="14.747" transform="translate(172.376 149.742)" fill="none" stroke="#ee781d" stroke-width="3"/>
    <line id="Line_2" data-name="Line 2" x2="14.747" transform="translate(172.376 153.992)" fill="none" stroke="#ee781d" stroke-width="3"/>
    <line id="Line_3" data-name="Line 3" x2="14.747" transform="translate(172.376 158.243)" fill="none" stroke="#ee781d" stroke-width="3"/>
    <line id="Line_4" data-name="Line 4" x2="14.747" transform="translate(144.865 76.365)" fill="none" stroke="#b9d4db" stroke-linecap="round" stroke-width="3"/>
    <line id="Line_5" data-name="Line 5" x2="14.747" transform="translate(144.865 80.615)" fill="none" stroke="#b9d4db" stroke-linecap="round" stroke-width="3"/>
    <line id="Line_6" data-name="Line 6" x2="14.747" transform="translate(144.865 84.865)" fill="none" stroke="#b9d4db" stroke-linecap="round" stroke-width="3"/>
    <line id="Line_7" data-name="Line 7" x2="14.747" transform="translate(277.649 144.542)" fill="none" stroke="#b9d4db" stroke-linecap="round" stroke-width="3"/>
    <line id="Line_8" data-name="Line 8" x2="14.747" transform="translate(277.649 148.793)" fill="none" stroke="#b9d4db" stroke-linecap="round" stroke-width="3"/>
    <line id="Line_9" data-name="Line 9" x2="14.747" transform="translate(277.649 153.043)" fill="none" stroke="#b9d4db" stroke-linecap="round" stroke-width="3"/>
    <line id="Line_10" data-name="Line 10" x2="14.746" transform="translate(124.465 208.963)" fill="none" stroke="#b9d4db" stroke-linecap="round" stroke-width="3"/>
    <line id="Line_11" data-name="Line 11" x2="14.746" transform="translate(124.465 213.214)" fill="none" stroke="#b9d4db" stroke-linecap="round" stroke-width="3"/>
    <line id="Line_12" data-name="Line 12" x2="14.746" transform="translate(124.465 217.464)" fill="none" stroke="#b9d4db" stroke-linecap="round" stroke-width="3"/>
    <circle id="Ellipse_114" data-name="Ellipse 114" cx="7.5" cy="7.5" r="7.5" transform="translate(119.159 135.692)" fill="#b9d4db"/>
    <circle id="Ellipse_115" data-name="Ellipse 115" cx="3.906" cy="3.906" r="3.906" transform="translate(124.63 124.107)" fill="#b9d4db"/>
    <circle id="Ellipse_116" data-name="Ellipse 116" cx="2.253" cy="2.253" r="2.253" transform="translate(140.032 126.176)" fill="#b9d4db"/>
    <circle id="Ellipse_117" data-name="Ellipse 117" cx="5.402" cy="5.402" r="5.402" transform="translate(138.221 135.531)" fill="#b9d4db"/>
    <circle id="Ellipse_118" data-name="Ellipse 118" cx="7.5" cy="7.5" r="7.5" transform="translate(263.033 218.888)" fill="#b9d4db"/>
    <circle id="Ellipse_119" data-name="Ellipse 119" cx="3.906" cy="3.906" r="3.906" transform="translate(256.139 211.349)" fill="#b9d4db"/>
    <circle id="Ellipse_120" data-name="Ellipse 120" cx="2.253" cy="2.253" r="2.253" transform="translate(266.886 202.682)" fill="#b9d4db"/>
    <circle id="Ellipse_121" data-name="Ellipse 121" cx="5.402" cy="5.402" r="5.402" transform="translate(274.218 206.483)" fill="#b9d4db"/>
    <circle id="Ellipse_122" data-name="Ellipse 122" cx="7.5" cy="7.5" r="7.5" transform="translate(255.531 92.14)" fill="#b9d4db"/>
    <circle id="Ellipse_123" data-name="Ellipse 123" cx="3.906" cy="3.906" r="3.906" transform="translate(245.604 84.602)" fill="#b9d4db"/>
    <circle id="Ellipse_124" data-name="Ellipse 124" cx="5.402" cy="5.402" r="5.402" transform="translate(258.875 79.199)" fill="#b9d4db"/>
    <circle id="Ellipse_125" data-name="Ellipse 125" cx="7.5" cy="7.5" r="7.5" transform="translate(171.39 186.967)" fill="#ee781d"/>
    <circle id="Ellipse_126" data-name="Ellipse 126" cx="3.906" cy="3.906" r="3.906" transform="translate(164.495 179.428)" fill="#ee781d"/>
    <circle id="Ellipse_127" data-name="Ellipse 127" cx="2.253" cy="2.253" r="2.253" transform="translate(175.242 170.761)" fill="#ee781d"/>
    <circle id="Ellipse_128" data-name="Ellipse 128" cx="5.402" cy="5.402" r="5.402" transform="translate(182.574 174.562)" fill="#ee781d"/>
    <path id="Path_1015" data-name="Path 1015" d="M273.883,104.313c15.334-21.608,24.853-41.19,21.262-43.738l-4.114-2.92c-3.591-2.548-18.933,12.9-34.267,34.51S231.911,133.354,235.5,135.9l4.114,2.92C243.207,141.37,258.549,125.92,273.883,104.313Z" transform="translate(-76.494 -6.701)" fill="#e06714"/>
    <ellipse id="Ellipse_129" data-name="Ellipse 129" cx="47.974" cy="7.973" rx="47.974" ry="7.973" transform="matrix(0.579, -0.816, 0.816, 0.579, 152.506, 124.587)" fill="#ee781d"/>
    <path id="Path_1016" data-name="Path 1016" d="M282.568,113.065c4.266,3.027-8.3,20.734-12.565,17.706s-4.911-9.445-1.441-14.335S278.3,110.037,282.568,113.065Z" transform="translate(-92.718 -34.501)" fill="#e06714"/>
    <path id="Path_1017" data-name="Path 1017" d="M237.545,252.6l11.262,98.516h.122c0,3.359,16.382,6.081,36.591,6.081s36.591-2.723,36.591-6.081h.122L333.493,252.6Z" transform="translate(-77.933 -106.976)" fill="#ee781d"/>
    <ellipse id="Ellipse_130" data-name="Ellipse 130" cx="47.974" cy="7.973" rx="47.974" ry="7.973" transform="translate(159.612 137.653)" fill="#e06714"/>
    <rect id="Rectangle_2016" data-name="Rectangle 2016" width="4.099" height="71.561" rx="2" transform="translate(206.895 167.752)" fill="#e06714"/>
    <path id="Path_1018" data-name="Path 1018" d="M332.872,369.648l-2.592-.358c-.414-.057-.726-.78-.7-1.614l2.326-68.373c.028-.834.387-1.464.8-1.406l2.592.358c.414.057.726.78.7,1.614l-2.326,68.373C333.644,369.075,333.286,369.705,332.872,369.648Zm-45.209,0,2.592-.358c.414-.057.726-.78.7-1.614L288.626,299.3c-.028-.834-.387-1.464-.8-1.406l-2.592.358c-.414.057-.726.78-.7,1.614l2.326,68.373C286.891,369.075,287.249,369.705,287.663,369.648Z" transform="translate(-102.069 -130.239)" fill="#e06714"/>
    <path id="Path_1019" data-name="Path 1019" d="M344.186,178.224l-3.375,11.444-29.176-8.606a1.233,1.233,0,0,1-.833-1.531l13.655-46.294a1.232,1.232,0,0,1,1.531-.833l39.485,11.646a1.233,1.233,0,0,1,.833,1.531l-10.628,36.033Z" transform="translate(-115.535 -45.211)" fill="#f9ae2b"/>
    <path id="Path_1020" data-name="Path 1020" d="M372.558,238.113l3.375-11.443,11.491,3.389Z" transform="translate(-147.282 -93.656)" fill="#3086a3"/>
    <rect id="Rectangle_2017" data-name="Rectangle 2017" width="15.16" height="6.921" transform="translate(213.05 97.552) rotate(16.433)" fill="#3086a3"/>
    <line id="Line_13" data-name="Line 13" x2="11.136" y2="3.285" transform="translate(230.23 106.227)" fill="none" stroke="#3086a3" stroke-width="3"/>
    <line id="Line_14" data-name="Line 14" x2="11.137" y2="3.284" transform="translate(204.665 126.505)" fill="none" stroke="#3086a3" stroke-width="3"/>
    <line id="Line_15" data-name="Line 15" x2="29.295" y2="8.641" transform="translate(209.566 109.368)" fill="none" stroke="#3086a3" stroke-width="3"/>
    <line id="Line_16" data-name="Line 16" x2="29.295" y2="8.641" transform="translate(207.885 115.066)" fill="none" stroke="#3086a3" stroke-width="3"/>
    <line id="Line_17" data-name="Line 17" x2="29.295" y2="8.641" transform="translate(206.204 120.765)" fill="none" stroke="#3086a3" stroke-width="3"/>
  </g>
</svg>
