<svg width="718" height="408" viewBox="0 0 718 408" fill="none" xmlns="http://www.w3.org/2000/svg">
<g clip-path="url(#clip0_1169_19075)">
<path d="M712.325 128.395C712.325 128.395 752.42 267.309 601.217 340.711C565.455 358.054 486.774 321.602 422.7 325.222C301.471 332.072 209.595 373.239 149.887 348.916C83.0874 321.699 58.4244 295.295 48.292 276.771C45.6422 271.937 42.015 266.864 39.2457 262.247C21.9674 233.512 -32.5279 126.877 28.7549 56.9216C80.9696 -2.69351 183.716 -2.40085 235.008 2.02151C253.339 3.6346 271.2 8.68354 287.657 16.9036C319.867 32.9021 378.696 61.2572 403.522 67.5331C450.339 79.3802 457.507 77.2883 544.701 40.0668C631.896 2.84528 694.971 4.56869 712.325 128.395Z" fill="#E9EEFB"/>
<path d="M85.1182 231.529C85.1182 231.529 150.278 105.514 225.212 103.14C300.146 100.766 299.06 186.308 320.443 199.38C341.826 212.452 364.491 208.886 381.161 180.368C397.831 151.851 416.76 98.8258 452.468 101.243C488.175 103.66 528.781 214.869 550.207 214.869C571.634 214.869 611.023 130.032 646.275 131.311C682.775 132.633 707.818 231.757 707.818 231.757L651.401 231.497L85.1182 231.529Z" fill="#E1E8FB"/>
<path d="M77.2516 197.1C83.8492 197.1 89.1976 191.762 89.1976 185.177C89.1976 178.592 83.8492 173.254 77.2516 173.254C70.6541 173.254 65.3057 178.592 65.3057 185.177C65.3057 191.762 70.6541 197.1 77.2516 197.1Z" fill="white"/>
<path d="M383.492 145.484C393.005 145.484 400.716 137.788 400.716 128.293C400.716 118.799 393.005 111.103 383.492 111.103C373.979 111.103 366.268 118.799 366.268 128.293C366.268 137.788 373.979 145.484 383.492 145.484Z" fill="white"/>
<path d="M365.041 143.316C372.64 143.316 378.8 137.167 378.8 129.583C378.8 121.998 372.64 115.85 365.041 115.85C357.442 115.85 351.281 121.998 351.281 129.583C351.281 137.167 357.442 143.316 365.041 143.316Z" fill="white"/>
<path d="M589.06 109.4C600.12 109.4 609.086 100.452 609.086 89.4131C609.086 78.3744 600.12 69.4258 589.06 69.4258C578 69.4258 569.034 78.3744 569.034 89.4131C569.034 100.452 578 109.4 589.06 109.4Z" fill="white"/>
<path d="M610.411 103.71C617.141 103.71 622.596 98.2648 622.596 91.5482C622.596 84.8316 617.141 79.3867 610.411 79.3867C603.681 79.3867 598.226 84.8316 598.226 91.5482C598.226 98.2648 603.681 103.71 610.411 103.71Z" fill="white"/>
<path d="M568.35 105.759C575.08 105.759 580.535 100.314 580.535 93.597C580.535 86.8804 575.08 81.4355 568.35 81.4355C561.621 81.4355 556.166 86.8804 556.166 93.597C556.166 100.314 561.621 105.759 568.35 105.759Z" fill="white"/>
<path d="M23.2014 242.569L706.228 243.09C706.228 243.09 682.76 314.801 666.362 328.599C649.963 342.398 647.597 397.998 526.486 355.216C436.389 355.216 399.076 355.216 363.128 355.216C327.779 360.755 208.375 423.821 170.528 401.742C132.681 379.662 150.361 353.443 79.6732 352.044C8.98569 350.646 12.8084 280.279 12.8084 280.279L23.2014 242.569Z" fill="#F5F7FC"/>
<path d="M706.218 243.047L23.1906 242.57L17.9995 231.178L709.096 231.297L706.218 243.047Z" fill="white"/>
<path d="M120.301 232.511H113.915L113.839 8.96563L120.268 7.56738L120.301 232.511Z" fill="white"/>
<path d="M305.593 235.059H299.208L299.153 22.2979L305.474 25.2569L305.593 235.059Z" fill="white"/>
<path d="M487.064 237.616H480.667L480.678 65.6104L487.118 63.4209L487.064 237.616Z" fill="white"/>
<path d="M659.259 235.059H652.874L652.928 22.7422L659.39 25.4194L659.259 235.059Z" fill="white"/>
<path d="M454.401 299.955H470.387L470.343 287.848L625.847 287.826V300.595H639.922V268.034L454.401 268.674V299.955Z" fill="#681399"/>
<path d="M454.792 262.984L640.008 262.561V254.67L454.379 255.082L454.792 262.984Z" fill="#681399"/>
<path d="M454.379 251.342L639.596 250.93V243.039L453.966 243.451L454.379 251.342Z" fill="#681399"/>
<path d="M454.792 239.3L640.008 238.888V230.986L454.379 231.409L454.792 239.3Z" fill="#681399"/>
<path d="M454.792 226.835L640.008 226.423V218.532L454.379 218.944L454.792 226.835Z" fill="#681399"/>
</g>
<defs>
<clipPath id="clip0_1169_19075">
<rect width="717.138" height="407.713" fill="white" transform="translate(0.00878906 0.287109)"/>
</clipPath>
</defs>
</svg>
