<?xml version="1.0" encoding="UTF-8"?>
<!DOCTYPE svg PUBLIC "-//W3C//DTD SVG 1.1//EN" "http://www.w3.org/Graphics/SVG/1.1/DTD/svg11.dtd">
<!-- Creator: CorelDRAW 2020 (64-Bit) -->
<svg xmlns="http://www.w3.org/2000/svg" xml:space="preserve" width="1000px" height="300px" version="1.1" style="shape-rendering:geometricPrecision; text-rendering:geometricPrecision; image-rendering:optimizeQuality; fill-rule:evenodd; clip-rule:evenodd"
viewBox="0 0 1000 300"
 xmlns:xlink="http://www.w3.org/1999/xlink"
 xmlns:xodm="http://www.corel.com/coreldraw/odm/2003">
 <defs>
  <style type="text/css">
   <![CDATA[
    .fil0 {fill:#1A1A1A;fill-rule:nonzero}
    .fil1 {fill:#4D4D4D;fill-rule:nonzero}
   ]]>
  </style>
 </defs>
 <g id="Layer_x0020_1">
  <metadata id="CorelCorpID_0Corel-Layer"/>
  <path class="fil0" d="M95.55 38.5c53.05,0 79.63,21.25 79.63,63.7l0 95.55c0,42.45 -26.58,63.7 -79.63,63.7l-15.92 0c-53.11,0 -79.63,-21.25 -79.63,-63.7l0 -159.25 95.55 0zm0 31.85l-63.7 0 0 127.4c0,21.25 15.93,31.85 47.78,31.85l15.92 0c31.85,0 47.78,-10.6 47.78,-31.85l0 -95.55c0,-21.2 -15.93,-31.85 -47.78,-31.85z"/>
  <polygon class="fil1" points="928.31,70.35 928.31,261.45 896.46,261.45 896.46,70.35 824.82,70.35 824.82,38.5 1000,38.5 1000,70.35 "/>
  <path class="fil0" d="M422.2 93.97l0.53 0c1.89,1.49 9.84,10.9 23.95,28.34 -2.6,7.21 -3.87,14.41 -3.87,21.62l0 6.33c0,23.06 10.77,39.72 32.3,49.91 6.85,2.68 14.54,4 23.06,4l0.49 0c6.81,0 11.33,-0.48 13.66,-1.41 2.38,1.54 10.59,11.16 24.56,28.83 -11.55,5.23 -24.47,7.86 -38.71,7.86 -37.96,0 -65.86,-17.97 -83.83,-53.96 -4.88,-12.43 -7.34,-25.48 -7.34,-39.1 0,-18.98 5.1,-36.43 15.2,-52.42z"/>
  <path class="fil0" d="M434.94 58.6l140.57 170.04c-2.37,2.42 -6.11,5.54 -11.21,9.41l-140.69 -170.05c2.42,-2.42 6.19,-5.54 11.33,-9.4z"/>
  <path class="fil1" d="M499.19 54.73c34.22,0 60.68,15.34 79.3,46.09 7.87,14.68 11.83,30.01 11.83,46.1 0,20.47 -5.41,38.14 -16.22,52.9l-1.01 0c-0.79,-1.41 -8.3,-10.72 -22.54,-27.95l0 -0.52c2.33,-8.04 3.47,-15.12 3.47,-21.09l0 -6.33c0,-24.48 -12.08,-41.61 -36.29,-51.5 -6.29,-1.62 -12.79,-2.42 -19.56,-2.42 -2.24,0 -7.16,0.31 -14.67,1.02 -15.38,-18.46 -23.07,-28.13 -23.07,-28.96l0.53 0c11.07,-4.88 23.81,-7.34 38.23,-7.34z"/>
  <path class="fil0" d="M206.15 38.5l95.55 0c53.05,0 79.63,21.25 79.63,63.7 0,42.5 -26.58,63.7 -79.63,63.7l-9.73 0 95.56 95.55 -44.9 0 -95.55 -95.55 -9.08 0 0 95.55 -31.85 0 0 -222.95zm31.85 31.85l0 63.7 63.7 0c31.85,0 47.78,-10.6 47.78,-31.85 0,-21.2 -15.93,-31.85 -47.78,-31.85l-63.7 0z"/>
  <path class="fil1" d="M673.06 86.27c-2.99,-10.59 -7.12,-15.92 -12.45,-15.92 -5.27,0 -7.94,5.33 -7.94,15.92l0 175.18 -31.85 0 0 -175.18c0,-31.85 13.27,-47.77 39.79,-47.77 21.25,0 36.42,15.92 45.55,47.77l37.61 127.41c2.93,10.59 7.12,15.92 12.39,15.92 5.33,0 7.99,-5.33 7.99,-15.92l0 -175.18 31.85 0 0 175.18c0,31.85 -13.26,47.77 -39.84,47.77 -21.2,0 -36.41,-15.92 -45.55,-47.77l-37.55 -127.41z"/>
 </g>
</svg>
