<?xml version="1.0" encoding="UTF-8"?>
<!DOCTYPE svg PUBLIC "-//W3C//DTD SVG 1.1//EN" "http://www.w3.org/Graphics/SVG/1.1/DTD/svg11.dtd">
<!-- Creator: CorelDRAW 2020 (64-Bit) -->
<svg xmlns="http://www.w3.org/2000/svg" xml:space="preserve" width="1000px" height="1000px" version="1.1" style="shape-rendering:geometricPrecision; text-rendering:geometricPrecision; image-rendering:optimizeQuality; fill-rule:evenodd; clip-rule:evenodd"
viewBox="0 0 1000 1000"
 xmlns:xlink="http://www.w3.org/1999/xlink"
 xmlns:xodm="http://www.corel.com/coreldraw/odm/2003">
 <defs>
  <style type="text/css">
   <![CDATA[
    .fil0 {fill:none}
    .fil1 {fill:#CCCCCC;fill-rule:nonzero}
   ]]>
  </style>
 </defs>
 <g id="Layer_x0020_1">
  <metadata id="CorelCorpID_0Corel-Layer"/>
  <polygon class="fil0" points="0,0 1000,0 1000,1000 0,1000 "/>
  <path class="fil1" d="M502.06 0c133.76,0 237.14,59.93 309.94,180.13 30.74,57.35 46.19,117.28 46.19,180.12 0,80.02 -21.12,149.05 -63.36,206.75l-3.95 0c-3.09,-5.5 -32.45,-41.9 -88.09,-109.21l0 -2.06c9.1,-31.43 13.57,-59.07 13.57,-82.43l0 -24.72c0,-95.65 -47.22,-162.61 -141.84,-201.25 -24.55,-6.35 -49.96,-9.44 -76.41,-9.44 -8.76,0 -27.99,1.2 -57.35,3.95 -60.1,-72.12 -90.15,-109.9 -90.15,-113.16l2.06 0c43.27,-19.06 93.07,-28.68 149.39,-28.68zm-251.04 15.11l549.31 664.53c-9.28,9.44 -23.87,21.64 -43.79,36.75l-549.83 -664.53c9.45,-9.45 24.22,-21.64 44.31,-36.75zm-49.8 138.23l2.06 0c7.38,5.84 38.46,42.58 93.58,110.75 -10.13,28.17 -15.11,56.33 -15.11,84.49l0 24.72c0,90.15 42.07,155.23 126.21,195.07 26.79,10.47 56.84,15.63 90.15,15.63l1.89 0c26.61,0 44.3,-1.89 53.4,-5.5 9.28,6.01 41.38,43.62 95.99,112.64 -45.16,20.44 -95.64,30.74 -151.28,30.74 -148.36,0 -257.4,-70.23 -327.63,-210.86 -19.06,-48.6 -28.67,-99.6 -28.67,-152.83 0,-74.18 19.92,-142.35 59.41,-204.85z"/>
  <path class="fil1" d="M155.29 807.92c45.7,0 68.6,18.31 68.6,54.88l0 82.32c0,36.57 -22.9,54.88 -68.6,54.88l-13.72 0c-45.75,0 -68.6,-18.31 -68.6,-54.88l0 -137.2 82.32 0zm0 27.44l-54.88 0 0 109.76c0,18.31 13.72,27.44 41.16,27.44l13.72 0c27.44,0 41.16,-9.13 41.16,-27.44l0 -82.32c0,-18.26 -13.72,-27.44 -41.16,-27.44zm96.04 -27.44l82.32 0c45.7,0 68.6,18.31 68.6,54.88 0,36.62 -22.9,54.88 -68.6,54.88l-8.38 0 82.32 82.32 -38.68 0 -82.32 -82.32 -7.82 0 0 82.32 -27.44 0 0 -192.08zm27.44 27.44l0 54.88 54.88 0c27.44,0 41.16,-9.13 41.16,-27.44 0,-18.26 -13.72,-27.44 -41.16,-27.44l-54.88 0zm229.26 -27.44c45.7,0 68.6,18.31 68.6,54.88l0 82.32c0,36.57 -22.9,54.88 -68.6,54.88l-13.72 0c-45.75,0 -68.6,-18.31 -68.6,-54.88l0 -82.32c0,-36.57 22.85,-54.88 68.6,-54.88l13.72 0zm41.16 54.88c0,-18.26 -13.72,-27.44 -41.16,-27.44l-13.72 0c-27.44,0 -41.16,9.18 -41.16,27.44l0 82.32c0,18.31 13.72,27.44 41.16,27.44l13.72 0c27.44,0 41.16,-9.13 41.16,-27.44l0 -82.32zm99.88 -13.72c-2.57,-9.13 -6.13,-13.72 -10.72,-13.72 -4.54,0 -6.84,4.59 -6.84,13.72l0 150.92 -27.44 0 0 -150.92c0,-27.44 11.43,-41.16 34.28,-41.16 18.31,0 31.37,13.72 39.24,41.16l32.4 109.76c2.53,9.13 6.14,13.72 10.68,13.72 4.59,0 6.88,-4.59 6.88,-13.72l0 -150.92 27.44 0 0 150.92c0,27.44 -11.42,41.16 -34.32,41.16 -18.26,0 -31.38,-13.72 -39.24,-41.16l-32.36 -109.76zm216.2 -13.72l0 164.64 -27.44 0 0 -164.64 -61.72 0 0 -27.44 150.92 0 0 27.44 -61.76 0z"/>
 </g>
</svg>
