<?xml version="1.0" encoding="UTF-8"?>
<!DOCTYPE svg PUBLIC "-//W3C//DTD SVG 1.1//EN" "http://www.w3.org/Graphics/SVG/1.1/DTD/svg11.dtd">
<!-- Creator: CorelDRAW 2020 (64-Bit) -->
<svg xmlns="http://www.w3.org/2000/svg" xml:space="preserve" width="1000px" height="1000px" version="1.1" style="shape-rendering:geometricPrecision; text-rendering:geometricPrecision; image-rendering:optimizeQuality; fill-rule:evenodd; clip-rule:evenodd"
viewBox="0 0 1000 1000"
 xmlns:xlink="http://www.w3.org/1999/xlink"
 xmlns:xodm="http://www.corel.com/coreldraw/odm/2003">
 <defs>
  <style type="text/css">
   <![CDATA[
    .fil0 {fill:none}
    .fil2 {fill:#FFB829}
    .fil3 {fill:black;fill-rule:nonzero}
    .fil1 {fill:#FFB829;fill-rule:nonzero}
   ]]>
  </style>
 </defs>
 <g id="Layer_x0020_1">
  <metadata id="CorelCorpID_0Corel-Layer"/>
  <rect class="fil0" width="1000" height="1000"/>
  <path class="fil1" d="M155.29 807.92c45.7,0 68.6,18.31 68.6,54.88l0 82.32c0,36.57 -22.9,54.88 -68.6,54.88l-13.72 0c-45.75,0 -68.6,-18.31 -68.6,-54.88l0 -137.2 82.32 0zm0 27.44l-54.88 0 0 109.76c0,18.31 13.72,27.44 41.16,27.44l13.72 0c27.44,0 41.16,-9.13 41.16,-27.44l0 -82.32c0,-18.26 -13.72,-27.44 -41.16,-27.44zm96.04 -27.44l82.32 0c45.7,0 68.6,18.31 68.6,54.88 0,36.62 -22.9,54.88 -68.6,54.88l-8.38 0 82.32 82.32 -38.68 0 -82.32 -82.32 -7.82 0 0 82.32 -27.44 0 0 -192.08zm27.44 27.44l0 54.88 54.88 0c27.44,0 41.16,-9.13 41.16,-27.44 0,-18.26 -13.72,-27.44 -41.16,-27.44l-54.88 0zm229.26 -27.44c45.7,0 68.6,18.31 68.6,54.88l0 82.32c0,36.57 -22.9,54.88 -68.6,54.88l-13.72 0c-45.75,0 -68.6,-18.31 -68.6,-54.88l0 -82.32c0,-36.57 22.85,-54.88 68.6,-54.88l13.72 0zm41.16 54.88c0,-18.26 -13.72,-27.44 -41.16,-27.44l-13.72 0c-27.44,0 -41.16,9.18 -41.16,27.44l0 82.32c0,18.31 13.72,27.44 41.16,27.44l13.72 0c27.44,0 41.16,-9.13 41.16,-27.44l0 -82.32zm99.88 -13.72c-2.57,-9.13 -6.13,-13.72 -10.72,-13.72 -4.54,0 -6.84,4.59 -6.84,13.72l0 150.92 -27.44 0 0 -150.92c0,-27.44 11.43,-41.16 34.28,-41.16 18.31,0 31.37,13.72 39.24,41.16l32.4 109.76c2.53,9.13 6.14,13.72 10.68,13.72 4.59,0 6.88,-4.59 6.88,-13.72l0 -150.92 27.44 0 0 150.92c0,27.44 -11.42,41.16 -34.32,41.16 -18.26,0 -31.38,-13.72 -39.24,-41.16l-32.36 -109.76zm216.2 -13.72l0 164.64 -27.44 0 0 -164.64 -61.72 0 0 -27.44 150.92 0 0 27.44 -61.76 0z"/>
  <path class="fil2" d="M500 0c194.67,0 352.48,157.81 352.48,352.47 0,194.67 -157.81,352.48 -352.48,352.48 -194.67,0 -352.48,-157.81 -352.48,-352.48 0,-194.66 157.81,-352.47 352.48,-352.47z"/>
  <path class="fil3" d="M265.97 189.86l1.61 0c5.78,4.58 30.13,33.36 73.3,86.76 -7.93,22.06 -11.83,44.11 -11.83,66.17l0 19.37c0,70.61 32.95,121.59 98.86,152.79 20.98,8.21 44.52,12.24 70.61,12.24l1.48 0c20.85,0 34.7,-1.48 41.83,-4.3 7.26,4.71 32.41,34.16 75.19,88.23 -35.38,16.01 -74.92,24.08 -118.5,24.08 -116.21,0 -201.62,-55.01 -256.63,-165.17 -14.93,-38.06 -22.46,-78.01 -22.46,-119.71 0,-58.1 15.6,-111.5 46.54,-160.46z"/>
  <path class="fil3" d="M303.46 76.06l430.27 520.52c-7.26,7.39 -18.7,16.94 -34.3,28.78l-430.67 -520.52c7.39,-7.4 18.96,-16.95 34.7,-28.78z"/>
  <path class="fil3" d="M501.61 69.75c104.78,0 185.75,46.94 242.78,141.09 24.07,44.93 36.18,91.87 36.18,141.1 0,62.67 -16.54,116.74 -49.63,161.94l-3.09 0c-2.43,-4.31 -25.43,-32.82 -69,-85.55l0 -1.61c7.12,-24.61 10.62,-46.27 10.62,-64.56l0 -19.37c0,-74.92 -36.99,-127.37 -111.1,-157.63 -19.23,-4.98 -39.14,-7.4 -59.85,-7.4 -6.86,0 -21.92,0.94 -44.92,3.09 -47.08,-56.49 -70.62,-86.08 -70.62,-88.64l1.62 0c33.89,-14.92 72.9,-22.46 117.01,-22.46z"/>
 </g>
</svg>
