<?xml version="1.0" encoding="UTF-8"?>
<!DOCTYPE svg PUBLIC "-//W3C//DTD SVG 1.1//EN" "http://www.w3.org/Graphics/SVG/1.1/DTD/svg11.dtd">
<svg xmlns="http://www.w3.org/2000/svg" version="1.1" width="1559px" height="1139px" style="shape-rendering:geometricPrecision; text-rendering:geometricPrecision; image-rendering:optimizeQuality; fill-rule:evenodd; clip-rule:evenodd" xmlns:xlink="http://www.w3.org/1999/xlink">
<g><path style="opacity:0.99" fill="#9a33cc" d="M 570.5,44.5 C 605.318,46.1486 629.818,62.8153 644,94.5C 652.895,121.121 649.229,145.787 633,168.5C 633.353,175.815 633.353,183.148 633,190.5C 630.893,195.273 627.226,197.606 622,197.5C 615.447,196.07 608.947,194.403 602.5,192.5C 564.894,205.311 533.727,196.311 509,165.5C 489.934,133.573 491.267,102.573 513,72.5C 528.251,54.9568 547.418,45.6234 570.5,44.5 Z"/></g>
<g><path style="opacity:0.962" fill="#9a33cb" d="M 1037.5,48.5 C 1046.58,48.8838 1052.58,53.5505 1055.5,62.5C 1052.46,69.0424 1047.62,73.7091 1041,76.5C 1024.5,68.8543 1023.33,59.521 1037.5,48.5 Z"/></g>
<g><path style="opacity:1" fill="#fbf8f9" d="M 550.5,86.5 C 558.661,85.4642 566.161,87.1309 573,91.5C 590.346,84.4098 602.68,89.4098 610,106.5C 611.64,117.911 608.64,127.911 601,136.5C 591.67,147.402 580.17,154.568 566.5,158C 552.128,148.962 541.294,136.796 534,121.5C 529.86,105.118 535.36,93.4512 550.5,86.5 Z"/></g>
<g><path style="opacity:0.958" fill="#13348e" d="M 887.5,147.5 C 903.213,147.364 908.713,154.697 904,169.5C 898.096,175.972 891.262,177.139 883.5,173C 877.896,166.803 877.063,159.969 881,152.5C 882.965,150.45 885.132,148.783 887.5,147.5 Z"/></g>
<g><path style="opacity:0.979" fill="#13348e" d="M 759.5,148.5 C 792.835,148.333 826.168,148.5 859.5,149C 868.93,155.102 869.93,162.435 862.5,171C 860.608,171.973 858.608,172.64 856.5,173C 825.167,173.667 793.833,173.667 762.5,173C 751.31,169.775 748.476,162.941 754,152.5C 755.812,151.023 757.645,149.69 759.5,148.5 Z"/></g>
<g><path style="opacity:0.995" fill="#16358f" d="M 462.5,247.5 C 463.167,248.5 463.833,249.5 464.5,250.5C 446.559,235.726 430.059,219.393 415,201.5C 426.46,226.171 430.46,252.171 427,279.5C 422.939,321.787 405.439,357.287 374.5,386C 367.64,391.264 360.307,395.764 352.5,399.5C 349.958,400.624 347.292,401.458 344.5,402C 343.619,402.708 342.953,403.542 342.5,404.5C 325.524,408.006 309.524,405.339 294.5,396.5C 290.54,393.177 286.54,389.844 282.5,386.5C 264.616,363.006 256.283,336.34 257.5,306.5C 257.635,294.692 258.968,283.026 261.5,271.5C 268.477,238.368 284.144,210.201 308.5,187C 324.955,172.108 344.288,165.108 366.5,166C 380.934,167.804 393.101,173.971 403,184.5C 420.561,207.563 440.394,228.563 462.5,247.5 Z"/></g>
<g><path style="opacity:0.954" fill="#9a33cc" d="M 466.5,181.5 C 468.781,182.207 470.948,183.207 473,184.5C 474.626,187.128 476.626,189.461 479,191.5C 481.166,195.507 480.666,199.174 477.5,202.5C 475.016,204.483 472.683,206.65 470.5,209C 467.036,209.817 463.702,209.483 460.5,208C 456.764,204.448 454.097,200.281 452.5,195.5C 452.622,193.209 453.455,191.209 455,189.5C 458.51,186.121 462.344,183.454 466.5,181.5 Z"/></g>
<g><path style="opacity:1" fill="#faf8f9" d="M 355.5,184.5 C 376.844,182.921 393.011,191.255 404,209.5C 415.062,230.206 418.896,252.206 415.5,275.5C 407.607,272.388 399.607,269.555 391.5,267C 365.539,264.797 351.206,276.63 348.5,302.5C 348.485,317.308 354.819,328.475 367.5,336C 375.951,339.392 384.284,343.059 392.5,347C 381.067,366.106 365.067,379.773 344.5,388C 317.386,394.193 297.886,384.693 286,359.5C 272.314,322.026 273.647,285.026 290,248.5C 300.457,223.385 317.29,203.885 340.5,190C 345.571,188.035 350.571,186.202 355.5,184.5 Z"/></g>
<g><path style="opacity:1" fill="#faf9fa" d="M 464.5,250.5 C 465.585,252.587 467.251,253.92 469.5,254.5C 471.443,257.471 474.109,259.471 477.5,260.5C 481.708,264.685 486.708,267.685 492.5,269.5C 495.008,271.924 498.008,273.59 501.5,274.5C 501.842,275.338 502.508,275.672 503.5,275.5C 516.248,283.207 529.581,289.874 543.5,295.5C 545.181,297.008 547.181,298.008 549.5,298.5C 560.7,339.401 551.366,374.901 521.5,405C 519.249,404.793 516.915,404.627 514.5,404.5C 509.724,402.721 504.724,401.388 499.5,400.5C 498.5,400.5 497.5,400.5 496.5,400.5C 491.793,398.461 486.793,397.628 481.5,398C 485.305,398.961 489.138,399.794 493,400.5C 494.376,400.684 495.209,401.351 495.5,402.5C 475.29,451.299 454.79,499.965 434,548.5C 422.66,559.834 410.16,561.334 396.5,553C 386.321,543.115 383.988,531.615 389.5,518.5C 392.77,516.84 396.103,516.506 399.5,517.5C 401.736,522.802 405.069,527.302 409.5,531C 421.781,534.888 427.448,530.388 426.5,517.5C 432.705,516.961 436.372,513.628 437.5,507.5C 443.18,507.587 446.68,504.921 448,499.5C 448.497,496.854 448.664,494.187 448.5,491.5C 457.014,489.486 460.181,484.152 458,475.5C 455.824,468.814 452.824,462.48 449,456.5C 442.103,450.263 435.27,444.097 428.5,438C 430.195,433.443 432.028,428.943 434,424.5C 447.353,412.404 462.52,403.237 479.5,397C 468.291,394.518 456.958,393.018 445.5,392.5C 435.057,390.728 424.39,390.062 413.5,390.5C 393.566,392.211 373.899,395.545 354.5,400.5C 353.584,400.457 352.917,400.124 352.5,399.5C 360.307,395.764 367.64,391.264 374.5,386C 405.439,357.287 422.939,321.787 427,279.5C 430.46,252.171 426.46,226.171 415,201.5C 430.059,219.393 446.559,235.726 464.5,250.5 Z"/></g>
<g><path style="opacity:0.993" fill="#16358f" d="M 932.5,395.5 C 928.737,401.098 924.07,405.932 918.5,410C 912.032,411.712 905.532,411.879 899,410.5C 896.239,414.359 893.739,418.359 891.5,422.5C 890.502,447.661 890.169,472.995 890.5,498.5C 859.773,535.01 824.44,540.176 784.5,514C 780.971,511.669 778.971,508.503 778.5,504.5C 780.163,497.849 781.829,491.183 783.5,484.5C 785.247,476.563 787.247,468.563 789.5,460.5C 762.141,453.974 745.308,436.974 739,409.5C 735.908,383.862 737.408,358.529 743.5,333.5C 748.348,318.635 755.682,305.135 765.5,293C 743.46,274.341 737.627,251.508 748,224.5C 755.335,215.579 764.835,210.412 776.5,209C 793.409,205.577 810.409,204.577 827.5,206C 846.672,208.553 859.672,218.72 866.5,236.5C 876.273,233.558 886.273,231.891 896.5,231.5C 919.562,231.932 927.729,243.265 921,265.5C 918.987,269.833 917.32,274.166 916,278.5C 930.15,277.669 941.484,283.003 950,294.5C 958.584,305.757 960.584,318.09 956,331.5C 952.614,340.61 947.948,348.943 942,356.5C 941.807,370.27 938.64,383.27 932.5,395.5 Z"/></g>
<g><path style="opacity:0.999" fill="#e8edfa" d="M 462.5,247.5 C 499.56,247.075 536.226,250.575 572.5,258C 601.803,265.934 629.803,277.1 656.5,291.5C 657.164,369.931 657.83,448.264 658.5,526.5C 655.035,529.625 652.368,533.292 650.5,537.5C 648.067,537.273 646.401,538.273 645.5,540.5C 637.626,528.459 629.46,516.459 621,504.5C 591.783,470.653 554.617,454.32 509.5,455.5C 509.5,454.5 509.5,453.5 509.5,452.5C 511.504,435.84 504.171,427.84 487.5,428.5C 490.558,420.163 493.725,411.83 497,403.5C 497.708,402.619 498.542,401.953 499.5,401.5C 504.354,403.115 509.354,404.115 514.5,404.5C 541.563,414.943 564.73,409.276 584,387.5C 596.835,367.46 597.835,346.793 587,325.5C 577.826,311.986 565.326,302.986 549.5,298.5C 547.181,298.008 545.181,297.008 543.5,295.5C 530.484,288.325 517.151,281.659 503.5,275.5C 502.508,275.672 501.842,275.338 501.5,274.5C 498.992,272.076 495.992,270.41 492.5,269.5C 487.767,266.11 482.767,263.11 477.5,260.5C 475.2,258.016 472.533,256.016 469.5,254.5C 468.415,252.413 466.749,251.08 464.5,250.5C 463.833,249.5 463.167,248.5 462.5,247.5 Z"/></g>
<g><path style="opacity:1" fill="#6072b3" d="M 464.5,250.5 C 466.749,251.08 468.415,252.413 469.5,254.5C 467.251,253.92 465.585,252.587 464.5,250.5 Z"/></g>
<g><path style="opacity:1" fill="#5e71b2" d="M 469.5,254.5 C 472.533,256.016 475.2,258.016 477.5,260.5C 474.109,259.471 471.443,257.471 469.5,254.5 Z"/></g>
<g><path style="opacity:1" fill="#6071b2" d="M 477.5,260.5 C 482.767,263.11 487.767,266.11 492.5,269.5C 486.708,267.685 481.708,264.685 477.5,260.5 Z"/></g>
<g><path style="opacity:0.999" fill="#e8edfa" d="M 261.5,271.5 C 258.968,283.026 257.635,294.692 257.5,306.5C 256.283,336.34 264.616,363.006 282.5,386.5C 281.501,465.665 281.167,544.998 281.5,624.5C 260.526,653.084 241.526,683.084 224.5,714.5C 243.488,715.5 262.488,715.833 281.5,715.5C 219.931,716.831 158.264,716.831 96.5,715.5C 79.3587,676.241 66.5254,635.574 58,593.5C 49.4157,549.815 49.4157,506.148 58,462.5C 73.7779,398.749 109.278,349.249 164.5,314C 194.651,294.926 226.984,280.76 261.5,271.5 Z"/></g>
<g><path style="opacity:1" fill="#6172b2" d="M 492.5,269.5 C 495.992,270.41 498.992,272.076 501.5,274.5C 498.008,273.59 495.008,271.924 492.5,269.5 Z"/></g>
<g><path style="opacity:1" fill="#e9edfa" d="M 1373.5,293.5 C 1374.83,434.5 1374.83,575.5 1373.5,716.5C 1373.83,649.497 1373.5,582.497 1372.5,515.5C 1361.38,512.599 1350.38,513.099 1339.5,517C 1327.45,522.39 1316.45,529.39 1306.5,538C 1294.64,549.529 1283.14,561.362 1272,573.5C 1247.59,604.583 1222.42,635.083 1196.5,665C 1189.88,671.312 1182.54,676.645 1174.5,681C 1169.87,682.756 1165.21,682.923 1160.5,681.5C 1147.56,667.224 1134.23,653.224 1120.5,639.5C 1102.62,609.433 1084.46,579.433 1066,549.5C 1057.06,535.927 1047.89,522.593 1038.5,509.5C 1038.5,464.833 1038.5,420.167 1038.5,375.5C 1086.15,356.841 1133.49,337.341 1180.5,317C 1215.07,303.107 1250.74,293.107 1287.5,287C 1316.75,282.327 1345.42,284.494 1373.5,293.5 Z"/></g>
<g><path style="opacity:1" fill="#6476b4" d="M 503.5,275.5 C 517.151,281.659 530.484,288.325 543.5,295.5C 529.581,289.874 516.248,283.207 503.5,275.5 Z"/></g>
<g><path style="opacity:0.997" fill="#fefefe" d="M 656.5,291.5 C 661.484,293.326 666.151,295.659 670.5,298.5C 670.5,371.5 670.5,444.5 670.5,517.5C 666.524,520.469 662.524,523.469 658.5,526.5C 657.83,448.264 657.164,369.931 656.5,291.5 Z"/></g>
<g><path style="opacity:0.998" fill="#fefefe" d="M 1373.5,293.5 C 1373.56,292.957 1373.89,292.624 1374.5,292.5C 1379.41,294.117 1383.75,296.451 1387.5,299.5C 1386.71,438.667 1386.71,577.667 1387.5,716.5C 1420.34,716.832 1453,716.498 1485.5,715.5C 1486.5,715.5 1487.5,715.5 1488.5,715.5C 1486.66,723.874 1484.66,732.207 1482.5,740.5C 1381.49,740.789 1280.49,740.455 1179.5,739.5C 1179.8,736.941 1179.47,734.607 1178.5,732.5C 1178.64,727.047 1177.97,721.714 1176.5,716.5C 1242.17,716.5 1307.83,716.5 1373.5,716.5C 1374.83,575.5 1374.83,434.5 1373.5,293.5 Z"/></g>
<g><path style="opacity:1" fill="#faf8f9" d="M 768.5,295.5 C 776.392,299.436 784.725,302.27 793.5,304C 822.434,300.421 846.601,309.254 866,330.5C 872.434,338.938 877.101,348.272 880,358.5C 882.689,362.093 886.189,363.926 890.5,364C 899.469,358.004 909.136,353.337 919.5,350C 934.946,348.296 940.446,355.129 936,370.5C 933.924,383.149 928.757,394.316 920.5,404C 906.954,409.245 894.288,407.412 882.5,398.5C 880.404,399.62 880.07,401.12 881.5,403C 885.561,405.359 889.561,407.692 893.5,410C 891.133,415.236 888.133,420.07 884.5,424.5C 884.808,425.308 885.308,425.975 886,426.5C 886.667,450.167 886.667,473.833 886,497.5C 854.133,532.813 819.633,535.813 782.5,506.5C 786.482,491.238 790.149,475.905 793.5,460.5C 812.608,461.902 831.608,460.902 850.5,457.5C 850.923,454.757 849.756,453.424 847,453.5C 822.537,459.636 798.371,458.803 774.5,451C 754.815,440.499 743.982,423.999 742,401.5C 739.291,375.468 742.291,350.135 751,325.5C 756.1,314.953 761.933,304.953 768.5,295.5 Z"/></g>
<g><path style="opacity:1" fill="#17358f" d="M 549.5,298.5 C 565.326,302.986 577.826,311.986 587,325.5C 597.835,346.793 596.835,367.46 584,387.5C 564.73,409.276 541.563,414.943 514.5,404.5C 516.915,404.627 519.249,404.793 521.5,405C 551.366,374.901 560.7,339.401 549.5,298.5 Z"/></g>
<g><path style="opacity:0.999" fill="#e8edfa" d="M 670.5,298.5 C 694.712,310.439 719.045,322.106 743.5,333.5C 737.408,358.529 735.908,383.862 739,409.5C 745.308,436.974 762.141,453.974 789.5,460.5C 787.247,468.563 785.247,476.563 783.5,484.5C 783.265,483.903 782.765,483.57 782,483.5C 771.649,487.348 765.483,494.681 763.5,505.5C 739.213,507.905 714.88,509.738 690.5,511C 683.446,512.074 676.779,514.241 670.5,517.5C 670.5,444.5 670.5,371.5 670.5,298.5 Z"/></g>
<g><path style="opacity:0.998" fill="#e9eefb" d="M 1387.5,299.5 C 1404.71,307.525 1419.55,318.859 1432,333.5C 1453.66,360.83 1469,391.496 1478,425.5C 1487.59,462.439 1495.25,499.773 1501,537.5C 1508.06,589.101 1505.06,640.101 1492,690.5C 1489.97,698.106 1487.47,705.44 1484.5,712.5C 1472.42,666.671 1455.58,622.671 1434,580.5C 1422.73,558.399 1407.57,539.399 1388.5,523.5C 1387.5,587.83 1387.17,652.163 1387.5,716.5C 1386.71,577.667 1386.71,438.667 1387.5,299.5 Z"/></g>
<g><path style="opacity:1" fill="#263e94" d="M 770.5,326.5 C 778.066,326.199 783.899,329.199 788,335.5C 788.494,337.134 788.66,338.801 788.5,340.5C 787.325,340.719 786.325,340.386 785.5,339.5C 782.531,333.18 777.531,330.18 770.5,330.5C 770.5,329.167 770.5,327.833 770.5,326.5 Z"/></g>
<g><path style="opacity:1" fill="#1d3991" d="M 769.5,338.5 C 777.524,338.329 779.69,341.996 776,349.5C 770.798,356.626 766.965,356.126 764.5,348C 765.259,344.313 766.926,341.146 769.5,338.5 Z"/></g>
<g><path style="opacity:1" fill="#2e4297" d="M 816.5,347.5 C 825.865,348.055 831.699,352.721 834,361.5C 833.282,362.451 832.449,362.617 831.5,362C 828.707,355.432 823.707,352.099 816.5,352C 815.272,350.51 815.272,349.01 816.5,347.5 Z"/></g>
<g><path style="opacity:1" fill="#293f95" d="M 791.5,353.5 C 793.346,353.222 794.68,353.889 795.5,355.5C 789.082,368.5 783.082,381.667 777.5,395C 777.909,397.321 778.743,399.487 780,401.5C 782.406,402.565 784.573,403.898 786.5,405.5C 784.472,407.941 782.138,408.108 779.5,406C 774.26,402.436 772.426,397.603 774,391.5C 779.571,378.692 785.405,366.025 791.5,353.5 Z"/></g>
<g><path style="opacity:1" fill="#1f3992" d="M 816.5,359.5 C 818.722,359.178 820.556,359.845 822,361.5C 823.885,368.74 821.385,373.407 814.5,375.5C 811.36,375.072 810.027,373.238 810.5,370C 810.37,365.172 812.37,361.672 816.5,359.5 Z"/></g>
<g><path style="opacity:1" fill="#253d94" d="M 912.5,365.5 C 922.126,365.726 924.959,370.393 921,379.5C 920.038,382.456 918.372,384.79 916,386.5C 914.72,386.387 913.887,385.72 913.5,384.5C 917.043,380.431 918.543,375.765 918,370.5C 916.612,369.446 915.112,369.28 913.5,370C 911.323,371.515 909.156,373.015 907,374.5C 905.72,374.387 904.887,373.72 904.5,372.5C 906.824,369.687 909.49,367.354 912.5,365.5 Z"/></g>
<g><path style="opacity:0.996" fill="#fefefe" d="M 1038.5,375.5 C 1038.5,420.167 1038.5,464.833 1038.5,509.5C 1038.83,520.346 1038.49,531.013 1037.5,541.5C 1033.14,537.806 1029.14,533.806 1025.5,529.5C 1025.83,479.664 1025.5,429.997 1024.5,380.5C 1028.8,378.065 1033.47,376.398 1038.5,375.5 Z"/></g>
<g><path style="opacity:0.999" fill="#e8edfa" d="M 1024.5,380.5 C 1025.5,429.997 1025.83,479.664 1025.5,529.5C 1025.17,529.5 1024.83,529.5 1024.5,529.5C 1024.67,516.496 1024.5,503.496 1024,490.5C 1014.38,478.544 1003.21,468.377 990.5,460C 970.631,449.292 950.631,449.292 930.5,460C 915.18,468.65 902.347,480.15 892,494.5C 891.5,470.502 891.333,446.502 891.5,422.5C 893.739,418.359 896.239,414.359 899,410.5C 905.532,411.879 912.032,411.712 918.5,410C 924.07,405.932 928.737,401.098 932.5,395.5C 964.167,397.667 994.834,392.667 1024.5,380.5 Z"/></g>
<g><path style="opacity:0.999" fill="#fefefe" d="M 282.5,386.5 C 286.54,389.844 290.54,393.177 294.5,396.5C 294.5,503.167 294.5,609.833 294.5,716.5C 370.167,716.5 445.833,716.5 521.5,716.5C 527.925,723.257 533.592,730.59 538.5,738.5C 391.668,739.5 244.668,739.833 97.5,739.5C 93.6109,731.723 90.2776,723.723 87.5,715.5C 90.5,715.5 93.5,715.5 96.5,715.5C 158.264,716.831 219.931,716.831 281.5,715.5C 281.5,685.167 281.5,654.833 281.5,624.5C 281.167,544.998 281.501,465.665 282.5,386.5 Z"/></g>
<g><path style="opacity:1" fill="#fefefe" d="M 1239.5,387.5 C 1256.64,386.738 1269.98,393.405 1279.5,407.5C 1284.47,408.329 1289.47,408.829 1294.5,409C 1308.7,414.225 1314.54,424.392 1312,439.5C 1304.88,455.646 1293.04,460.646 1276.5,454.5C 1263.25,467.896 1247.58,471.729 1229.5,466C 1224.41,464.042 1219.91,461.208 1216,457.5C 1200.53,465.096 1188.53,461.43 1180,446.5C 1175.7,424.274 1184.86,412.774 1207.5,412C 1214.3,398.691 1224.97,390.525 1239.5,387.5 Z"/></g>
<g><path style="opacity:1" fill="#e8edfa" d="M 413.5,391.5 C 424.172,391.686 434.839,392.019 445.5,392.5C 439.701,406.558 433.701,420.558 427.5,434.5C 412.778,435.611 401.278,442.278 393,454.5C 379.367,472.062 371.2,491.895 368.5,514C 368.656,517.2 368.989,520.367 369.5,523.5C 341.967,547.861 317.467,574.861 296,604.5C 295.5,641.498 295.333,678.498 295.5,715.5C 370.833,715.5 446.167,715.5 521.5,715.5C 521.5,715.833 521.5,716.167 521.5,716.5C 445.833,716.5 370.167,716.5 294.5,716.5C 294.5,609.833 294.5,503.167 294.5,396.5C 309.524,405.339 325.524,408.006 342.5,404.5C 365.936,398.761 389.602,394.428 413.5,391.5 Z"/></g>
<g><path style="opacity:1" fill="#4d5ea7" d="M 413.5,391.5 C 413.5,391.167 413.5,390.833 413.5,390.5C 424.39,390.062 435.057,390.728 445.5,392.5C 434.839,392.019 424.172,391.686 413.5,391.5 Z"/></g>
<g><path style="opacity:1" fill="#6f7eba" d="M 413.5,390.5 C 413.5,390.833 413.5,391.167 413.5,391.5C 389.602,394.428 365.936,398.761 342.5,404.5C 342.953,403.542 343.619,402.708 344.5,402C 347.292,401.458 349.958,400.624 352.5,399.5C 352.917,400.124 353.584,400.457 354.5,400.5C 373.899,395.545 393.566,392.211 413.5,390.5 Z"/></g>
<g><path style="opacity:1" fill="#6879b5" d="M 496.5,400.5 C 496.672,401.492 496.338,402.158 495.5,402.5C 495.209,401.351 494.376,400.684 493,400.5C 489.138,399.794 485.305,398.961 481.5,398C 486.793,397.628 491.793,398.461 496.5,400.5 Z"/></g>
<g><path style="opacity:1" fill="#6374b4" d="M 499.5,401.5 C 499.5,401.167 499.5,400.833 499.5,400.5C 504.724,401.388 509.724,402.721 514.5,404.5C 509.354,404.115 504.354,403.115 499.5,401.5 Z"/></g>
<g><path style="opacity:1" fill="#253e94" d="M 823.5,402.5 C 824.833,402.5 826.167,402.5 827.5,402.5C 824.45,415.55 816.117,422.217 802.5,422.5C 800.035,422.522 797.702,422.022 795.5,421C 794.167,420 794.167,419 795.5,418C 806.607,420.187 815.44,416.687 822,407.5C 822.608,405.846 823.108,404.179 823.5,402.5 Z"/></g>
<g><path style="opacity:1" fill="#233b94" d="M 445.5,392.5 C 456.958,393.018 468.291,394.518 479.5,397C 462.52,403.237 447.353,412.404 434,424.5C 432.028,428.943 430.195,433.443 428.5,438C 435.27,444.097 442.103,450.263 449,456.5C 452.824,462.48 455.824,468.814 458,475.5C 460.181,484.152 457.014,489.486 448.5,491.5C 448.664,494.187 448.497,496.854 448,499.5C 446.68,504.921 443.18,507.587 437.5,507.5C 436.372,513.628 432.705,516.961 426.5,517.5C 427.448,530.388 421.781,534.888 409.5,531C 405.069,527.302 401.736,522.802 399.5,517.5C 396.103,516.506 392.77,516.84 389.5,518.5C 383.988,531.615 386.321,543.115 396.5,553C 410.16,561.334 422.66,559.834 434,548.5C 454.79,499.965 475.29,451.299 495.5,402.5C 496.338,402.158 496.672,401.492 496.5,400.5C 497.5,400.5 498.5,400.5 499.5,400.5C 499.5,400.833 499.5,401.167 499.5,401.5C 498.542,401.953 497.708,402.619 497,403.5C 493.725,411.83 490.558,420.163 487.5,428.5C 504.171,427.84 511.504,435.84 509.5,452.5C 506.116,472.589 503.949,492.922 503,513.5C 533.117,553.285 563.617,592.785 594.5,632C 595.332,632.688 595.998,632.521 596.5,631.5C 598.453,627.091 600.787,622.924 603.5,619C 601.612,616.81 599.445,614.977 597,613.5C 596.333,612.5 596.333,611.5 597,610.5C 612.997,587.011 629.164,563.678 645.5,540.5C 646.401,538.273 648.067,537.273 650.5,537.5C 650.657,538.873 650.49,540.207 650,541.5C 633.587,564.659 617.42,587.992 601.5,611.5C 612.561,621.234 623.895,630.568 635.5,639.5C 635.973,640.906 636.973,641.573 638.5,641.5C 651.847,653.512 665.514,665.179 679.5,676.5C 680.29,677.401 681.29,678.068 682.5,678.5C 689.762,684.816 697.095,691.149 704.5,697.5C 708.357,659.605 711.524,621.605 714,583.5C 715.011,582.663 716.178,582.33 717.5,582.5C 713.633,642.502 709.633,702.502 705.5,762.5C 704.566,763.568 704.232,764.901 704.5,766.5C 703.701,777.157 703.034,787.823 702.5,798.5C 702.5,800.167 702.5,801.833 702.5,803.5C 700.339,822.311 698.673,841.311 697.5,860.5C 696.998,862.085 695.998,862.585 694.5,862C 693.878,860.431 693.544,858.764 693.5,857C 696.914,819.871 699.414,782.704 701,745.5C 679.288,785.102 646.121,800.602 601.5,792C 585.139,787.073 571.306,778.239 560,765.5C 552.969,756.313 545.803,747.313 538.5,738.5C 533.592,730.59 527.925,723.257 521.5,716.5C 521.5,716.167 521.5,715.833 521.5,715.5C 488.767,673.711 456.267,631.711 424,589.5C 410.901,574.312 397.568,559.312 384,544.5C 378.651,537.782 373.817,530.782 369.5,523.5C 368.989,520.367 368.656,517.2 368.5,514C 371.2,491.895 379.367,472.062 393,454.5C 401.278,442.278 412.778,435.611 427.5,434.5C 433.701,420.558 439.701,406.558 445.5,392.5 Z"/></g>
<g><path style="opacity:1" fill="#fbf9f9" d="M 488.5,432.5 C 496.051,431.026 501.551,433.693 505,440.5C 503.087,465.212 500.753,489.879 498,514.5C 529.092,555.014 560.425,595.348 592,635.5C 595.975,642.584 599.475,649.917 602.5,657.5C 604.204,658.823 605.537,658.49 606.5,656.5C 603.823,650.127 601.157,643.794 598.5,637.5C 600.552,631.728 603.386,626.394 607,621.5C 639.333,648.5 671.667,675.5 704,702.5C 704.481,713.184 704.147,723.851 703,734.5C 697,743.833 691,753.167 685,762.5C 658.523,789.797 627.356,796.964 591.5,784C 580.245,778.418 570.412,770.918 562,761.5C 517,703.167 472,644.833 427,586.5C 418.716,577.427 410.549,568.261 402.5,559C 416.532,562.767 428.032,558.934 437,547.5C 447.504,522.65 458.004,497.816 468.5,473C 469.766,472.691 470.933,472.191 472,471.5C 474.745,459.847 478.412,448.514 483,437.5C 484.107,434.887 485.94,433.22 488.5,432.5 Z"/></g>
<g><path style="opacity:1" fill="#f6f4f7" d="M 419.5,439.5 C 434.689,446.187 445.855,457.187 453,472.5C 454.405,476.072 454.738,479.739 454,483.5C 452.277,486.773 449.777,487.773 446.5,486.5C 442.42,478.671 438.087,471.004 433.5,463.5C 424.53,458.765 415.364,454.432 406,450.5C 404.422,451.711 404.255,453.045 405.5,454.5C 414.564,458.449 423.397,462.782 432,467.5C 435.745,475.324 439.745,482.991 444,490.5C 444.837,494.295 444.504,497.961 443,501.5C 441.007,503.378 438.841,503.712 436.5,502.5C 431.083,493.584 425.083,485.084 418.5,477C 408.635,474.713 398.635,473.547 388.5,473.5C 388.33,474.822 388.663,475.989 389.5,477C 398.615,477.798 407.615,479.131 416.5,481C 422.369,488.571 427.869,496.404 433,504.5C 433.454,510.712 430.621,513.546 424.5,513C 421,507.5 417.5,502 414,496.5C 411.531,494.348 408.698,492.848 405.5,492C 397.75,492.583 390.083,493.75 382.5,495.5C 382.5,496.833 382.5,498.167 382.5,499.5C 389.315,498.448 396.148,497.448 403,496.5C 405.3,496.494 407.466,496.994 409.5,498C 413.79,504.08 417.957,510.247 422,516.5C 424.424,527.08 420.591,530.58 410.5,527C 407.251,522.503 404.251,517.837 401.5,513C 391.761,513.78 382.094,515.28 372.5,517.5C 375.185,488.965 386.851,464.798 407.5,445C 411.284,442.471 415.284,440.638 419.5,439.5 Z"/></g>
<g><path style="opacity:1" fill="#dfe6fa" d="M 891.5,422.5 C 891.333,446.502 891.5,470.502 892,494.5C 902.347,480.15 915.18,468.65 930.5,460C 950.631,449.292 970.631,449.292 990.5,460C 1003.21,468.377 1014.38,478.544 1024,490.5C 1024.5,503.496 1024.67,516.496 1024.5,529.5C 1024.17,529.5 1023.83,529.5 1023.5,529.5C 1014.02,520.26 1002.69,514.427 989.5,512C 956.641,506.182 923.641,501.682 890.5,498.5C 890.169,472.995 890.502,447.661 891.5,422.5 Z"/></g>
<g><path style="opacity:1" fill="#e0e7fa" d="M 509.5,452.5 C 509.5,453.5 509.5,454.5 509.5,455.5C 554.617,454.32 591.783,470.653 621,504.5C 629.46,516.459 637.626,528.459 645.5,540.5C 629.164,563.678 612.997,587.011 597,610.5C 596.333,611.5 596.333,612.5 597,613.5C 599.445,614.977 601.612,616.81 603.5,619C 600.787,622.924 598.453,627.091 596.5,631.5C 595.998,632.521 595.332,632.688 594.5,632C 563.617,592.785 533.117,553.285 503,513.5C 503.949,492.922 506.116,472.589 509.5,452.5 Z"/></g>
<g><path style="opacity:1" fill="#fcfcfe" d="M 783.5,484.5 C 781.829,491.183 780.163,497.849 778.5,504.5C 773.453,504.337 768.453,504.671 763.5,505.5C 765.483,494.681 771.649,487.348 782,483.5C 782.765,483.57 783.265,483.903 783.5,484.5 Z"/></g>
<g><path style="opacity:1" fill="#9933cb" d="M 890.5,498.5 C 923.641,501.682 956.641,506.182 989.5,512C 1002.69,514.427 1014.02,520.26 1023.5,529.5C 1023.34,530.873 1023.51,532.207 1024,533.5C 1044.98,556.65 1066.15,579.65 1087.5,602.5C 1060.18,634.488 1032.51,666.155 1004.5,697.5C 982.713,677.882 961.38,657.715 940.5,637C 937.866,636.075 936.699,636.909 937,639.5C 957.369,659.37 977.869,679.037 998.5,698.5C 998.5,701.5 998.5,704.5 998.5,707.5C 998.824,711.555 998.491,715.555 997.5,719.5C 981.403,715.637 970.57,721.637 965,737.5C 964.036,754.195 971.703,764.195 988,767.5C 991.907,767.151 995.74,766.485 999.5,765.5C 999.5,766.167 999.5,766.833 999.5,767.5C 976.917,784.137 953.917,800.303 930.5,816C 906.662,826.39 882.662,836.39 858.5,846C 853.576,850.017 851.576,855.184 852.5,861.5C 802.833,861.258 753.166,860.925 703.5,860.5C 701.5,860.5 699.5,860.5 697.5,860.5C 698.673,841.311 700.339,822.311 702.5,803.5C 717.324,796.52 721.491,785.52 715,770.5C 712.716,766.776 709.549,764.109 705.5,762.5C 709.633,702.502 713.633,642.502 717.5,582.5C 716.178,582.33 715.011,582.663 714,583.5C 711.524,621.605 708.357,659.605 704.5,697.5C 697.095,691.149 689.762,684.816 682.5,678.5C 685.564,675.176 687.397,671.176 688,666.5C 689.344,644.503 679.011,632.17 657,629.5C 648.315,629.762 641.148,633.095 635.5,639.5C 623.895,630.568 612.561,621.234 601.5,611.5C 617.42,587.992 633.587,564.659 650,541.5C 650.49,540.207 650.657,538.873 650.5,537.5C 652.368,533.292 655.035,529.625 658.5,526.5C 662.524,523.469 666.524,520.469 670.5,517.5C 676.779,514.241 683.446,512.074 690.5,511C 714.88,509.738 739.213,507.905 763.5,505.5C 768.453,504.671 773.453,504.337 778.5,504.5C 778.971,508.503 780.971,511.669 784.5,514C 824.44,540.176 859.773,535.01 890.5,498.5 Z"/></g>
<g><path style="opacity:1" fill="#dee5f9" d="M 1038.5,509.5 C 1047.89,522.593 1057.06,535.927 1066,549.5C 1084.46,579.433 1102.62,609.433 1120.5,639.5C 1110.56,629.062 1100.4,618.728 1090,608.5C 1089.33,607.5 1089.33,606.5 1090,605.5C 1093.09,603.282 1093.09,600.949 1090,598.5C 1072.29,579.63 1054.79,560.63 1037.5,541.5C 1038.49,531.013 1038.83,520.346 1038.5,509.5 Z"/></g>
<g><path style="opacity:1" fill="#e1e7fa" d="M 1373.5,716.5 C 1307.83,716.5 1242.17,716.5 1176.5,716.5C 1173.09,703.914 1167.75,692.247 1160.5,681.5C 1165.21,682.923 1169.87,682.756 1174.5,681C 1182.54,676.645 1189.88,671.312 1196.5,665C 1222.42,635.083 1247.59,604.583 1272,573.5C 1283.14,561.362 1294.64,549.529 1306.5,538C 1316.45,529.39 1327.45,522.39 1339.5,517C 1350.38,513.099 1361.38,512.599 1372.5,515.5C 1373.5,582.497 1373.83,649.497 1373.5,716.5 Z"/></g>
<g><path style="opacity:1" fill="#eeeef3" d="M 383.5,518.5 C 384.978,518.238 386.311,518.571 387.5,519.5C 386.194,520.912 385.36,522.579 385,524.5C 384.667,528.833 384.333,533.167 384,537.5C 380.109,532.607 376.609,527.44 373.5,522C 376.942,520.816 380.275,519.65 383.5,518.5 Z"/></g>
<g><path style="opacity:1" fill="#e0e7fa" d="M 369.5,523.5 C 373.817,530.782 378.651,537.782 384,544.5C 397.568,559.312 410.901,574.312 424,589.5C 456.267,631.711 488.767,673.711 521.5,715.5C 446.167,715.5 370.833,715.5 295.5,715.5C 295.333,678.498 295.5,641.498 296,604.5C 317.467,574.861 341.967,547.861 369.5,523.5 Z"/></g>
<g><path style="opacity:1" fill="#e1e8fb" d="M 1484.5,712.5 C 1485.11,713.391 1485.44,714.391 1485.5,715.5C 1453,716.498 1420.34,716.832 1387.5,716.5C 1387.17,652.163 1387.5,587.83 1388.5,523.5C 1407.57,539.399 1422.73,558.399 1434,580.5C 1455.58,622.671 1472.42,666.671 1484.5,712.5 Z"/></g>
<g><path style="opacity:0.996" fill="#16348f" d="M 1023.5,529.5 C 1023.83,529.5 1024.17,529.5 1024.5,529.5C 1024.83,529.5 1025.17,529.5 1025.5,529.5C 1029.14,533.806 1033.14,537.806 1037.5,541.5C 1054.79,560.63 1072.29,579.63 1090,598.5C 1093.09,600.949 1093.09,603.282 1090,605.5C 1089.33,606.5 1089.33,607.5 1090,608.5C 1100.4,618.728 1110.56,629.062 1120.5,639.5C 1134.23,653.224 1147.56,667.224 1160.5,681.5C 1167.75,692.247 1173.09,703.914 1176.5,716.5C 1177.97,721.714 1178.64,727.047 1178.5,732.5C 1179.53,764.611 1167.86,791.111 1143.5,812C 1093,845.748 1042.34,879.248 991.5,912.5C 989.237,931.083 988.237,949.749 988.5,968.5C 987.414,991.402 986.08,1014.24 984.5,1037C 882.832,1037.83 781.165,1037.67 679.5,1036.5C 681.33,1025.2 682.996,1013.86 684.5,1002.5C 691.145,955.351 697.478,908.017 703.5,860.5C 753.166,860.925 802.833,861.258 852.5,861.5C 851.576,855.184 853.576,850.017 858.5,846C 882.662,836.39 906.662,826.39 930.5,816C 953.917,800.303 976.917,784.137 999.5,767.5C 1013.03,759.237 1026.03,750.237 1038.5,740.5C 1040.2,740.315 1041.53,739.481 1042.5,738C 1036.64,730.643 1030.64,723.476 1024.5,716.5C 1020.24,710.233 1015.57,704.233 1010.5,698.5C 1008.5,700.005 1006.66,701.672 1005,703.5C 1002.68,702.015 1000.52,700.348 998.5,698.5C 977.869,679.037 957.369,659.37 937,639.5C 936.699,636.909 937.866,636.075 940.5,637C 961.38,657.715 982.713,677.882 1004.5,697.5C 1032.51,666.155 1060.18,634.488 1087.5,602.5C 1066.15,579.65 1044.98,556.65 1024,533.5C 1023.51,532.207 1023.34,530.873 1023.5,529.5 Z"/></g>
<g><path style="opacity:1" fill="#be7edd" d="M 987.5,545.5 C 1010.79,544.948 1019.96,555.948 1015,578.5C 1006.6,591.452 995.432,594.619 981.5,588C 967.59,575.984 966.924,563.318 979.5,550C 982.391,548.726 985.058,547.226 987.5,545.5 Z"/></g>
<g><path style="opacity:1" fill="#9a34cc" d="M 988.5,549.5 C 1006.19,548.69 1014.03,557.024 1012,574.5C 1006.19,586.659 997.027,590.159 984.5,585C 975.768,578.461 973.268,569.961 977,559.5C 979.794,554.866 983.627,551.533 988.5,549.5 Z"/></g>
<g><path style="opacity:1" fill="#bf7fdd" d="M 782.5,558.5 C 799.636,557.13 806.802,564.796 804,581.5C 799.774,590.03 792.941,593.197 783.5,591C 773.642,586.412 770.142,578.912 773,568.5C 775.359,564.31 778.526,560.977 782.5,558.5 Z"/></g>
<g><path style="opacity:1" fill="#9a34cc" d="M 784.5,562.5 C 798.917,562.4 803.75,569.067 799,582.5C 793.49,588.043 787.323,588.876 780.5,585C 775.82,579.209 775.32,573.042 779,566.5C 780.812,565.023 782.645,563.69 784.5,562.5 Z"/></g>
<g><path style="opacity:1" fill="#9b37cc" d="M 1170.5,566.5 C 1174.31,566.163 1177.97,566.663 1181.5,568C 1186.88,572.619 1190.88,578.119 1193.5,584.5C 1193.31,586.577 1192.81,588.577 1192,590.5C 1187.33,596.856 1181.33,601.189 1174,603.5C 1172.37,603.375 1170.87,602.875 1169.5,602C 1166,598.5 1162.5,595 1159,591.5C 1156.21,587.33 1155.88,582.997 1158,578.5C 1162.06,574.269 1166.23,570.269 1170.5,566.5 Z"/></g>
<g><path style="opacity:1" fill="#bf7fdd" d="M 662.5,567.5 C 677.596,568.02 682.429,575.353 677,589.5C 671.49,595.043 665.323,595.876 658.5,592C 653.848,587.464 652.348,581.964 654,575.5C 656.074,571.923 658.907,569.256 662.5,567.5 Z"/></g>
<g><path style="opacity:1" fill="#9b35cc" d="M 663.5,571.5 C 672.498,571.329 676.331,575.662 675,584.5C 669.833,592.079 664.167,592.412 658,585.5C 656.268,579.314 658.101,574.647 663.5,571.5 Z"/></g>
<g><path style="opacity:1" fill="#bf7edd" d="M 897.5,578.5 C 915.345,578.84 923.511,587.84 922,605.5C 917.521,617.161 909.021,622.328 896.5,621C 881.741,614.975 877.241,604.475 883,589.5C 886.514,584.003 891.348,580.337 897.5,578.5 Z"/></g>
<g><path style="opacity:1" fill="#9c38cd" d="M 321.5,580.5 C 323.655,580.372 325.655,580.872 327.5,582C 340.521,593.041 339.021,601.541 323,607.5C 321.033,607.458 319.199,606.958 317.5,606C 313.991,602.504 311.324,598.504 309.5,594C 311.917,588.084 315.917,583.584 321.5,580.5 Z"/></g>
<g><path style="opacity:1" fill="#9a34cc" d="M 895.5,583.5 C 911.801,581.968 919.301,589.302 918,605.5C 912.997,615.419 905.164,618.919 894.5,616C 883.969,609.248 881.803,600.415 888,589.5C 890.114,586.879 892.614,584.879 895.5,583.5 Z"/></g>
<g><path style="opacity:1" fill="#fefefe" d="M 204.5,598.5 C 217.393,597.901 226.226,603.568 231,615.5C 233.904,629.86 228.737,640.026 215.5,646C 193.381,648.547 182.881,638.714 184,616.5C 187.657,606.664 194.491,600.664 204.5,598.5 Z"/></g>
<g><path style="opacity:1" fill="#faf9f9" d="M 1085.5,610.5 C 1108.08,632.252 1130.25,654.585 1152,677.5C 1178.26,710.891 1181.59,746.558 1162,784.5C 1155.21,795.259 1146.71,804.426 1136.5,812C 1085.83,845.333 1035.17,878.667 984.5,912C 961.167,930.333 937.833,948.667 914.5,967C 904.058,970.224 899.224,966.39 900,955.5C 905.875,949.384 912.208,943.717 919,938.5C 919.483,937.552 919.649,936.552 919.5,935.5C 917.692,935.491 916.025,935.991 914.5,937C 904.452,945.382 894.119,953.382 883.5,961C 873.13,961.968 869.297,957.468 872,947.5C 883.114,938.037 894.281,928.704 905.5,919.5C 905.113,918.28 904.28,917.613 903,917.5C 887.76,929.208 872.594,941.041 857.5,953C 845.768,955.6 841.601,951.1 845,939.5C 859.5,927.667 874,915.833 888.5,904C 890.037,902.89 890.703,901.39 890.5,899.5C 887.774,899.264 885.441,900.097 883.5,902C 874.379,910.389 864.713,918.055 854.5,925C 844.229,925.951 840.395,921.451 843,911.5C 860.708,896.068 878.874,881.235 897.5,867C 900.372,864.468 900.039,862.635 896.5,861.5C 885.589,864.538 874.589,866.705 863.5,868C 855.182,862.434 854.515,856.101 861.5,849C 884.569,839.865 907.569,830.532 930.5,821C 969.333,794.167 1008.17,767.333 1047,740.5C 1047.42,738.212 1046.75,736.212 1045,734.5C 1034.31,721.31 1023.81,707.977 1013.5,694.5C 1037.9,666.775 1061.9,638.775 1085.5,610.5 Z"/></g>
<g><path style="opacity:1" fill="#bf7fdd" d="M 995.5,615.5 C 1014.41,615.013 1020.91,623.679 1015,641.5C 1006,650.833 997,650.833 988,641.5C 982.785,630.439 985.285,621.772 995.5,615.5 Z"/></g>
<g><path style="opacity:1" fill="#9a35cc" d="M 997.5,619.5 C 1009.87,618.7 1015.04,624.367 1013,636.5C 1005.33,647.167 997.667,647.167 990,636.5C 987.785,628.6 990.285,622.934 997.5,619.5 Z"/></g>
<g><path style="opacity:1" fill="#e1e8fb" d="M 281.5,624.5 C 281.5,654.833 281.5,685.167 281.5,715.5C 262.488,715.833 243.488,715.5 224.5,714.5C 241.526,683.084 260.526,653.084 281.5,624.5 Z"/></g>
<g><path style="opacity:1" fill="#be7edd" d="M 682.5,678.5 C 681.29,678.068 680.29,677.401 679.5,676.5C 687.989,661.744 685.656,648.911 672.5,638C 660.259,631.157 648.925,632.324 638.5,641.5C 636.973,641.573 635.973,640.906 635.5,639.5C 641.148,633.095 648.315,629.762 657,629.5C 679.011,632.17 689.344,644.503 688,666.5C 687.397,671.176 685.564,675.176 682.5,678.5 Z"/></g>
<g><path style="opacity:1" fill="#bf7fdd" d="M 824.5,632.5 C 837.217,632.046 842.717,638.046 841,650.5C 835.907,658.743 829.074,660.576 820.5,656C 812.905,646.582 814.238,638.749 824.5,632.5 Z"/></g>
<g><path style="opacity:1" fill="#9934cb" d="M 679.5,676.5 C 665.514,665.179 651.847,653.512 638.5,641.5C 648.925,632.324 660.259,631.157 672.5,638C 685.656,648.911 687.989,661.744 679.5,676.5 Z"/></g>
<g><path style="opacity:1" fill="#9b36cc" d="M 825.5,636.5 C 834.036,636.2 837.87,640.2 837,648.5C 834.647,653.426 830.814,655.26 825.5,654C 817.555,648.17 817.555,642.336 825.5,636.5 Z"/></g>
<g><path style="opacity:1" fill="#bf7fdd" d="M 781.5,672.5 C 800.017,670.855 808.851,679.188 808,697.5C 803.34,709.75 794.507,714.583 781.5,712C 769.893,706.283 765.727,697.116 769,684.5C 772.018,679.252 776.185,675.252 781.5,672.5 Z"/></g>
<g><path style="opacity:1" fill="#9a34cc" d="M 782.5,676.5 C 799.154,675.646 805.987,683.312 803,699.5C 796.819,708.83 788.652,710.996 778.5,706C 770.668,699.172 769.501,691.338 775,682.5C 777.478,680.361 779.978,678.361 782.5,676.5 Z"/></g>
<g><path style="opacity:1" fill="#dce3f8" d="M 998.5,698.5 C 1000.52,700.348 1002.68,702.015 1005,703.5C 1006.66,701.672 1008.5,700.005 1010.5,698.5C 1015.57,704.233 1020.24,710.233 1024.5,716.5C 1016.17,716.5 1007.83,716.5 999.5,716.5C 999.81,713.287 999.477,710.287 998.5,707.5C 998.5,704.5 998.5,701.5 998.5,698.5 Z"/></g>
<g><path style="opacity:1" fill="#fdfdfe" d="M 999.5,716.5 C 1007.83,716.5 1016.17,716.5 1024.5,716.5C 1030.64,723.476 1036.64,730.643 1042.5,738C 1041.53,739.481 1040.2,740.315 1038.5,740.5C 1025.5,740.072 1012.5,739.738 999.5,739.5C 999.5,737.833 999.5,736.167 999.5,734.5C 999.5,728.5 999.5,722.5 999.5,716.5 Z"/></g>
<g><path style="opacity:1" fill="#c081dd" d="M 998.5,707.5 C 999.477,710.287 999.81,713.287 999.5,716.5C 999.5,722.5 999.5,728.5 999.5,734.5C 998.834,730.979 998.167,727.313 997.5,723.5C 984.937,719.698 975.771,723.698 970,735.5C 968.212,757.552 978.046,766.219 999.5,761.5C 999.5,762.833 999.5,764.167 999.5,765.5C 995.74,766.485 991.907,767.151 988,767.5C 971.703,764.195 964.036,754.195 965,737.5C 970.57,721.637 981.403,715.637 997.5,719.5C 998.491,715.555 998.824,711.555 998.5,707.5 Z"/></g>
<g><path style="opacity:1" fill="#9a34cc" d="M 999.5,734.5 C 999.5,736.167 999.5,737.833 999.5,739.5C 999.5,746.833 999.5,754.167 999.5,761.5C 978.046,766.219 968.212,757.552 970,735.5C 975.771,723.698 984.937,719.698 997.5,723.5C 998.167,727.313 998.834,730.979 999.5,734.5 Z"/></g>
<g><path style="opacity:1" fill="#bf7fdd" d="M 879.5,723.5 C 899.015,721.519 908.182,730.186 907,749.5C 901.265,763.95 891.098,768.45 876.5,763C 864.989,755.078 862.489,744.911 869,732.5C 872.103,728.886 875.603,725.886 879.5,723.5 Z"/></g>
<g><path style="opacity:1" fill="#9a34cc" d="M 881.5,727.5 C 898.683,726.841 905.517,734.841 902,751.5C 895.601,761.558 887.101,763.725 876.5,758C 868.267,750.237 867.434,741.737 874,732.5C 876.426,730.548 878.926,728.881 881.5,727.5 Z"/></g>
<g><path style="opacity:0.999" fill="#f4f6fb" d="M 538.5,738.5 C 545.803,747.313 552.969,756.313 560,765.5C 571.306,778.239 585.139,787.073 601.5,792C 646.121,800.602 679.288,785.102 701,745.5C 699.414,782.704 696.914,819.871 693.5,857C 693.544,858.764 693.878,860.431 694.5,862C 695.998,862.585 696.998,862.085 697.5,860.5C 699.5,860.5 701.5,860.5 703.5,860.5C 697.478,908.017 691.145,955.351 684.5,1002.5C 626.82,1026.34 567.82,1046.51 507.5,1063C 485.489,1068.45 463.156,1071.62 440.5,1072.5C 418.871,1073.23 399.537,1067.07 382.5,1054C 363.56,1039.06 347.393,1021.56 334,1001.5C 314.969,981.067 291.469,969.234 263.5,966C 241.252,963.258 218.919,961.591 196.5,961C 133.862,954.028 95.362,919.862 81,858.5C 77.6118,844.009 76.2785,829.342 77,814.5C 83.7388,789.454 90.5721,764.454 97.5,739.5C 244.668,739.833 391.668,739.5 538.5,738.5 Z"/></g>
<g><path style="opacity:1" fill="#f2f4fa" d="M 999.5,739.5 C 1012.5,739.738 1025.5,740.072 1038.5,740.5C 1026.03,750.237 1013.03,759.237 999.5,767.5C 999.5,766.833 999.5,766.167 999.5,765.5C 999.5,764.167 999.5,762.833 999.5,761.5C 999.5,754.167 999.5,746.833 999.5,739.5 Z"/></g>
<g><path style="opacity:0.997" fill="#f4f6fb" d="M 1178.5,732.5 C 1179.47,734.607 1179.8,736.941 1179.5,739.5C 1280.49,740.455 1381.49,740.789 1482.5,740.5C 1466,793.157 1444.84,843.824 1419,892.5C 1412.08,903.688 1403.74,913.688 1394,922.5C 1385.83,935.514 1377.16,948.18 1368,960.5C 1348.49,982.674 1323.99,995.507 1294.5,999C 1260.4,1002.05 1226.74,999.385 1193.5,991C 1168.48,984.881 1143.81,977.548 1119.5,969C 1075.83,968.5 1032.17,968.333 988.5,968.5C 988.237,949.749 989.237,931.083 991.5,912.5C 1042.34,879.248 1093,845.748 1143.5,812C 1167.86,791.111 1179.53,764.611 1178.5,732.5 Z"/></g>
<g><path style="opacity:1" fill="#bd7edc" d="M 705.5,762.5 C 709.549,764.109 712.716,766.776 715,770.5C 721.491,785.52 717.324,796.52 702.5,803.5C 702.5,801.833 702.5,800.167 702.5,798.5C 713.493,793.176 716.659,784.843 712,773.5C 710.285,770.283 707.785,767.95 704.5,766.5C 704.232,764.901 704.566,763.568 705.5,762.5 Z"/></g>
<g><path style="opacity:1" fill="#9835cb" d="M 704.5,766.5 C 707.785,767.95 710.285,770.283 712,773.5C 716.659,784.843 713.493,793.176 702.5,798.5C 703.034,787.823 703.701,777.157 704.5,766.5 Z"/></g>
<g><path style="opacity:1" fill="#bf80dd" d="M 775.5,788.5 C 786.318,787.817 791.151,792.817 790,803.5C 786.677,809.908 781.511,812.075 774.5,810C 766.273,802.345 766.607,795.178 775.5,788.5 Z"/></g>
<g><path style="opacity:1" fill="#9b35cc" d="M 776.5,792.5 C 785.61,792.752 788.277,796.918 784.5,805C 775.956,808.322 772.123,805.489 773,796.5C 774.376,795.295 775.542,793.962 776.5,792.5 Z"/></g>
<g><path style="opacity:1" fill="#be7edd" d="M 835.5,796.5 C 848.528,796.015 853.695,802.015 851,814.5C 842.973,824.112 835.307,823.778 828,813.5C 826.16,805.851 828.66,800.184 835.5,796.5 Z"/></g>
<g><path style="opacity:1" fill="#9b36cc" d="M 836.5,800.5 C 846.619,800.452 849.785,805.118 846,814.5C 840.162,819.041 835.495,818.041 832,811.5C 830.776,806.626 832.276,802.959 836.5,800.5 Z"/></g>
<g><path style="opacity:1" fill="#fbf9fa" d="M 1224.5,872.5 C 1230.31,871.652 1234.14,873.985 1236,879.5C 1236.67,891.833 1236.67,904.167 1236,916.5C 1232.6,923.629 1227.44,925.129 1220.5,921C 1211.72,915.22 1203.22,909.054 1195,902.5C 1192.87,896.9 1194.37,892.4 1199.5,889C 1207.9,883.476 1216.23,877.976 1224.5,872.5 Z"/></g>
</svg>
