<svg width="24" height="24" viewBox="0 0 24 24" fill="none" xmlns="http://www.w3.org/2000/svg">
<path d="M5 6V18.18C5.51936 17.9882 6.08238 17.9473 6.624 18.062C7.23093 18.1923 7.78272 18.5071 8.20378 18.9633C8.62483 19.4194 8.89456 19.9946 8.976 20.61C9.039 21.08 8.986 21.557 8.82 22H15.18C15.0144 21.5566 14.9609 21.0791 15.024 20.61C15.1056 19.9948 15.3754 19.4198 15.7965 18.9639C16.2175 18.5079 16.7692 18.1933 17.376 18.063C17.9175 17.948 18.4805 17.9886 19 18.18V6H5Z" fill="#E2B1FF"/>
<path d="M21 2H3C2.46957 2 1.96086 2.21071 1.58579 2.58579C1.21071 2.96086 1 3.46957 1 4V10C1 10.5304 1.21071 11.0391 1.58579 11.4142C1.96086 11.7893 2.46957 12 3 12H5V6H19V12H21C21.5304 12 22.0391 11.7893 22.4142 11.4142C22.7893 11.0391 23 10.5304 23 10V4C23 3.46957 22.7893 2.96086 22.4142 2.58579C22.0391 2.21071 21.5304 2 21 2Z" fill="#681C96"/>
<path d="M12 15C11.2044 15 10.4413 14.6839 9.87868 14.1213C9.31607 13.5587 9 12.7956 9 12C9 11.2044 9.31607 10.4413 9.87868 9.87868C10.4413 9.31607 11.2044 9 12 9C12.7956 9 13.5587 9.31607 14.1213 9.87868C14.6839 10.4413 15 11.2044 15 12C15 12.7956 14.6839 13.5587 14.1213 14.1213C13.5587 14.6839 12.7956 15 12 15Z" fill="#681C96"/>
<path d="M6.624 18.0636C6.08238 17.949 5.51936 17.9899 5 18.1816V20.0016C5.00158 20.5316 5.2128 21.0394 5.58753 21.4141C5.96227 21.7888 6.47005 22 7 22.0016H8.82C8.985 21.5586 9.039 21.0816 8.976 20.6116C8.89456 19.9962 8.62483 19.4211 8.20378 18.9649C7.78272 18.5088 7.23093 18.194 6.624 18.0636ZM17.376 18.0636C16.7691 18.194 16.2173 18.5088 15.7962 18.9649C15.3752 19.4211 15.1054 19.9962 15.024 20.6116C14.961 21.0816 15.014 21.5586 15.18 22.0016H17C17.5299 22 18.0377 21.7888 18.4125 21.4141C18.7872 21.0394 18.9984 20.5316 19 20.0016V18.1816C18.4806 17.9899 17.9176 17.949 17.376 18.0636Z" fill="#F0D8FF"/>
</svg>
