<svg width="28" height="28" viewBox="0 0 28 28" fill="none" xmlns="http://www.w3.org/2000/svg">
<path d="M14.0002 25.6693C20.4435 25.6693 25.6668 20.4459 25.6668 14.0026C25.6668 7.55928 20.4435 2.33594 14.0002 2.33594C7.55684 2.33594 2.3335 7.55928 2.3335 14.0026C2.3335 20.4459 7.55684 25.6693 14.0002 25.6693Z" fill="#E2B1FF"/>
<path d="M17.5002 17.5H10.5002C10.1907 17.5 9.894 17.3771 9.67521 17.1583C9.45641 16.9395 9.3335 16.6428 9.3335 16.3333C9.3335 16.0239 9.45641 15.7272 9.67521 15.5084C9.894 15.2896 10.1907 15.1667 10.5002 15.1667H17.5002C17.8096 15.1667 18.1063 15.2896 18.3251 15.5084C18.5439 15.7272 18.6668 16.0239 18.6668 16.3333C18.6668 16.6428 18.5439 16.9395 18.3251 17.1583C18.1063 17.3771 17.8096 17.5 17.5002 17.5ZM17.5002 12.8333H10.5002C10.1907 12.8333 9.894 12.7104 9.67521 12.4916C9.45641 12.2728 9.3335 11.9761 9.3335 11.6667C9.3335 11.3572 9.45641 11.0605 9.67521 10.8417C9.894 10.6229 10.1907 10.5 10.5002 10.5H17.5002C17.8096 10.5 18.1063 10.6229 18.3251 10.8417C18.5439 11.0605 18.6668 11.3572 18.6668 11.6667C18.6668 11.9761 18.5439 12.2728 18.3251 12.4916C18.1063 12.7104 17.8096 12.8333 17.5002 12.8333Z" fill="#681C96"/>
</svg>
