<svg width="28" height="28" viewBox="0 0 28 28" fill="none" xmlns="http://www.w3.org/2000/svg">
<path d="M14 23.3359C15.933 23.3359 17.5 21.7689 17.5 19.8359C17.5 17.9029 15.933 16.3359 14 16.3359C12.067 16.3359 10.5 17.9029 10.5 19.8359C10.5 21.7689 12.067 23.3359 14 23.3359Z" fill="#E2B1FF"/>
<path d="M22.1665 16.3359C24.0995 16.3359 25.6665 14.7689 25.6665 12.8359C25.6665 10.9029 24.0995 9.33594 22.1665 9.33594C20.2335 9.33594 18.6665 10.9029 18.6665 12.8359C18.6665 14.7689 20.2335 16.3359 22.1665 16.3359Z" fill="#E2B1FF"/>
<path d="M5.8335 14C7.76649 14 9.3335 12.433 9.3335 10.5C9.3335 8.567 7.76649 7 5.8335 7C3.9005 7 2.3335 8.567 2.3335 10.5C2.3335 12.433 3.9005 14 5.8335 14Z" fill="#E2B1FF"/>
<path d="M22.1665 9.33594C22.5783 9.33594 22.9668 9.41994 23.3332 9.5506V3.5026C23.3332 3.19318 23.2103 2.89644 22.9915 2.67765C22.7727 2.45885 22.4759 2.33594 22.1665 2.33594C21.8571 2.33594 21.5603 2.45885 21.3415 2.67765C21.1228 2.89644 20.9998 3.19318 20.9998 3.5026V9.5506C21.3735 9.41256 21.7682 9.33994 22.1665 9.33594ZM5.83317 7.0026C6.245 7.0026 6.6335 7.0866 6.99984 7.21727V3.5026C6.99984 3.19318 6.87692 2.89644 6.65813 2.67765C6.43934 2.45885 6.14259 2.33594 5.83317 2.33594C5.52375 2.33594 5.22701 2.45885 5.00821 2.67765C4.78942 2.89644 4.6665 3.19318 4.6665 3.5026V7.21727C5.04017 7.07923 5.43484 7.00661 5.83317 7.0026ZM13.9998 16.3359C14.4117 16.3359 14.8002 16.4199 15.1665 16.5506V3.5026C15.1665 3.19318 15.0436 2.89644 14.8248 2.67765C14.606 2.45885 14.3093 2.33594 13.9998 2.33594C13.6904 2.33594 13.3937 2.45885 13.1749 2.67765C12.9561 2.89644 12.8332 3.19318 12.8332 3.5026V16.5506C13.2068 16.4126 13.6015 16.3399 13.9998 16.3359ZM5.83317 14.0026C5.42134 14.0026 5.03284 13.9186 4.6665 13.7879V24.5026C4.6665 24.812 4.78942 25.1088 5.00821 25.3276C5.22701 25.5464 5.52375 25.6693 5.83317 25.6693C6.14259 25.6693 6.43934 25.5464 6.65813 25.3276C6.87692 25.1088 6.99984 24.812 6.99984 24.5026V13.7879C6.62617 13.926 6.2315 13.9986 5.83317 14.0026ZM13.9998 23.3359C13.588 23.3359 13.1995 23.2519 12.8332 23.1213V24.5026C12.8332 24.812 12.9561 25.1088 13.1749 25.3276C13.3937 25.5464 13.6904 25.6693 13.9998 25.6693C14.3093 25.6693 14.606 25.5464 14.8248 25.3276C15.0436 25.1088 15.1665 24.812 15.1665 24.5026V23.1213C14.7928 23.2593 14.3982 23.3319 13.9998 23.3359ZM22.1665 16.3359C21.7547 16.3359 21.3662 16.2519 20.9998 16.1213V24.5026C20.9998 24.812 21.1228 25.1088 21.3415 25.3276C21.5603 25.5464 21.8571 25.6693 22.1665 25.6693C22.4759 25.6693 22.7727 25.5464 22.9915 25.3276C23.2103 25.1088 23.3332 24.812 23.3332 24.5026V16.1213C22.9595 16.2593 22.5648 16.3319 22.1665 16.3359Z" fill="#681C96"/>
</svg>
