<svg width="28" height="28" viewBox="0 0 28 28" fill="none" xmlns="http://www.w3.org/2000/svg">
<path d="M22.1665 25.6693H5.83317C5.52375 25.6693 5.22701 25.5464 5.00821 25.3276C4.78942 25.1088 4.6665 24.812 4.6665 24.5026C4.6665 24.1932 4.78942 23.8964 5.00821 23.6776C5.22701 23.4589 5.52375 23.3359 5.83317 23.3359H22.1665C22.4759 23.3359 22.7727 23.4589 22.9915 23.6776C23.2103 23.8964 23.3332 24.1932 23.3332 24.5026C23.3332 24.812 23.2103 25.1088 22.9915 25.3276C22.7727 25.5464 22.4759 25.6693 22.1665 25.6693Z" fill="#681C96"/>
<path d="M13.9998 20.9994C13.8465 20.9996 13.6948 20.9695 13.5532 20.9108C13.4117 20.8521 13.2831 20.7661 13.1749 20.6576L8.39394 15.8766C7.28532 14.7679 6.53037 13.3553 6.22454 11.8176C5.91872 10.2798 6.07575 8.68589 6.67578 7.23737C7.27581 5.78885 8.2919 4.55078 9.59556 3.67973C10.8992 2.80867 12.4319 2.34375 13.9998 2.34375C15.5677 2.34375 17.1003 2.80867 18.404 3.67973C19.7076 4.55078 20.7237 5.78885 21.3238 7.23737C21.9238 8.68589 22.0808 10.2798 21.775 11.8176C21.4692 13.3553 20.7142 14.7679 19.6056 15.8766L14.8246 20.6576C14.7164 20.7661 14.5878 20.8521 14.4463 20.9108C14.3047 20.9695 14.153 20.9996 13.9998 20.9994Z" fill="#E2B1FF"/>
<path d="M13.9998 12.6042C15.2885 12.6042 16.3332 11.5595 16.3332 10.2708C16.3332 8.98217 15.2885 7.9375 13.9998 7.9375C12.7112 7.9375 11.6665 8.98217 11.6665 10.2708C11.6665 11.5595 12.7112 12.6042 13.9998 12.6042Z" fill="#681C96"/>
</svg>
