<svg width="28" height="28" viewBox="0 0 28 28" fill="none" xmlns="http://www.w3.org/2000/svg">
<path d="M15.1668 24.5H10.5002V17.5C10.5002 17.1908 10.6229 16.8942 10.8415 16.6755C11.06 16.4567 11.3564 16.3336 11.6657 16.3333H16.3335C16.6427 16.3333 16.9393 16.4561 17.158 16.6746C17.3768 16.8932 17.4999 17.1896 17.5002 17.4988V24.5H15.1668ZM11.6668 14H10.5002C10.1907 14 9.894 13.8771 9.67521 13.6583C9.45641 13.4395 9.3335 13.1428 9.3335 12.8333C9.3335 12.5239 9.45641 12.2272 9.67521 12.0084C9.894 11.7896 10.1907 11.6667 10.5002 11.6667H11.6668C11.9762 11.6667 12.273 11.7896 12.4918 12.0084C12.7106 12.2272 12.8335 12.5239 12.8335 12.8333C12.8335 13.1428 12.7106 13.4395 12.4918 13.6583C12.273 13.8771 11.9762 14 11.6668 14ZM11.6668 9.33333H10.5002C10.1907 9.33333 9.894 9.21042 9.67521 8.99162C9.45641 8.77283 9.3335 8.47609 9.3335 8.16667C9.3335 7.85725 9.45641 7.5605 9.67521 7.34171C9.894 7.12292 10.1907 7 10.5002 7H11.6668C11.9762 7 12.273 7.12292 12.4918 7.34171C12.7106 7.5605 12.8335 7.85725 12.8335 8.16667C12.8335 8.47609 12.7106 8.77283 12.4918 8.99162C12.273 9.21042 11.9762 9.33333 11.6668 9.33333ZM17.5002 9.33333H16.3335C16.0241 9.33333 15.7273 9.21042 15.5085 8.99162C15.2897 8.77283 15.1668 8.47609 15.1668 8.16667C15.1668 7.85725 15.2897 7.5605 15.5085 7.34171C15.7273 7.12292 16.0241 7 16.3335 7H17.5002C17.8096 7 18.1063 7.12292 18.3251 7.34171C18.5439 7.5605 18.6668 7.85725 18.6668 8.16667C18.6668 8.47609 18.5439 8.77283 18.3251 8.99162C18.1063 9.21042 17.8096 9.33333 17.5002 9.33333ZM17.5002 14H16.3335C16.0241 14 15.7273 13.8771 15.5085 13.6583C15.2897 13.4395 15.1668 13.1428 15.1668 12.8333C15.1668 12.5239 15.2897 12.2272 15.5085 12.0084C15.7273 11.7896 16.0241 11.6667 16.3335 11.6667H17.5002C17.8096 11.6667 18.1063 11.7896 18.3251 12.0084C18.5439 12.2272 18.6668 12.5239 18.6668 12.8333C18.6668 13.1428 18.5439 13.4395 18.3251 13.6583C18.1063 13.8771 17.8096 14 17.5002 14Z" fill="#E2B1FF"/>
<path d="M22.1665 2.33594H5.832C5.52279 2.33625 5.22634 2.4593 5.0078 2.67806C4.78926 2.89682 4.6665 3.19339 4.6665 3.5026V24.5038C4.66681 24.813 4.78987 25.1094 5.00863 25.328C5.22738 25.5465 5.52395 25.6693 5.83317 25.6693H22.1677C22.4769 25.669 22.7733 25.5459 22.9919 25.3272C23.2104 25.1084 23.3332 24.8118 23.3332 24.5026V3.50144C23.3329 3.19222 23.2098 2.89577 22.991 2.67723C22.7723 2.45869 22.4757 2.33594 22.1665 2.33594ZM10.4998 7.0026H11.6665C11.9759 7.0026 12.2727 7.12552 12.4915 7.34431C12.7103 7.56311 12.8332 7.85985 12.8332 8.16927C12.8332 8.47869 12.7103 8.77544 12.4915 8.99423C12.2727 9.21302 11.9759 9.33594 11.6665 9.33594H10.4998C10.1904 9.33594 9.89367 9.21302 9.67488 8.99423C9.45609 8.77544 9.33317 8.47869 9.33317 8.16927C9.33317 7.85985 9.45609 7.56311 9.67488 7.34431C9.89367 7.12552 10.1904 7.0026 10.4998 7.0026ZM9.33317 12.8359C9.33317 12.5265 9.45609 12.2298 9.67488 12.011C9.89367 11.7922 10.1904 11.6693 10.4998 11.6693H11.6665C11.9759 11.6693 12.2727 11.7922 12.4915 12.011C12.7103 12.2298 12.8332 12.5265 12.8332 12.8359C12.8332 13.1454 12.7103 13.4421 12.4915 13.6609C12.2727 13.8797 11.9759 14.0026 11.6665 14.0026H10.4998C10.1904 14.0026 9.89367 13.8797 9.67488 13.6609C9.45609 13.4421 9.33317 13.1454 9.33317 12.8359ZM17.4998 17.5026V24.5026H10.4998V17.5026C10.4998 17.1934 10.6226 16.8968 10.8411 16.6781C11.0597 16.4593 11.3561 16.3362 11.6653 16.3359H16.3332C16.6424 16.3359 16.939 16.4587 17.1577 16.6772C17.3765 16.8958 17.4995 17.1922 17.4998 17.5014V17.5026ZM17.4998 14.0026H16.3332C16.0238 14.0026 15.727 13.8797 15.5082 13.6609C15.2894 13.4421 15.1665 13.1454 15.1665 12.8359C15.1665 12.5265 15.2894 12.2298 15.5082 12.011C15.727 11.7922 16.0238 11.6693 16.3332 11.6693H17.4998C17.8093 11.6693 18.106 11.7922 18.3248 12.011C18.5436 12.2298 18.6665 12.5265 18.6665 12.8359C18.6665 13.1454 18.5436 13.4421 18.3248 13.6609C18.106 13.8797 17.8093 14.0026 17.4998 14.0026ZM17.4998 9.33594H16.3332C16.0238 9.33594 15.727 9.21302 15.5082 8.99423C15.2894 8.77544 15.1665 8.47869 15.1665 8.16927C15.1665 7.85985 15.2894 7.56311 15.5082 7.34431C15.727 7.12552 16.0238 7.0026 16.3332 7.0026H17.4998C17.8093 7.0026 18.106 7.12552 18.3248 7.34431C18.5436 7.56311 18.6665 7.85985 18.6665 8.16927C18.6665 8.47869 18.5436 8.77544 18.3248 8.99423C18.106 9.21302 17.8093 9.33594 17.4998 9.33594Z" fill="#F0D8FF"/>
<path d="M24.5002 25.6693H3.50016C3.19074 25.6693 2.894 25.5464 2.6752 25.3276C2.45641 25.1088 2.3335 24.812 2.3335 24.5026C2.3335 24.1932 2.45641 23.8964 2.6752 23.6776C2.894 23.4589 3.19074 23.3359 3.50016 23.3359H24.5002C24.8096 23.3359 25.1063 23.4589 25.3251 23.6776C25.5439 23.8964 25.6668 24.1932 25.6668 24.5026C25.6668 24.812 25.5439 25.1088 25.3251 25.3276C25.1063 25.5464 24.8096 25.6693 24.5002 25.6693Z" fill="#681C96"/>
</svg>
