<svg width="61" height="60" viewBox="0 0 61 60" fill="none" xmlns="http://www.w3.org/2000/svg">
<g clip-path="url(#clip0_19091_55952)">
<path d="M39.5495 15.7635C39.5495 20.7624 35.4943 24.8083 30.4954 24.8083C25.506 24.8083 21.4507 20.7625 21.4507 15.7635C21.4507 10.7645 25.5058 6.71875 30.4954 6.71875C35.4942 6.71887 39.5495 10.7648 39.5495 15.7635Z" fill="#DEDEDE"/>
<path d="M12.1815 44.0056V46.3337C12.1815 48.0454 10.7939 49.433 9.08211 49.433C7.37035 49.433 5.98273 48.0454 5.98273 46.3337V44.0056C5.98273 42.2939 7.37035 40.9062 9.08211 40.9062C10.7939 40.9062 12.1815 42.2939 12.1815 44.0056ZM33.5994 44.0056V46.3337C33.5994 48.0454 32.2118 49.433 30.5 49.433C28.7882 49.433 27.4006 48.0454 27.4006 46.3337V44.0056C27.4006 42.2939 28.7882 40.9062 30.5 40.9062C32.2118 40.9062 33.5994 42.2939 33.5994 44.0056ZM55.0173 44.0056V46.3337C55.0173 48.0454 53.6296 49.433 51.9179 49.433C50.2061 49.433 48.8185 48.0454 48.8185 46.3337V44.0056C48.8185 42.2939 50.2061 40.9062 51.9179 40.9062C53.6296 40.9062 55.0173 42.2939 55.0173 44.0056ZM16.7266 56.2363V59.0613H1.4375V56.2363C1.4375 54.8023 1.93777 53.469 2.79078 52.3701C3.61215 51.312 5.07863 51.0819 6.26469 51.7044C7.10586 52.1459 8.06422 52.3954 9.08199 52.3954C10.0998 52.3954 11.0581 52.1459 11.8993 51.7044C13.0852 51.0818 14.552 51.312 15.3732 52.3701C16.2264 53.469 16.7266 54.8022 16.7266 56.2363ZM38.0942 56.2866V59.1117H22.805V56.2866C22.805 54.8527 23.3053 53.5194 24.1583 52.4205C24.9796 51.3624 26.4461 51.1323 27.6322 51.7548C28.4734 52.1963 29.4317 52.4458 30.4495 52.4458C31.4675 52.4458 32.4256 52.1963 33.2668 51.7548C34.4527 51.1321 35.9195 51.3624 36.7407 52.4205C37.5939 53.5194 38.0942 54.8527 38.0942 56.2866ZM59.5121 56.2866V59.1117H44.223V56.2866C44.223 54.8527 44.7233 53.5194 45.5763 52.4205C46.3977 51.3624 47.8641 51.1323 49.0502 51.7548C49.8914 52.1963 50.8497 52.4458 51.8675 52.4458C52.8853 52.4458 53.8436 52.1963 54.6848 51.7548C55.8707 51.1321 57.3375 51.3624 58.1587 52.4205C59.0118 53.5194 59.5121 54.8527 59.5121 56.2866Z" fill="#DEDEDE"/>
<path d="M30.4954 25.7458C36.0042 25.7458 40.4866 21.2679 40.4866 15.7637C40.4866 10.2596 36.0042 5.78125 30.4954 5.78125C24.9913 5.78125 20.5129 10.2596 20.5129 15.7637C20.5129 21.2679 24.9913 25.7458 30.4954 25.7458ZM30.4954 7.65637C34.9706 7.65637 38.6115 11.2934 38.6115 15.7639C38.6115 20.234 34.9705 23.8709 30.4954 23.8709C26.025 23.8709 22.3879 20.2339 22.3879 15.7639C22.3881 11.2933 26.0249 7.65637 30.4954 7.65637Z" fill="#DEDEDE"/>
<path d="M30.6342 17.9736H28.7904C28.2727 17.9736 27.8529 18.3934 27.8529 18.9111C27.8529 19.4289 28.2727 19.8486 28.7904 19.8486H29.5654V20.0139C29.5654 20.5316 29.9851 20.9514 30.5029 20.9514C31.0206 20.9514 31.4404 20.5316 31.4404 20.0139V19.7041C32.4297 19.3661 33.1478 18.4377 33.1478 17.3355C33.1478 15.9499 32.0198 14.8225 30.6342 14.8225C30.5402 14.8225 30.2721 14.8225 30.366 14.8225C30.014 14.8225 29.7278 14.5358 29.7278 14.1839C29.7278 13.832 30.014 13.5457 30.366 13.5457H32.2103C32.7284 13.5457 33.1478 13.1259 33.1478 12.6082C33.1478 12.0906 32.7285 11.6707 32.2103 11.6707H31.4404V11.5055C31.4404 10.9877 31.0206 10.568 30.5029 10.568C29.9851 10.568 29.5654 10.9877 29.5654 11.5055V11.8137C28.5735 12.1501 27.8529 13.0798 27.8529 14.1839C27.8529 15.57 28.9804 16.6975 30.366 16.6975H30.6342C30.9863 16.6975 31.2728 16.9836 31.2728 17.3357C31.2728 17.6876 30.9861 17.9736 30.6342 17.9736ZM30.5 3.1677C31.0178 3.1677 31.4375 2.74793 31.4375 2.2302V0.9375C31.4375 0.419766 31.0178 0 30.5 0C29.9823 0 29.5625 0.419766 29.5625 0.9375V2.23008C29.5625 2.74805 29.9823 3.1677 30.5 3.1677ZM22.9232 4.51172C23.1811 4.95773 23.7531 5.11465 24.204 4.85496C24.6523 4.59586 24.806 4.02281 24.5473 3.5741L23.901 2.45449C23.6414 2.0059 23.0697 1.85203 22.6201 2.11125C22.1719 2.37035 22.0181 2.9434 22.2769 3.39211L22.9232 4.51172ZM17.1947 9.16078L18.3143 9.80707C18.7659 10.0671 19.3376 9.90902 19.5952 9.46383C19.8538 9.01523 19.6999 8.44207 19.2519 8.18297L18.1323 7.53668C17.6823 7.27711 17.1106 7.43145 16.8515 7.87992C16.5927 8.32852 16.7466 8.90168 17.1947 9.16078ZM15.6777 16.6973H16.9704C17.4881 16.6973 17.9079 16.2776 17.9079 15.7598C17.9079 15.2421 17.4881 14.8223 16.9704 14.8223H15.6777C15.16 14.8223 14.7402 15.2421 14.7402 15.7598C14.7402 16.2777 15.16 16.6973 15.6777 16.6973ZM43.0923 15.76C43.0923 16.2777 43.5116 16.6975 44.0298 16.6975H45.3225C45.8406 16.6975 46.26 16.2777 46.26 15.76C46.26 15.2422 45.8407 14.8225 45.3225 14.8225H44.0298C43.5116 14.8225 43.0923 15.2421 43.0923 15.76ZM42.6858 9.80719L43.8054 9.1609C44.254 8.9018 44.4079 8.32875 44.1486 7.88004C43.8886 7.43144 43.3146 7.27723 42.8678 7.5368L41.7482 8.18309C41.2996 8.44219 41.1457 9.01523 41.4049 9.46395C41.6656 9.91453 42.2405 10.0643 42.6858 9.80719ZM36.7961 4.85508C37.2415 5.1123 37.8163 4.9623 38.0769 4.51184L38.7232 3.39223C38.9823 2.94363 38.8284 2.37047 38.38 2.11137C37.9323 1.85273 37.3582 2.00508 37.0991 2.45461L36.4528 3.57422C36.1937 4.02281 36.3476 4.59598 36.7961 4.85508ZM9.08216 50.3719C11.3078 50.3719 13.1187 48.561 13.1187 46.3349V44.0072C13.1187 41.7811 11.3078 39.9702 9.08216 39.9702C6.85606 39.9702 5.04517 41.7811 5.04517 44.0072V46.3349C5.04528 48.561 6.85606 50.3719 9.08216 50.3719ZM6.92017 44.0071C6.92017 42.815 7.89013 41.8451 9.08216 41.8451C10.2742 41.8451 11.2437 42.815 11.2437 44.0071V46.3348C11.2437 47.5268 10.2742 48.4968 9.08216 48.4968C7.89013 48.4968 6.92017 47.5268 6.92017 46.3348V44.0071Z" fill="#DEDEDE"/>
<path d="M11.4644 50.8741C9.98762 51.6486 8.17637 51.6481 6.70051 50.8746C5.08133 50.0237 3.125 50.4104 2.05004 51.7951C1.03602 53.1015 0.5 54.6373 0.5 56.2364V59.0612C0.5 59.5789 0.919766 59.9987 1.4375 59.9987H16.7268C17.2446 59.9987 17.6643 59.5789 17.6643 59.0612V56.2363C17.6643 54.6369 17.1283 53.1011 16.1139 51.795C15.0386 50.4107 13.0832 50.024 11.4644 50.8741ZM15.7895 58.1237H2.37512V56.2364C2.37512 55.0576 2.77473 53.9191 3.53141 52.9452C4.04867 52.2795 5.01406 52.1066 5.82945 52.535C7.81977 53.5787 10.344 53.5793 12.3361 52.5345C13.1495 52.1066 14.1154 52.2786 14.633 52.9452C15.3893 53.9193 15.7893 55.0577 15.7893 56.2364L15.7895 58.1237ZM26.4631 44.0057V46.3334C26.4631 48.5595 28.274 50.3704 30.5001 50.3704C32.7257 50.3704 34.5366 48.5595 34.5366 46.3334V44.0057C34.5366 41.7796 32.7257 39.9688 30.5001 39.9688C28.274 39.9688 26.4631 41.7796 26.4631 44.0057ZM32.6616 44.0057V46.3334C32.6616 47.5255 31.6922 48.4954 30.5001 48.4954C29.3081 48.4954 28.3381 47.5255 28.3381 46.3334V44.0057C28.3381 42.8137 29.3081 41.8438 30.5001 41.8438C31.6922 41.8438 32.6616 42.8137 32.6616 44.0057Z" fill="#DEDEDE"/>
<path d="M32.8812 50.8746C31.4072 51.6478 29.594 51.6486 28.1186 50.8746C26.4986 50.0237 24.5431 50.4099 23.4678 51.7951C22.4537 53.1015 21.9177 54.6373 21.9177 56.2364V59.0612C21.9177 59.5789 22.3375 59.9987 22.8552 59.9987H38.1446C38.6626 59.9987 39.0821 59.5789 39.0821 59.0612V56.2363C39.0821 54.6377 38.5465 53.1024 37.532 51.795C36.4582 50.4117 34.5037 50.0226 32.8812 50.8746ZM37.2072 58.1237H23.7927V56.2364C23.7927 55.0576 24.1923 53.9191 24.949 52.9452C25.4658 52.2791 26.4317 52.1061 27.2471 52.535C29.2388 53.5796 31.766 53.5793 33.7528 52.5345C34.5667 52.1074 35.5344 52.2796 36.0509 52.9447C36.8071 53.9197 37.2072 55.0582 37.2072 56.2365V58.1237ZM47.8812 44.0057V46.3334C47.8812 48.5595 49.6921 50.3704 51.9177 50.3704C54.1434 50.3704 55.9543 48.5595 55.9543 46.3334V44.0057C55.9543 41.7796 54.1434 39.9688 51.9177 39.9688C49.6921 39.9688 47.8812 41.7796 47.8812 44.0057ZM54.0794 44.0057V46.3334C54.0794 47.5255 53.1099 48.4954 51.9178 48.4954C50.7258 48.4954 49.7563 47.5255 49.7563 46.3334V44.0057C49.7563 42.8137 50.7258 41.8438 51.9178 41.8438C53.1099 41.8438 54.0794 42.8137 54.0794 44.0057Z" fill="#DEDEDE"/>
<path d="M58.95 51.795C57.8761 50.4118 55.9214 50.0226 54.2992 50.8745C52.826 51.6482 51.0134 51.649 49.5366 50.8745C47.9152 50.0232 45.9605 50.4108 44.8858 51.7955C43.8714 53.1024 43.3357 54.6378 43.3357 56.2362V59.0611C43.3357 59.5789 43.755 59.9986 44.2732 59.9986H59.5625C60.0806 59.9986 60.5 59.5789 60.5 59.0611V56.2362C60.5 54.6364 59.9636 53.1006 58.95 51.795ZM58.625 58.1236H45.2107V56.2363C45.2107 55.0581 45.6108 53.9195 46.367 52.9451C46.8833 52.2782 47.852 52.1075 48.6651 52.535C50.6582 53.5796 53.1832 53.5792 55.1708 52.5345C55.9858 52.1073 56.9534 52.279 57.4689 52.9451C58.2251 53.9187 58.6252 55.0573 58.6252 56.2363V58.1236H58.625ZM9.08216 38.9658C9.59989 38.9658 10.0197 38.5461 10.0197 38.0283C10.0197 36.3542 11.3815 34.992 13.0555 34.992H29.5652V38.0283C29.5652 38.5461 29.985 38.9658 30.5027 38.9658C31.0205 38.9658 31.4402 38.5461 31.4402 38.0283V34.992H47.9445C49.618 34.992 50.9803 36.3543 50.9803 38.0283C50.9803 38.5461 51.3996 38.9658 51.9178 38.9658C52.4359 38.9658 52.8553 38.5461 52.8553 38.0283C52.8553 35.3201 50.6527 33.117 47.9445 33.117H31.4404V27.9062C31.4404 27.3885 31.0206 26.9688 30.5029 26.9688C29.9851 26.9688 29.5654 27.3885 29.5654 27.9062V33.117H13.0556C10.3479 33.117 8.14478 35.3202 8.14478 38.0283C8.14466 38.5461 8.56454 38.9658 9.08216 38.9658Z" fill="#DEDEDE"/>
</g>
<defs>
<clipPath id="clip0_19091_55952">
<rect width="60" height="60" fill="white" transform="translate(0.5)"/>
</clipPath>
</defs>
</svg>
