<svg width="28" height="28" viewBox="0 0 28 28" fill="none" xmlns="http://www.w3.org/2000/svg">
<path d="M2.3335 10.5H25.6668V12.8333H2.3335V10.5Z" fill="#F0D8FF"/>
<path d="M22.1668 5.83594H5.8335C4.90609 5.83871 4.01746 6.20835 3.36168 6.86412C2.7059 7.5199 2.33627 8.40853 2.3335 9.33594V10.5026H25.6668V9.33594C25.6641 8.40853 25.2944 7.5199 24.6386 6.86412C23.9829 6.20835 23.0942 5.83871 22.1668 5.83594ZM2.3335 19.8359C2.33627 20.7633 2.7059 21.652 3.36168 22.3078C4.01746 22.9635 4.90609 23.3332 5.8335 23.3359H22.1668C23.0942 23.3332 23.9829 22.9635 24.6386 22.3078C25.2944 21.652 25.6641 20.7633 25.6668 19.8359V12.8359H2.3335V19.8359Z" fill="#E2B1FF"/>
<path d="M11.6667 17.4974H8.16667C7.85725 17.4974 7.5605 17.3745 7.34171 17.1557C7.12292 16.9369 7 16.6401 7 16.3307C7 16.0213 7.12292 15.7246 7.34171 15.5058C7.5605 15.287 7.85725 15.1641 8.16667 15.1641H11.6667C11.9761 15.1641 12.2728 15.287 12.4916 15.5058C12.7104 15.7246 12.8333 16.0213 12.8333 16.3307C12.8333 16.6401 12.7104 16.9369 12.4916 17.1557C12.2728 17.3745 11.9761 17.4974 11.6667 17.4974Z" fill="#681C96"/>
</svg>
