<svg width="28" height="28" viewBox="0 0 28 28" fill="none" xmlns="http://www.w3.org/2000/svg">
<path d="M14.0002 11.3122C12.8068 11.312 11.6623 10.8378 10.8185 9.99378C9.97476 9.14979 9.50082 8.00518 9.50098 6.81175C9.50113 5.61832 9.97537 4.47383 10.8194 3.63006C11.6634 2.78629 12.808 2.31235 14.0014 2.3125C15.1948 2.31265 16.3393 2.78689 17.1831 3.63088C18.0269 4.47487 18.5008 5.61949 18.5006 6.81292C18.5005 8.00635 18.0263 9.15084 17.1823 9.99461C16.3383 10.8384 15.1937 11.3123 14.0002 11.3122Z" fill="#F0D8FF"/>
<path d="M7 11.6406C6.1465 11.644 5.29512 11.726 4.45667 11.8856C4.18845 11.9338 3.94569 12.0747 3.77082 12.2837C3.59595 12.4927 3.50009 12.7565 3.5 13.029V22.654C3.50055 22.8251 3.53842 22.994 3.61099 23.1489C3.68355 23.3039 3.78906 23.4412 3.92014 23.5511C4.05122 23.6611 4.20472 23.7412 4.36993 23.7857C4.53514 23.8302 4.70807 23.8382 4.87667 23.809C5.57632 23.6727 6.28721 23.6024 7 23.599C9.25991 23.5967 11.4708 24.2579 13.3583 25.5006C13.552 25.6185 13.7737 25.6826 14 25.6873V13.5306C11.8754 12.2914 9.4596 11.6391 7 11.6406Z" fill="#E2B1FF"/>
<path d="M23.5433 11.8857C20.268 11.2591 16.8765 11.8436 14 13.5307V25.6874C14.2263 25.6827 14.448 25.6185 14.6417 25.5007C16.5292 24.258 18.7401 23.5968 21 23.599C21.7128 23.6025 22.4233 23.6725 23.1233 23.809C23.2919 23.8382 23.4649 23.8303 23.6301 23.7857C23.7953 23.7412 23.9488 23.6612 24.0799 23.5512C24.2109 23.4412 24.3164 23.304 24.389 23.149C24.4616 22.994 24.4995 22.8251 24.5 22.654V13.029C24.4999 12.7565 24.4041 12.4927 24.2292 12.2837C24.0543 12.0747 23.8115 11.9338 23.5433 11.8857Z" fill="#F0D8FF"/>
<path d="M17.5781 9.9631C17.4918 9.91177 17.3996 9.88377 17.3121 9.83594C16.8937 10.2997 16.3829 10.6708 15.8124 10.9254C15.242 11.18 14.6246 11.3124 14 11.3141C13.376 11.313 12.7592 11.1813 12.1892 10.9276C11.6191 10.6738 11.1085 10.3035 10.6901 9.8406C9.81162 10.3048 9.04359 10.953 8.43848 11.7411C10.3938 11.9441 12.292 12.5403 14 13.5378C15.6991 12.5446 17.5917 11.9279 19.5498 11.7294C19.0113 11.0202 18.342 10.4207 17.5781 9.9631Z" fill="#681C96"/>
</svg>
