<svg width="61" height="60" viewBox="0 0 61 60" fill="none" xmlns="http://www.w3.org/2000/svg">
<path opacity="0.3" d="M52.041 46.1735L54.4645 53.0558C55.4978 55.9902 53.3208 59.065 50.2098 59.065H10.789C7.67799 59.065 5.501 55.9901 6.53424 53.0558L8.95779 46.1735C10.9115 40.6255 16.1533 36.9141 22.0353 36.9141H38.9634C44.8454 36.9142 50.0872 40.6256 52.041 46.1735Z" fill="#DEDEDE"/>
<path opacity="0.5" d="M43.3829 13.365L41.4069 19.9147H19.593L17.6267 13.397C15.9879 7.96505 19.5074 2.35024 25.1018 1.40466C28.7654 0.78532 32.3913 0.784968 35.9802 1.38473C41.5479 2.31509 45.0135 7.96071 43.3829 13.365Z" fill="#DEDEDE"/>
<path d="M26.1369 10.6016C23.1341 10.6016 20.5117 12.7011 19.9276 15.6467C19.7095 16.7469 19.593 17.8992 19.593 19.0876C19.593 25.5153 24.9051 29.7968 28.1149 31.7971C29.5802 32.7103 31.4198 32.7103 32.8851 31.7971C36.0949 29.7969 41.407 25.5153 41.407 19.0876C41.407 17.8993 41.2906 16.747 41.0725 15.6467C40.4885 12.7012 37.8661 10.6016 34.8633 10.6016H26.1369Z" fill="white"/>
<path d="M33.3478 50.3098L30.5026 53.0499L27.6506 50.3098L29.0056 39.6172H31.993L33.3478 50.3098Z" fill="white"/>
<path d="M33.8765 36.9141C33.8765 39.2496 32.358 41.1531 30.4946 41.1531C28.622 41.1531 27.1221 39.2496 27.1221 36.9141H33.8765Z" fill="white"/>
<path d="M55.349 52.7419L52.925 45.8595C50.8429 39.9464 45.2319 35.9737 38.9632 35.9737C27.2025 35.9737 30.7977 35.9737 22.0353 35.9737C15.7665 35.9737 10.1553 39.9464 8.07348 45.8595L5.64945 52.7419C4.40539 56.276 7.01281 60 10.7891 60H50.2095C53.9565 60 56.6029 56.3036 55.349 52.7419ZM32.3588 49.9595L30.5016 51.7475L28.6398 49.9584L29.6502 41.9866C29.9234 42.0521 30.2056 42.0877 30.4946 42.0877C30.7869 42.0877 31.072 42.0519 31.3481 41.9852L32.3588 49.9595ZM32.8339 37.8488C32.5266 39.1988 31.5795 40.2129 30.4946 40.2129C29.3922 40.2129 28.4584 39.214 28.1594 37.8488H32.8339ZM50.2095 58.1249H10.7889C8.33129 58.1249 6.59574 55.7006 7.41828 53.3644L9.84231 46.482C11.6601 41.3182 16.5602 37.8487 22.0353 37.8487H26.2591C26.4562 39.135 27.05 40.2534 27.8826 41.019L26.7204 50.1906C26.6833 50.4845 26.7871 50.7788 27.001 50.9844L29.853 53.7242C30.2163 54.0729 30.7903 54.073 31.1526 53.7233L33.9983 50.9835C34.2117 50.7784 34.3155 50.484 34.2785 50.1906L33.1159 41.0161C33.9485 40.2506 34.5423 39.1333 34.7395 37.8487H38.9634C44.4385 37.8487 49.3386 41.3183 51.1564 46.482L53.5804 53.3644C54.398 55.6877 52.6814 58.1249 50.2095 58.1249ZM18.6954 20.1829C18.6993 20.1963 18.7082 20.2067 18.7129 20.2199C19.2843 26.4738 24.4595 30.6211 27.6194 32.5898C29.3956 33.6976 31.6038 33.6977 33.3811 32.5898C36.5411 30.6206 41.7161 26.473 42.2872 20.2192C42.2916 20.2064 42.3007 20.1965 42.3046 20.1834L44.2809 13.6336C44.2809 13.6336 44.2809 13.6336 44.2809 13.6331C46.0762 7.68115 42.2462 1.47889 36.1351 0.457597C32.4426 -0.159043 28.6773 -0.152598 24.946 0.477753C18.807 1.51498 14.926 7.68654 16.7293 13.6651L18.6954 20.1829ZM32.3894 30.9985C31.2239 31.7246 29.7764 31.7246 28.6109 30.9985C25.5932 29.1179 20.5305 25.0703 20.5305 19.0847C20.5305 17.9815 20.6371 16.8851 20.8474 15.8262C21.3404 13.3404 23.5648 11.5364 26.1371 11.5364H34.8634C37.4356 11.5364 39.66 13.3405 40.1531 15.8262C40.3632 16.8859 40.4695 17.9818 40.4695 19.0847C40.4693 25.0698 35.4071 29.1179 32.3894 30.9985ZM25.2581 2.32627C28.7834 1.73119 32.3386 1.72475 35.8256 2.30705C40.8371 3.14435 43.9512 8.23369 42.4854 13.0919V13.0915L41.8927 15.0559C41.0732 11.9074 38.1853 9.66127 34.8634 9.66127H26.1371C22.8147 9.66127 19.9268 11.9079 19.1076 15.0561L18.5247 13.1235C17.0524 8.24682 20.2109 3.17986 25.2581 2.32627Z" fill="#DEDEDE"/>
</svg>
