<svg width="28" height="28" viewBox="0 0 28 28" fill="none" xmlns="http://www.w3.org/2000/svg">
<path d="M11.6668 7V5.83333H16.3335V7H18.6668V5.83333C18.6662 5.21468 18.4202 4.62155 17.9827 4.1841C17.5453 3.74665 16.9521 3.50062 16.3335 3.5H11.6668C11.0482 3.50062 10.455 3.74665 10.0176 4.1841C9.58015 4.62155 9.33411 5.21468 9.3335 5.83333V7H11.6668Z" fill="#681C96"/>
<path d="M10.5002 17.5026C10.1907 17.5026 9.894 17.3797 9.67521 17.1609C9.45641 16.9421 9.3335 16.6454 9.3335 16.3359V14.0026C9.3335 13.6932 9.45641 13.3964 9.67521 13.1776C9.894 12.9589 10.1907 12.8359 10.5002 12.8359C10.8096 12.8359 11.1063 12.9589 11.3251 13.1776C11.5439 13.3964 11.6668 13.6932 11.6668 14.0026V16.3359C11.6668 16.6454 11.5439 16.9421 11.3251 17.1609C11.1063 17.3797 10.8096 17.5026 10.5002 17.5026ZM17.5002 17.5026C17.1907 17.5026 16.894 17.3797 16.6752 17.1609C16.4564 16.9421 16.3335 16.6454 16.3335 16.3359V14.0026C16.3335 13.6932 16.4564 13.3964 16.6752 13.1776C16.894 12.9589 17.1907 12.8359 17.5002 12.8359C17.8096 12.8359 18.1063 12.9589 18.3251 13.1776C18.5439 13.3964 18.6668 13.6932 18.6668 14.0026V16.3359C18.6668 16.6454 18.5439 16.9421 18.3251 17.1609C18.1063 17.3797 17.8096 17.5026 17.5002 17.5026Z" fill="#F0D8FF"/>
<path d="M23.3335 7H4.66683C4.04799 7 3.4545 7.24583 3.01691 7.68342C2.57933 8.121 2.3335 8.71449 2.3335 9.33333V12.8333C2.3335 13.4522 2.57933 14.0457 3.01691 14.4832C3.4545 14.9208 4.04799 15.1667 4.66683 15.1667H9.3335V14C9.3335 13.6906 9.45641 13.3938 9.6752 13.175C9.894 12.9562 10.1907 12.8333 10.5002 12.8333C10.8096 12.8333 11.1063 12.9562 11.3251 13.175C11.5439 13.3938 11.6668 13.6906 11.6668 14V15.1667H16.3335V14C16.3335 13.6906 16.4564 13.3938 16.6752 13.175C16.894 12.9562 17.1907 12.8333 17.5002 12.8333C17.8096 12.8333 18.1063 12.9562 18.3251 13.175C18.5439 13.3938 18.6668 13.6906 18.6668 14V15.1667H23.3335C23.9523 15.1667 24.5458 14.9208 24.9834 14.4832C25.421 14.0457 25.6668 13.4522 25.6668 12.8333V9.33333C25.6668 8.71449 25.421 8.121 24.9834 7.68342C24.5458 7.24583 23.9523 7 23.3335 7Z" fill="#E2B1FF"/>
<path d="M23.3335 15.1693H18.6668V16.3359C18.6668 16.6454 18.5439 16.9421 18.3251 17.1609C18.1063 17.3797 17.8096 17.5026 17.5002 17.5026C17.1907 17.5026 16.894 17.3797 16.6752 17.1609C16.4564 16.9421 16.3335 16.6454 16.3335 16.3359V15.1693H11.6668V16.3359C11.6668 16.6454 11.5439 16.9421 11.3251 17.1609C11.1063 17.3797 10.8096 17.5026 10.5002 17.5026C10.1907 17.5026 9.894 17.3797 9.6752 17.1609C9.45641 16.9421 9.3335 16.6454 9.3335 16.3359V15.1693H4.66683C4.04799 15.1693 3.4545 14.9234 3.01691 14.4859C2.57933 14.0483 2.3335 13.4548 2.3335 12.8359V22.1693C2.3335 22.7881 2.57933 23.3816 3.01691 23.8192C3.4545 24.2568 4.04799 24.5026 4.66683 24.5026H23.3335C23.9523 24.5026 24.5458 24.2568 24.9834 23.8192C25.421 23.3816 25.6668 22.7881 25.6668 22.1693V12.8359C25.6668 13.4548 25.421 14.0483 24.9834 14.4859C24.5458 14.9234 23.9523 15.1693 23.3335 15.1693Z" fill="#681C96"/>
</svg>
