<svg width="61" height="60" viewBox="0 0 61 60" fill="none" xmlns="http://www.w3.org/2000/svg">
<g clip-path="url(#clip0_19091_56094)">
<path opacity="0.5" d="M53.2128 45.4661L55.7683 52.7229C56.8578 55.8166 54.5622 59.0587 51.2821 59.0587H9.7171C6.43702 59.0587 4.14144 55.8167 5.23105 52.7229L7.78655 45.4661C9.84659 39.6165 15.3735 35.7031 21.5753 35.7031H39.4241C45.6259 35.7031 51.1528 39.6164 53.2128 45.4661Z" fill="#DEDEDE"/>
<path d="M33.5034 49.1193L30.5034 51.8263L27.4961 49.1193L28.9247 38.5547H32.0747L33.5034 49.1193Z" fill="white"/>
<path d="M34.0607 35.7031C34.0607 38.1657 32.4594 40.1728 30.4949 40.1728C28.5204 40.1728 26.939 38.1658 26.939 35.7031H34.0607Z" fill="white"/>
<path opacity="0.4" d="M42.1341 19.9955C42.1341 26.4223 36.9207 31.6237 30.4938 31.6237C24.079 31.6237 18.8655 26.4223 18.8655 19.9955C18.8655 13.5686 24.079 8.36719 30.4938 8.36719C36.9207 8.36707 42.1341 13.5686 42.1341 19.9955Z" fill="#DEDEDE"/>
<path d="M56.6528 52.4175L54.0975 45.1605C51.909 38.9463 46.012 34.7716 39.4244 34.7716C30.2228 34.7716 33.7911 34.7716 21.5752 34.7716C14.9875 34.7716 9.09052 38.9466 6.90204 45.1605L4.34688 52.4175C3.04329 56.1188 5.77927 60.0021 9.71735 60.0021H51.2824C55.2061 60.0021 57.961 56.132 56.6528 52.4175ZM32.508 48.7598L30.5025 50.5695L28.492 48.759L29.542 40.9911C29.8495 41.0713 30.1675 41.1162 30.4946 41.1162C30.8252 41.1162 31.1465 41.0704 31.457 40.9888L32.508 48.7598ZM33.0252 36.6465C32.7107 38.1233 31.679 39.2412 30.4947 39.2412C29.2912 39.2412 28.275 38.1407 27.9701 36.6465H33.0252ZM51.2822 58.1271H9.71724C7.08474 58.1271 5.23809 55.5316 6.11559 53.04L8.67087 45.783C10.5958 40.3184 15.7813 36.6465 21.5753 36.6465H26.0737C26.2734 38.0133 26.8999 39.2017 27.7825 40.0098L26.5672 48.9989C26.526 49.3061 26.6391 49.6137 26.8693 49.8211L29.8764 52.5282C30.2296 52.8469 30.772 52.8519 31.1316 52.5273L34.1314 49.8202C34.3612 49.6127 34.4738 49.3057 34.4325 48.9989L33.2168 40.0066C34.0996 39.1986 34.726 38.0114 34.9259 36.6466H39.4244C45.2183 36.6466 50.4038 40.3184 52.3288 45.7832L54.8841 53.0401C55.7617 55.5323 53.9138 58.1271 51.2822 58.1271ZM30.4939 32.5615C37.4295 32.5615 43.0718 26.9245 43.0718 19.9958C43.0718 13.0666 37.4294 7.42969 30.4939 7.42969C23.5647 7.42969 17.9279 13.0666 17.9279 19.9958C17.9277 26.9245 23.5647 32.5615 30.4939 32.5615ZM30.4939 9.30469C36.3953 9.30469 41.1968 14.1007 41.1968 19.9958C41.1968 25.8905 36.3954 30.6865 30.4939 30.6865C24.5988 30.6865 19.8027 25.8905 19.8027 19.9958C19.8027 14.1007 24.5988 9.30469 30.4939 9.30469Z" fill="#DEDEDE"/>
<path d="M30.6717 23.108H28.3015C27.7838 23.108 27.364 23.5277 27.364 24.0455C27.364 24.5632 27.7838 24.983 28.3015 24.983H29.5653V25.4627C29.5653 25.9805 29.9851 26.4002 30.5028 26.4002C31.0206 26.4002 31.4403 25.9805 31.4403 25.4627V24.8692C32.7006 24.528 33.6354 23.3862 33.6354 22.0194C33.6354 20.3857 32.306 19.0563 30.6718 19.0563C30.5779 19.0563 30.2338 19.0563 30.3275 19.0563C29.7274 19.0563 29.239 18.5679 29.239 17.9678C29.239 17.3677 29.7274 16.8797 30.3275 16.8797H32.6978C33.2155 16.8797 33.6353 16.4599 33.6353 15.9422C33.6353 15.4245 33.2155 15.0047 32.6978 15.0047H31.4403V14.5245C31.4403 14.0067 31.0206 13.587 30.5028 13.587C29.9851 13.587 29.5653 14.0067 29.5653 14.5245V15.1165C28.3018 15.4553 27.364 16.599 27.364 17.9678C27.364 19.6021 28.6934 20.9313 30.3275 20.9313H30.6718C31.272 20.9313 31.7604 21.4193 31.7604 22.0194C31.7603 22.6194 31.2718 23.108 30.6717 23.108ZM30.4997 3.53707C31.0174 3.53707 31.4372 3.1173 31.4372 2.59957V0.9375C31.4372 0.419766 31.0174 0 30.4997 0C29.982 0 29.5622 0.419766 29.5622 0.9375V2.59969C29.5621 3.1173 29.982 3.53707 30.4997 3.53707ZM20.9905 5.39836C21.2484 5.84438 21.8204 6.00129 22.2714 5.7416C22.7196 5.4825 22.8734 4.90945 22.6146 4.46074L21.7837 3.02145C21.5237 2.57238 20.9524 2.41863 20.5029 2.6782C20.0546 2.9373 19.9009 3.51035 20.1596 3.95906L20.9905 5.39836ZM13.528 11.277L14.9673 12.1083C15.4109 12.3659 15.9873 12.2169 16.2477 11.7654C16.5068 11.3171 16.3535 10.7436 15.9048 10.485L14.4655 9.65367C14.0173 9.39363 13.4437 9.54785 13.1851 9.99656C12.926 10.4448 13.0794 11.0183 13.528 11.277ZM11.4434 20.9312H13.1055C13.6233 20.9312 14.043 20.5114 14.043 19.9937C14.043 19.476 13.6233 19.0562 13.1055 19.0562H11.4434C10.9256 19.0562 10.5059 19.476 10.5059 19.9937C10.5059 20.5114 10.9256 20.9312 11.4434 20.9312ZM46.9563 19.9937C46.9563 20.5114 47.3761 20.9312 47.8938 20.9312H49.556C50.0737 20.9312 50.4935 20.5114 50.4935 19.9937C50.4935 19.476 50.0737 19.0562 49.556 19.0562H47.8938C47.3761 19.0562 46.9563 19.476 46.9563 19.9937ZM46.032 12.1083L47.4712 11.277C47.9198 11.0183 48.0732 10.4448 47.8141 9.99656C47.555 9.54797 46.9809 9.3927 46.5337 9.65367L45.0945 10.485C44.6459 10.7436 44.4925 11.3171 44.7516 11.7654C45.0127 12.2179 45.5893 12.3653 46.032 12.1083ZM38.7279 5.7416C39.1795 6.00164 39.7512 5.84355 40.0087 5.39836L40.8396 3.95906C41.0982 3.51047 40.9444 2.9373 40.4964 2.6782C40.046 2.41863 39.4746 2.57238 39.2155 3.02145L38.3846 4.46074C38.1259 4.90945 38.2799 5.48262 38.7279 5.7416Z" fill="#DEDEDE"/>
</g>
<defs>
<clipPath id="clip0_19091_56094">
<rect width="60" height="60" fill="white" transform="translate(0.5)"/>
</clipPath>
</defs>
</svg>
