<svg width="61" height="60" viewBox="0 0 61 60" fill="none" xmlns="http://www.w3.org/2000/svg">
<path d="M43.5239 48.977C43.5239 50.3738 44.6546 51.5046 46.0515 51.5046C47.32 51.5046 41.6408 51.5046 55.7627 51.5046C57.1571 51.5046 58.2878 50.3739 58.2878 48.977C58.2878 47.5826 57.1571 46.4518 55.7627 46.4518H55.7602C55.7602 45.0574 54.6295 43.9267 53.2351 43.9267C52.8484 43.9267 52.4812 44.0129 52.1537 44.1681C51.6117 43.4636 50.7617 43.0078 49.8035 43.0078C48.1677 43.0078 46.8423 44.3307 46.8423 45.9641C46.8423 46.1834 46.8669 46.3977 46.9113 46.6022C46.6427 46.5061 46.3545 46.452 46.0515 46.452C44.6546 46.452 43.5239 47.5827 43.5239 48.977ZM18.9407 48.977C18.9407 50.3738 17.81 51.5046 16.4131 51.5046C15.1446 51.5046 20.8238 51.5046 6.70191 51.5046C5.3075 51.5046 4.17676 50.3739 4.17676 48.977C4.17676 47.5826 5.3075 46.4518 6.70191 46.4518H6.70438C6.70438 45.0574 7.83512 43.9267 9.22953 43.9267C9.61625 43.9267 9.9834 44.0129 10.3109 44.1681C10.8529 43.4636 11.7029 43.0078 12.6611 43.0078C14.297 43.0078 15.6223 44.3307 15.6223 45.9641C15.6223 46.1834 15.5977 46.3977 15.5533 46.6022C15.8219 46.5061 16.1101 46.452 16.4131 46.452C17.81 46.452 18.9407 47.5827 18.9407 48.977Z" fill="#DEDEDE"/>
<path d="M29.3408 16.1016V50.7994H52.3663V19.2777C52.3663 17.5235 50.9443 16.1016 49.1902 16.1016H29.3408Z" fill="#DEDEDE" fill-opacity="0.3"/>
<path opacity="0.4" d="M52.3649 19.2818V50.8018H29.3394V44.9769C30.8085 45.4341 32.3747 45.6857 33.9925 45.6857C42.5614 45.6857 49.4953 38.7404 49.4953 30.183C49.4953 23.9408 45.8139 18.5674 40.4977 16.1094H49.1923C50.9416 16.1091 52.3649 17.5268 52.3649 19.2818Z" fill="white"/>
<path d="M45.5788 41.3837V50.8043H35.9795V41.3837C35.9795 40.3692 36.8019 39.5469 37.8163 39.5469H43.742C44.7564 39.5469 45.5788 40.3693 45.5788 41.3837Z" fill="#DEDEDE"/>
<path opacity="0.4" d="M45.5797 41.3818V50.8024H35.9819V48.4987C39.646 48.0814 42.4928 44.966 42.4928 41.1932C42.4928 40.6273 42.4299 40.0728 42.3042 39.5469H43.7447C44.7566 39.5469 45.5797 40.37 45.5797 41.3818Z" fill="white"/>
<path d="M59.0817 53.6395C59.0817 55.2051 57.8125 56.4742 56.2469 56.4742H4.75273C3.18711 56.4742 1.91797 55.2051 1.91797 53.6395C1.91797 52.0738 3.18711 50.8047 4.75273 50.8047H56.2469C57.8125 50.8048 59.0817 52.0739 59.0817 53.6395Z" fill="#DEDEDE"/>
<path opacity="0.4" d="M59.0818 53.6343C59.0818 55.2006 57.8128 56.4696 56.2466 56.4696H4.75345C3.18712 56.4696 1.91821 55.2006 1.91821 53.6343C1.91821 53.48 1.9297 53.3314 1.95829 53.1828C9.32095 53.9602 16.9237 54.366 24.6923 54.366C36.3708 54.366 47.6606 53.4514 58.3559 51.7422C58.8074 52.2453 59.0818 52.9083 59.0818 53.6343Z" fill="white"/>
<path d="M37.3731 21.9133V25.0374C37.3731 25.6411 36.8837 26.1304 36.2801 26.1304H33.156C32.5524 26.1304 32.063 25.6411 32.063 25.0374V21.9133C32.063 21.3097 32.5524 20.8203 33.156 20.8203H36.2801C36.8837 20.8203 37.3731 21.3097 37.3731 21.9133ZM49.4951 21.9133V25.0374C49.4951 25.6411 49.0057 26.1304 48.4021 26.1304H45.278C44.6744 26.1304 44.185 25.6411 44.185 25.0374V21.9133C44.185 21.3097 44.6744 20.8203 45.278 20.8203H48.4021C49.0057 20.8203 49.4951 21.3097 49.4951 21.9133ZM37.3731 31.277V34.4011C37.3731 35.0047 36.8837 35.4941 36.2801 35.4941H33.156C32.5524 35.4941 32.063 35.0047 32.063 34.4011V31.277C32.063 30.6733 32.5524 30.1839 33.156 30.1839H36.2801C36.8837 30.1841 37.3731 30.6733 37.3731 31.277ZM49.4951 31.277V34.4011C49.4951 35.0047 49.0057 35.4941 48.4021 35.4941H45.278C44.6744 35.4941 44.185 35.0047 44.185 34.4011V31.277C44.185 30.6733 44.6744 30.1839 45.278 30.1839H48.4021C49.0057 30.1841 49.4951 30.6733 49.4951 31.277Z" fill="#DEDEDE"/>
<path opacity="0.4" d="M49.4953 31.2754V34.4023C49.4953 35.0026 49.0037 35.4942 48.4036 35.4942H45.2767C45.0309 35.4942 44.808 35.4084 44.625 35.2769C46.2599 34.1451 47.4147 32.3101 47.6948 30.1837H48.4036C49.0037 30.1837 49.4953 30.6753 49.4953 31.2754ZM49.4953 21.912V25.0389C49.4953 25.6392 49.0037 26.1308 48.4036 26.1308H45.2767C45.0309 26.1308 44.808 26.045 44.625 25.9135C46.2599 24.7817 47.4147 22.9467 47.6948 20.8203H48.4036C49.0037 20.8203 49.4953 21.3119 49.4953 21.912ZM37.3732 31.2754V34.4023C37.3732 35.0026 36.8816 35.4942 36.2815 35.4942H33.1546C32.9088 35.4942 32.6859 35.4084 32.5029 35.2769C34.1379 34.1451 35.2926 32.3101 35.5727 30.1837H36.2815C36.8816 30.1837 37.3732 30.6753 37.3732 31.2754ZM37.3732 21.912V25.0389C37.3732 25.6392 36.8816 26.1308 36.2815 26.1308H33.1546C32.9088 26.1308 32.6859 26.045 32.5029 25.9135C34.1379 24.7817 35.2926 22.9467 35.5727 20.8203H36.2815C36.8816 20.8203 37.3732 21.3119 37.3732 21.912Z" fill="white"/>
<path d="M29.341 13.4228V50.8034H10.0115V13.4228C10.0115 12.2314 10.9773 11.2656 12.1687 11.2656H27.1838C28.3751 11.2656 29.341 12.2315 29.341 13.4228Z" fill="#DEDEDE" fill-opacity="0.3"/>
<path opacity="0.4" d="M29.3395 13.4208V50.8059H10.0125V45.5697C20.0448 42.5743 27.3502 33.2737 27.3502 22.2696C27.3502 18.3082 26.4014 14.5697 24.7207 11.2656H27.1844C28.3735 11.2657 29.3395 12.2317 29.3395 13.4208Z" fill="white"/>
<path d="M12.6035 18.3827C12.6035 17.1013 13.6486 16.1016 14.8791 16.1016H24.4733C25.7313 16.1016 26.7489 17.1247 26.7489 18.3827C26.7489 19.6407 25.7313 20.6639 24.4733 20.6639H14.8791C13.6211 20.6639 12.6035 19.6407 12.6035 18.3827Z" fill="#DEDEDE"/>
<path opacity="0.4" d="M26.75 18.3902C26.75 19.6479 25.7324 20.671 24.4749 20.671H14.8771C13.6196 20.671 12.6021 19.6479 12.6021 18.3902C12.6021 17.9729 12.7164 17.5784 12.9107 17.2469C14.2369 18.4359 15.9918 19.1561 17.9125 19.1561C20.382 19.1561 22.5771 17.9557 23.9491 16.1094H24.4749C25.7324 16.1094 26.75 17.1269 26.75 18.3902Z" fill="white"/>
<path d="M26.7489 35.1007C26.7489 36.3644 25.7313 37.3819 24.4733 37.3819H14.8791C13.6211 37.3819 12.6035 36.3644 12.6035 35.1007C12.6035 33.82 13.6478 32.8196 14.8791 32.8196H24.4733C25.7313 32.8196 26.7489 33.8427 26.7489 35.1007ZM26.7489 43.4593C26.7489 44.7229 25.7313 45.7404 24.4733 45.7404H14.8791C13.6211 45.7404 12.6035 44.7229 12.6035 43.4593C12.6035 42.1779 13.6418 41.1837 14.8791 41.1837H24.4733C25.7313 41.1837 26.7489 42.2014 26.7489 43.4593ZM26.7489 26.7421C26.7489 28.0001 25.7313 29.0232 24.4733 29.0232H14.8791C13.6211 29.0232 12.6035 28 12.6035 26.7421C12.6035 25.4266 13.6806 24.4609 14.8791 24.4609H24.4733C25.7313 24.4611 26.7489 25.4842 26.7489 26.7421Z" fill="#DEDEDE"/>
<path opacity="0.4" d="M26.75 26.7418C26.75 27.9994 25.7324 29.0226 24.4749 29.0226H14.8771C13.6196 29.0226 12.6021 27.9994 12.6021 26.7418C12.6021 26.3245 12.7164 25.93 12.9107 25.5985C14.2369 26.7875 15.9918 27.5077 17.9125 27.5077C20.382 27.5077 22.5771 26.3072 23.9491 24.4609H24.4749C25.7324 24.4609 26.75 25.4784 26.75 26.7418ZM26.75 35.0992C26.75 36.3569 25.7324 37.38 24.4749 37.38H14.8771C13.6196 37.38 12.6021 36.3569 12.6021 35.0992C12.6021 34.6819 12.7164 34.2875 12.9107 33.9559C14.2369 35.1449 15.9918 35.8652 17.9125 35.8652C20.382 35.8652 22.5771 34.6647 23.9491 32.8184H24.4749C25.7324 32.8184 26.75 33.8358 26.75 35.0992ZM26.75 43.4605C26.75 44.7182 25.7324 45.7414 24.4749 45.7414H14.8771C13.6196 45.7414 12.6021 44.7182 12.6021 43.4605C12.6021 43.0432 12.7164 42.6488 12.9107 42.3173C14.2369 43.5063 15.9918 44.2265 17.9125 44.2265C20.382 44.2265 22.5771 43.026 23.9491 41.1797H24.4749C25.7324 41.1797 26.75 42.1973 26.75 43.4605Z" fill="white"/>
<path d="M14.8788 21.3822H24.4733C26.1218 21.3822 27.4633 20.0379 27.4633 18.3862C27.4633 16.7343 26.1218 15.3906 24.4733 15.3906H14.8788C13.2304 15.3906 11.8889 16.7343 11.8889 18.3862C11.8889 20.0379 13.2304 21.3822 14.8788 21.3822ZM14.8788 16.8197H24.4733C25.3342 16.8197 26.0342 17.5225 26.0342 18.3862C26.0342 19.2503 25.3341 19.9532 24.4733 19.9532H14.8788C14.018 19.9532 13.318 19.2504 13.318 18.3862C13.318 17.5226 14.0181 16.8197 14.8788 16.8197ZM14.8788 38.0992H24.4733C26.1218 38.0992 27.4633 36.755 27.4633 35.1032C27.4633 33.4514 26.1218 32.1077 24.4733 32.1077H14.8788C13.2304 32.1077 11.8889 33.4513 11.8889 35.1032C11.8889 36.7551 13.2304 38.0992 14.8788 38.0992ZM14.8788 33.5368H24.4733C25.3342 33.5368 26.0342 34.2395 26.0342 35.1032C26.0342 35.9673 25.3341 36.6702 24.4733 36.6702H14.8788C14.018 36.6702 13.318 35.9675 13.318 35.1032C13.318 34.2395 14.0181 33.5368 14.8788 33.5368ZM14.8788 46.4577H24.4733C26.1218 46.4577 27.4633 45.1141 27.4633 43.4622C27.4633 41.8131 26.1218 40.4717 24.4733 40.4717H14.8788C13.2304 40.4717 11.8889 41.8131 11.8889 43.4622C11.8889 45.1141 13.2304 46.4577 14.8788 46.4577ZM14.8788 41.9008H24.4733C25.3342 41.9008 26.0342 42.6013 26.0342 43.4622C26.0342 44.3257 25.3341 45.0286 24.4733 45.0286H14.8788C14.018 45.0286 13.318 44.3259 13.318 43.4622C13.318 42.6014 14.0181 41.9008 14.8788 41.9008ZM14.8788 29.7407H24.4733C26.1218 29.7407 27.4633 28.3964 27.4633 26.7447C27.4633 25.0928 26.1218 23.7491 24.4733 23.7491H14.8788C13.2304 23.7491 11.8889 25.0928 11.8889 26.7447C11.8889 28.3964 13.2304 29.7407 14.8788 29.7407ZM14.8788 25.1782H24.4733C25.3342 25.1782 26.0342 25.881 26.0342 26.7447C26.0342 27.6088 25.3341 28.3117 24.4733 28.3117H14.8788C14.018 28.3117 13.318 27.6089 13.318 26.7447C13.318 25.7772 14.128 25.1782 14.8788 25.1782Z" fill="#DEDEDE"/>
<path d="M58.415 50.8321C58.7846 50.3059 59.002 49.6653 59.002 48.9743C59.002 47.41 57.8878 46.1011 56.4096 45.8001C56.1082 44.3236 54.7991 43.2093 53.2349 43.2093C53.1828 43.2093 53.1322 43.2164 53.0808 43.2192V19.2794C53.0808 17.1341 51.3357 15.389 49.1904 15.389H30.0557V13.4218C30.0557 11.8386 28.7673 10.5502 27.1835 10.5502H23.9229V3.5348C23.9229 3.14012 23.603 2.82031 23.2084 2.82031C22.8137 2.82031 22.4939 3.14023 22.4939 3.5348V10.5502H16.8445V7.42414C16.8445 7.02945 16.5246 6.70965 16.13 6.70965C15.7353 6.70965 15.4155 7.02957 15.4155 7.42414V10.5502H12.1686C10.5854 10.5502 9.29706 11.8386 9.29706 13.4218V43.2139C9.27433 43.2134 9.25229 43.2093 9.22956 43.2093C7.66593 43.2093 6.35741 44.323 6.05542 45.7995C4.5778 46.0999 3.46241 47.409 3.46241 48.9743C3.46241 49.4243 3.56097 49.8496 3.72749 50.2393C2.26909 50.6805 1.20386 52.0355 1.20386 53.6361C1.20386 55.5932 2.79597 57.1854 4.75312 57.1854H56.2473C58.2044 57.1854 59.7966 55.5932 59.7966 53.6361C59.7963 52.4956 59.2535 51.482 58.415 50.8321ZM53.2349 44.6386C54.2335 44.6386 55.0458 45.4508 55.0458 46.4495C55.0458 46.8441 55.3679 47.1639 55.7625 47.1639C56.7606 47.1639 57.5728 47.9762 57.5728 48.9743C57.5728 49.4451 57.3879 49.8704 57.093 50.193C56.8213 50.1262 56.539 50.0868 56.2471 50.0868H53.0808V44.6551C53.1323 44.6504 53.1823 44.6386 53.2349 44.6386ZM49.1904 16.8181C50.5474 16.8181 51.6517 17.9223 51.6517 19.2794V50.087H46.2932V41.3806C46.2932 39.9739 45.1488 38.8295 43.742 38.8295H37.8163C36.4096 38.8295 35.2651 39.9738 35.2651 41.3806V50.087H30.0557V16.8181H49.1904ZM44.8641 50.087H36.6942V41.3806C36.6942 40.7621 37.1978 40.2586 37.8163 40.2586H43.742C44.3605 40.2586 44.8641 40.7621 44.8641 41.3806V50.087ZM12.1686 11.9793H27.1835C27.979 11.9793 28.6266 12.6263 28.6266 13.4218C28.6266 22.4121 28.6266 45.101 28.6266 50.0868H10.7262V13.4218C10.7262 12.6263 11.3732 11.9793 12.1686 11.9793ZM6.70452 47.1639C7.09921 47.1639 7.41901 46.844 7.41901 46.4495C7.41901 45.4508 8.23124 44.6386 9.22933 44.6386C9.2523 44.6386 9.27398 44.6451 9.29683 44.6459V50.087H5.28772C5.04433 49.7792 4.8914 49.3967 4.8914 48.9744C4.8914 47.9762 5.70362 47.1639 6.70452 47.1639ZM56.2471 55.7564H4.753C3.58405 55.7564 2.63284 54.8052 2.63284 53.6362C2.63284 52.4673 3.58405 51.5161 4.753 51.5161C105.958 51.5161 20.0137 51.5161 56.2472 51.5161C57.4161 51.5161 58.3673 52.4673 58.3673 53.6362C58.3673 54.8052 57.416 55.7564 56.2471 55.7564Z" fill="#DEDEDE"/>
<path d="M33.156 26.8412H36.2799C37.2763 26.8412 38.0875 26.0301 38.0875 25.0336V21.9092C38.0875 20.9127 37.2763 20.1016 36.2799 20.1016H33.156C32.1596 20.1016 31.3484 20.9127 31.3484 21.9092V25.0336C31.3485 26.0302 32.1596 26.8412 33.156 26.8412ZM32.7776 21.9092C32.7776 21.7004 32.9473 21.5307 33.1561 21.5307H36.28C36.4888 21.5307 36.6585 21.7004 36.6585 21.9092V25.0336C36.6585 25.2425 36.4888 25.4121 36.28 25.4121H33.1561C32.9473 25.4121 32.7776 25.2425 32.7776 25.0336V21.9092ZM45.2782 26.8412H48.4021C49.3985 26.8412 50.2097 26.0301 50.2097 25.0336V21.9092C50.2097 20.9127 49.3985 20.1016 48.4021 20.1016H45.2782C44.2818 20.1016 43.4706 20.9127 43.4706 21.9092V25.0336C43.4706 26.0302 44.2818 26.8412 45.2782 26.8412ZM44.8997 21.9092C44.8997 21.7004 45.0694 21.5307 45.2782 21.5307H48.4021C48.6109 21.5307 48.7806 21.7004 48.7806 21.9092V25.0336C48.7806 25.2425 48.6109 25.4121 48.4021 25.4121H45.2782C45.0694 25.4121 44.8997 25.2425 44.8997 25.0336V21.9092ZM33.156 36.2046H36.2799C37.2763 36.2046 38.0875 35.3935 38.0875 34.397V31.2732C38.0875 30.2767 37.2763 29.4655 36.2799 29.4655H33.156C32.1596 29.4655 31.3484 30.2767 31.3484 31.2732V34.397C31.3485 35.3935 32.1596 36.2046 33.156 36.2046ZM32.7776 31.2732C32.7776 31.0643 32.9473 30.8946 33.1561 30.8946H36.28C36.4888 30.8946 36.6585 31.0643 36.6585 31.2732V34.397C36.6585 34.6059 36.4888 34.7755 36.28 34.7755H33.1561C32.9473 34.7755 32.7776 34.6059 32.7776 34.397V31.2732ZM45.2782 36.2046H48.4021C49.3985 36.2046 50.2097 35.3935 50.2097 34.397V31.2732C50.2097 30.2767 49.3985 29.4655 48.4021 29.4655H45.2782C44.2818 29.4655 43.4706 30.2767 43.4706 31.2732V34.397C43.4706 35.3935 44.2818 36.2046 45.2782 36.2046ZM44.8997 31.2732C44.8997 31.0643 45.0694 30.8946 45.2782 30.8946H48.4021C48.6109 30.8946 48.7806 31.0643 48.7806 31.2732V34.397C48.7806 34.6059 48.6109 34.7755 48.4021 34.7755H45.2782C45.0694 34.7755 44.8997 34.6059 44.8997 34.397V31.2732Z" fill="#DEDEDE"/>
</svg>
