<?xml version="1.0" encoding="UTF-8"?>
<svg version="1.1" xmlns="http://www.w3.org/2000/svg" width="512" height="512">
<path d="M0 0 C1.01790619 0.00215515 2.03581238 0.0043103 3.08456421 0.00653076 C17.69363523 0.05620146 32.02575853 0.30709809 46.375 3.3125 C47.34985352 3.51117676 48.32470703 3.70985352 49.32910156 3.91455078 C97.7109774 14.03517194 141.69928269 35.9516877 177.375 70.3125 C178.3640332 71.26068604 178.3640332 71.26068604 179.37304688 72.22802734 C188.86130305 81.37247479 197.6012044 90.66984009 205.375 101.3125 C206.23306152 102.46355017 207.09113451 103.61459177 207.94921875 104.765625 C213.98736829 112.95680614 219.34595521 121.47054105 224.375 130.3125 C224.73948242 130.94430176 225.10396484 131.57610352 225.47949219 132.22705078 C247.08534998 169.97532572 256.85198095 212.74189997 256.6875 255.9375 C256.68534485 256.95540619 256.6831897 257.97331238 256.68096924 259.02206421 C256.63129854 273.63113523 256.38040191 287.96325853 253.375 302.3125 C253.07698486 303.77478027 253.07698486 303.77478027 252.77294922 305.26660156 C242.65232806 353.6484774 220.7358123 397.63678269 186.375 433.3125 C185.74287598 433.97185547 185.11075195 434.63121094 184.45947266 435.31054688 C175.31502521 444.79880305 166.01765991 453.5387044 155.375 461.3125 C154.22394983 462.17056152 153.07290823 463.02863451 151.921875 463.88671875 C143.73224019 469.92427396 135.22961724 475.30707302 126.375 480.3125 C125.66778809 480.7146875 124.96057617 481.116875 124.23193359 481.53125 C101.09654164 494.5566741 75.92537591 503.30551461 49.9375 508.625 C49.21860596 508.77235596 48.49971191 508.91971191 47.7590332 509.0715332 C33.08339502 511.86090125 18.55831162 512.66142619 3.64770508 512.62817383 C0.70811513 512.6250221 -2.2304558 512.64854926 -5.16992188 512.67382812 C-18.54306192 512.71848737 -31.43916711 511.51301542 -44.625 509.3125 C-46.33055054 509.03031616 -46.33055054 509.03031616 -48.07055664 508.74243164 C-91.33802759 500.97044532 -132.38793216 480.98345309 -165.625 452.3125 C-166.37007813 451.67828125 -167.11515625 451.0440625 -167.8828125 450.390625 C-181.38779833 438.57948485 -194.05918743 425.82889772 -204.625 411.3125 C-205.48149066 410.16255169 -206.33826433 409.01281411 -207.1953125 407.86328125 C-213.23534209 399.67315742 -218.61867614 391.16870382 -223.625 382.3125 C-224.0271875 381.60528809 -224.429375 380.89807617 -224.84375 380.16943359 C-237.8691741 357.03404164 -246.61801461 331.86287591 -251.9375 305.875 C-252.08485596 305.15610596 -252.23221191 304.43721191 -252.3840332 303.6965332 C-255.35789088 288.05024391 -255.99800362 272.57681954 -255.9375 256.6875 C-255.93534485 255.66959381 -255.9331897 254.65168762 -255.93096924 253.60293579 C-255.88129854 238.99386477 -255.63040191 224.66174147 -252.625 210.3125 C-252.42632324 209.33764648 -252.22764648 208.36279297 -252.02294922 207.35839844 C-241.90232806 158.9765226 -219.9858123 114.98821731 -185.625 79.3125 C-184.99287598 78.65314453 -184.36075195 77.99378906 -183.70947266 77.31445312 C-174.56502521 67.82619695 -165.26765991 59.0862956 -154.625 51.3125 C-153.47394983 50.45443848 -152.32290823 49.59636549 -151.171875 48.73828125 C-142.98224019 42.70072604 -134.47961724 37.31792698 -125.625 32.3125 C-124.91778809 31.9103125 -124.21057617 31.508125 -123.48193359 31.09375 C-100.34654164 18.0683259 -75.17537591 9.31948539 -49.1875 4 C-48.46860596 3.85264404 -47.74971191 3.70528809 -47.0090332 3.5534668 C-31.36274391 0.57960912 -15.88931954 -0.06050362 0 0 Z " fill="#77CC00" transform="translate(255.625,-0.3125)"/>
<path d="M0 0 C3.57173038 1.68111386 5.87940074 3.63697986 8.67675781 6.44970703 C9.59741028 7.37051056 10.51806274 8.29131409 11.46661377 9.24002075 C12.4622253 10.24584465 13.45772648 11.2517778 14.453125 12.2578125 C15.47830193 13.28672149 16.50392275 14.31518837 17.52996826 15.3432312 C20.22393164 18.04481581 22.91183368 20.75235341 25.59851074 23.46118164 C28.34328304 26.22644489 31.09375472 28.98602633 33.84375 31.74609375 C39.23475573 37.15852274 44.61936964 42.57725438 50 48 C48.66135536 50.9730715 47.18863127 53.06337088 44.8914814 55.36858082 C44.24902131 56.0181065 43.60656122 56.66763218 42.94463265 57.33684045 C42.23725232 58.04180569 41.529872 58.74677093 40.80105591 59.47309875 C40.05079569 60.22859565 39.30053547 60.98409255 38.52754009 61.7624833 C36.00506966 64.29999009 33.47546624 66.8302631 30.94580078 69.3605957 C29.13881574 71.17519952 27.33223562 72.99020665 25.52603149 74.80558777 C20.61369626 79.73989672 15.6947892 84.66759878 10.77398539 89.59346032 C7.70295345 92.66774881 4.63355737 95.74366689 1.56451035 98.81993675 C-6.9299836 107.33399108 -15.42605037 115.84646676 -23.92887688 124.35220051 C-24.47284086 124.89635206 -25.01680484 125.44050361 -25.57725257 126.0011446 C-26.68002327 127.10428155 -27.78279524 128.20741722 -28.88556848 129.31055162 C-29.43299397 129.85815992 -29.98041946 130.40576822 -30.54443359 130.9699707 C-31.3665729 131.79238084 -31.3665729 131.79238084 -32.20532109 132.63140532 C-41.09707833 141.52670843 -49.97702279 150.43370358 -58.85185491 159.3458899 C-67.95949171 168.49155434 -77.07640329 177.62788397 -86.20292294 186.75470608 C-91.32873913 191.8811079 -96.45049577 197.01142503 -101.56216049 202.1519413 C-106.36548391 206.98225098 -111.18139305 211.79964005 -116.00629044 216.6084156 C-117.77958568 218.37988516 -119.54857524 220.15567637 -121.3130188 221.93596268 C-123.71306054 224.35624317 -126.12781003 226.76079111 -128.54708862 229.16181946 C-129.2500075 229.87793831 -129.95292639 230.59405716 -130.67714584 231.33187658 C-131.32482142 231.96836352 -131.972497 232.60485046 -132.63979912 233.26062489 C-133.19614442 233.81778464 -133.75248972 234.3749444 -134.32569396 234.94898778 C-136 236 -136 236 -138.07968986 235.77846217 C-140.76394973 234.69030733 -142.31095901 233.05735026 -144.35333252 231.00743103 C-145.21707489 230.14781265 -146.08081726 229.28819427 -146.97073364 228.40252686 C-147.91975638 227.44288714 -148.8686346 226.48310449 -149.81738281 225.52319336 C-150.82224171 224.51748821 -151.82776173 223.51244327 -152.83389282 222.50801086 C-155.56346786 219.77929728 -158.28368838 217.04142656 -161.00234318 214.30183864 C-163.84505551 211.44038462 -166.69625411 208.58741244 -169.54656982 205.73353577 C-174.94277951 200.32799825 -180.33129571 194.91485823 -185.71710086 189.49895626 C-191.8490053 183.33353082 -197.98942078 177.1766121 -204.13057184 171.02039897 C-216.7632193 158.35638578 -229.38511981 145.68171037 -242 133 C-240.31888614 129.42826962 -238.36302014 127.12059926 -235.55029297 124.32324219 C-234.16908768 122.94226349 -234.16908768 122.94226349 -232.75997925 121.53338623 C-231.75415535 120.5377747 -230.7482222 119.54227352 -229.7421875 118.546875 C-228.71327851 117.52169807 -227.68481163 116.49607725 -226.6567688 115.47003174 C-223.95518419 112.77606836 -221.24764659 110.08816632 -218.53881836 107.40148926 C-215.77355511 104.65671696 -213.01397367 101.90624528 -210.25390625 99.15625 C-204.84147726 93.76524427 -199.42274562 88.38063036 -194 83 C-190.17280705 84.57413332 -187.80241712 86.98646953 -184.92773438 89.92456055 C-184.43614334 90.42389099 -183.94455231 90.92322144 -183.43806458 91.43768311 C-182.37467576 92.51868357 -181.31351435 93.60187872 -180.25434875 94.68701744 C-178.57847216 96.40235635 -176.89513877 98.11003228 -175.20935059 99.81562805 C-170.41859213 104.66440856 -165.63775227 109.52279612 -160.87158203 114.39575195 C-157.95336397 117.37827414 -155.02319125 120.34859323 -152.08503723 123.31147194 C-150.96717858 124.44361994 -149.85401929 125.58042761 -148.74565125 126.72186852 C-147.19906294 128.31397911 -145.63780587 129.89017708 -144.07226562 131.46362305 C-143.18720337 132.36582077 -142.30214111 133.26801849 -141.39025879 134.19755554 C-139.2591455 136.19712003 -139.2591455 136.19712003 -137.20099258 135.94048882 C-133.972965 134.56114576 -131.81693446 132.21892269 -129.39385986 129.75462341 C-128.8391626 129.20248942 -128.28446533 128.65035543 -127.71295905 128.0814901 C-125.85253889 126.22601885 -124.00305686 124.36001404 -122.15332031 122.49389648 C-120.82334227 121.16307242 -119.49270366 119.83290822 -118.16145325 118.50335693 C-114.54555241 114.88831841 -110.93898914 111.26409098 -107.33399677 107.63817859 C-103.56637787 103.85183231 -99.79028704 100.07395472 -96.01507568 96.29518127 C-88.86578309 89.13655665 -81.72417355 81.97031757 -74.5852735 74.80133063 C-66.45823564 66.64078486 -58.32269872 58.48873489 -50.18642664 50.33739746 C-33.44812457 33.5677201 -16.72055686 16.78736932 0 0 Z " fill="#FEF4F3" transform="translate(352,138)"/>
</svg>
