<svg width="87" height="32" viewBox="0 0 87 32" fill="none" xmlns="http://www.w3.org/2000/svg">
<path d="M83.3035 19.613V11.3548H69.5409V8.60085H83.3035V3.09829H61.2835V16.8591H75.0452V19.613H61.2835V25.1174H83.3035V19.613ZM85.4802 17.8913V26.8391C85.48 27.022 85.4073 27.1972 85.278 27.3265C85.1487 27.4558 84.9735 27.5285 84.7906 27.5287H75.8419V28.9035H86.1645C86.3473 28.9032 86.5226 28.8305 86.6519 28.7012C86.7811 28.572 86.8539 28.3967 86.8541 28.2139V17.8913H85.4802ZM11.1567 0H0.834122C0.651303 0.000234233 0.476039 0.0729625 0.346766 0.202235C0.217494 0.331508 0.144765 0.506772 0.144531 0.68959L0.144531 11.0122H1.51929V2.06434C1.51952 1.88153 1.59225 1.70626 1.72152 1.57699C1.85079 1.44772 2.02606 1.37499 2.20888 1.37475H11.1567V0ZM19.993 32H25.4974V19.613H19.993V32ZM24.8113 3.09829H11.7348V8.60085H19.993V16.8591H25.4974V3.78257C25.4971 3.59975 25.4244 3.42448 25.2951 3.29521C25.1659 3.16594 24.9906 3.09321 24.8078 3.09298L24.8113 3.09829ZM8.98439 3.09829H4.16611C3.98329 3.09852 3.80803 3.17125 3.67875 3.30052C3.54948 3.4298 3.47675 3.60506 3.47652 3.78788V24.4322C3.47675 24.615 3.54948 24.7903 3.67875 24.9196C3.80803 25.0488 3.98329 25.1216 4.16611 25.1218H17.2427V19.6175H8.98439V3.09829ZM11.741 16.8591H17.2453V11.3548H11.741V16.8591ZM13.1157 12.7304H15.8697V15.4844H13.114L13.1157 12.7304ZM28.2549 3.09829V8.60085H44.7714V11.3548H28.2549V25.1165H33.7592V16.9414L42.0157 25.1165H50.2748L41.6616 16.8591H50.2748V3.09829H28.2549ZM53.0288 25.1165H58.5331V3.09829H53.0288V25.1165Z" fill="black"/>
</svg>
