<?xml version="1.0" encoding="UTF-8"?>
<svg version="1.1" xmlns="http://www.w3.org/2000/svg" width="64" height="58">
<path d="M0 0 C4.36267511 7.10954462 4.20890305 14.16417458 4.25 22.25 C4.270625 23.24902344 4.29125 24.24804688 4.3125 25.27734375 C4.34562902 31.61326857 3.77840795 37.2274792 1 43 C0.34 43.66 -0.32 44.32 -1 45 C-6.76304075 44.69700751 -11.47557652 43.31141063 -16.75 41.0625 C-17.39582031 40.79759766 -18.04164062 40.53269531 -18.70703125 40.25976562 C-21.25834532 39.20413978 -23.75784737 38.13102187 -26.1875 36.81640625 C-28.34296346 35.84551862 -29.89920909 35.7966403 -32.25 35.875 C-33.4875 35.91625 -34.725 35.9575 -36 36 C-37.51077957 40.5323387 -36.91007636 45.00960855 -36.7421875 49.75 C-37 53 -37 53 -38.296875 54.87890625 C-41.17369863 56.7725952 -43.59859739 56.94135513 -47 57 C-49.73828125 55.61328125 -49.73828125 55.61328125 -52 53 C-52.47577298 49.70275603 -52.15143962 46.55161325 -51.8125 43.25 C-51.74224609 42.36183594 -51.67199219 41.47367188 -51.59960938 40.55859375 C-51.4230544 38.36931207 -51.22250036 36.18501065 -51 34 C-51.928125 33.7525 -52.85625 33.505 -53.8125 33.25 C-57.24132989 31.90536083 -58.32872763 31.22316814 -60 28 C-60.75268209 23.04853256 -60.66246795 18.44014772 -58.5625 13.875 C-56.18429441 11.02115329 -56.18429441 11.02115329 -53.82617188 10.75048828 C-52.88322266 10.69103027 -51.94027344 10.63157227 -50.96875 10.5703125 C-49.92976563 10.49683594 -48.89078125 10.42335938 -47.8203125 10.34765625 C-45.63839506 10.20133943 -43.45609889 10.06054606 -41.2734375 9.92578125 C-34.73063804 9.45154886 -29.08728579 8.44272409 -23 6 C-22.3282373 5.73944824 -21.65647461 5.47889648 -20.96435547 5.21044922 C-19.0310214 4.44958258 -17.10819875 3.66716384 -15.1875 2.875 C-3.77614438 -1.82716664 -3.77614438 -1.82716664 0 0 Z " fill="#173590" transform="translate(60,1)"/>
<path d="M0 0 C-0.16242187 0.9075 -0.32484375 1.815 -0.4921875 2.75 C-1.26049939 8.14718739 -1.14495301 13.55947977 -1.125 19 C-1.12886719 20.05445312 -1.13273437 21.10890625 -1.13671875 22.1953125 C-1.12998234 27.57096435 -0.94760458 32.70544744 0 38 C-5.86920725 37.47138266 -10.50331719 35.75493968 -15.8125 33.25 C-16.57498047 32.91484375 -17.33746094 32.5796875 -18.12304688 32.234375 C-23.57865314 29.68746067 -23.57865314 29.68746067 -25.484375 26.578125 C-26.62049272 20.89753641 -27.40324947 15.25522237 -24.25 10.1875 C-17.36800537 5.55538823 -8.51390799 0 0 0 Z " fill="#F9FAFC" transform="translate(54,4)"/>
<path d="M0 0 C-0.33 0.99 -0.66 1.98 -1 3 C-1.07973476 4.33525717 -1.10771338 5.67412083 -1.09765625 7.01171875 C-1.09282227 8.14770508 -1.09282227 8.14770508 -1.08789062 9.30664062 C-1.07951172 10.09232422 -1.07113281 10.87800781 -1.0625 11.6875 C-1.05798828 12.48478516 -1.05347656 13.28207031 -1.04882812 14.10351562 C-1.0370585 16.06904257 -1.01912348 18.03453085 -1 20 C-4.60557316 19.9772336 -8.2079619 19.8999779 -11.8125 19.8125 C-12.83666016 19.80669922 -13.86082031 19.80089844 -14.91601562 19.79492188 C-22.45679744 19.572407 -22.45679744 19.572407 -25.1796875 16.703125 C-26.55945336 12.15646798 -26.76794043 8.13926262 -25.125 3.5625 C-24 2 -24 2 -22 1 C-19.60828551 0.76574501 -17.21102508 0.5866679 -14.8125 0.4375 C-12.87310547 0.31181641 -12.87310547 0.31181641 -10.89453125 0.18359375 C-7.25550913 0.01204506 -3.64231909 -0.03306904 0 0 Z " fill="#9733CA" transform="translate(28,13)"/>
<path d="M0 0 C5.78962164 12.58613399 5.55348828 27.12919924 0.875 40.125 C0.58625 40.74375 0.2975 41.3625 0 42 C-3 41 -3 41 -4.125 39.0625 C-5.35448067 34.75931767 -5.67151129 30.45188642 -6 26 C-4.68 26.99 -3.36 27.98 -2 29 C-1.80467039 27.2300132 -1.61901118 25.45895721 -1.4375 23.6875 C-1.33308594 22.70136719 -1.22867188 21.71523438 -1.12109375 20.69921875 C-0.83397473 17.90069653 -0.83397473 17.90069653 -2 15 C-2.99 14.67 -3.98 14.34 -5 14 C-5.33 15.32 -5.66 16.64 -6 18 C-5.91621094 16.94039062 -5.83242188 15.88078125 -5.74609375 14.7890625 C-5.64293168 13.40106375 -5.54008337 12.01304165 -5.4375 10.625 C-5.38142578 9.92632812 -5.32535156 9.22765625 -5.26757812 8.5078125 C-4.88500096 4.63471135 -4.88500096 4.63471135 -6 1 C-3.92446352 0.4465236 -2.15634036 0 0 0 Z " fill="#5F91F6" transform="translate(59,2)"/>
<path d="M0 0 C1.35015859 4.05047576 0.62084998 6.7920168 0 11 C1.32 11.33 2.64 11.66 4 12 C5.51708428 21.41002278 5.51708428 21.41002278 3 26 C2.01 25.67 1.02 25.34 0 25 C0.66 28.96 1.32 32.92 2 37 C1.01 37 0.02 37 -1 37 C-2.13042903 30.64246716 -2.18357637 24.38402539 -2.1875 17.9375 C-2.19974609 16.87466797 -2.21199219 15.81183594 -2.22460938 14.71679688 C-2.2345263 9.42446508 -2.16514881 4.93790854 0 0 Z " fill="#2F4FA7" transform="translate(54,5)"/>
<path d="M0 0 C1.32 0.33 2.64 0.66 4 1 C4.2236337 2.41433206 4.42826476 3.83167618 4.625 5.25 C4.74101563 6.03890625 4.85703125 6.8278125 4.9765625 7.640625 C5.00319395 10.32152459 4.36592084 11.72694089 3 14 C1.51171875 12.85546875 1.51171875 12.85546875 0 11 C-0.29296875 8.30078125 -0.29296875 8.30078125 -0.1875 5.3125 C-0.16042969 4.31863281 -0.13335937 3.32476563 -0.10546875 2.30078125 C-0.07066406 1.54152344 -0.03585938 0.78226563 0 0 Z " fill="#593BB4" transform="translate(54,16)"/>
<path d="M0 0 C0.33 0 0.66 0 1 0 C1.19551338 1.60320974 1.38111983 3.20762986 1.5625 4.8125 C1.66691406 5.70582031 1.77132813 6.59914063 1.87890625 7.51953125 C2 10 2 10 1 13 C-0.65 13 -2.3 13 -4 13 C-2.68 12.67 -1.36 12.34 0 12 C-0.2784375 10.4221875 -0.2784375 10.4221875 -0.5625 8.8125 C-0.95079331 5.42880118 -0.88247485 3.23574112 0 0 Z " fill="#34419D" transform="translate(27,21)"/>
<path d="M0 0 C0.99 0.33 1.98 0.66 3 1 C1.515 6.445 1.515 6.445 0 12 C-0.33 12 -0.66 12 -1 12 C-1.02698189 10.37509046 -1.04638757 8.75005367 -1.0625 7.125 C-1.07410156 6.22007813 -1.08570312 5.31515625 -1.09765625 4.3828125 C-1 2 -1 2 0 0 Z " fill="#263A97" transform="translate(27,14)"/>
<path d="M0 0 C-2.98646769 1.99097846 -5.59687262 2.94124926 -9 4 C-6.73455663 -1.01633889 -5.27613404 -1.24961069 0 0 Z " fill="#224095" transform="translate(51,4)"/>
</svg>
