<?xml version="1.0" encoding="UTF-8"?>
<!DOCTYPE svg PUBLIC "-//W3C//DTD SVG 1.1//EN" "http://www.w3.org/Graphics/SVG/1.1/DTD/svg11.dtd">
<svg xmlns="http://www.w3.org/2000/svg" version="1.1" width="512px" height="512px" style="shape-rendering:geometricPrecision; text-rendering:geometricPrecision; image-rendering:optimizeQuality; fill-rule:evenodd; clip-rule:evenodd" xmlns:xlink="http://www.w3.org/1999/xlink">
<g><path style="opacity:0.996" fill="#2c2c2c" d="M 175.5,-0.5 C 210.5,-0.5 245.5,-0.5 280.5,-0.5C 277.225,6.38394 274.225,13.3839 271.5,20.5C 244.661,20.1688 217.995,20.5021 191.5,21.5C 191.5,56.8333 191.5,92.1667 191.5,127.5C 198.5,127.5 205.5,127.5 212.5,127.5C 215.167,127.5 217.833,127.5 220.5,127.5C 217.775,134.616 214.775,141.616 211.5,148.5C 190.5,148.5 169.5,148.5 148.5,148.5C 148.5,159.833 148.5,171.167 148.5,182.5C 141.308,196.747 134.308,211.08 127.5,225.5C 127.333,194.832 127.5,164.165 128,133.5C 129.167,131 131,129.167 133.5,128C 145.495,127.5 157.495,127.333 169.5,127.5C 169.333,87.4986 169.5,47.4986 170,7.5C 171.243,4.42408 173.077,1.75741 175.5,-0.5 Z"/></g>
<g><path style="opacity:1" fill="#222222" d="M 280.5,-0.5 C 296.167,-0.5 311.833,-0.5 327.5,-0.5C 324.773,6.6205 321.773,13.6205 318.5,20.5C 302.833,20.5 287.167,20.5 271.5,20.5C 274.225,13.3839 277.225,6.38394 280.5,-0.5 Z"/></g>
<g><path style="opacity:0.987" fill="#1b1b1b" d="M 327.5,-0.5 C 330.167,-0.5 332.833,-0.5 335.5,-0.5C 338.063,1.61218 339.896,4.27885 341,7.5C 341.5,29.4975 341.667,51.4975 341.5,73.5C 340.672,79.6534 340.172,85.9867 340,92.5C 331.214,111.069 322.714,129.736 314.5,148.5C 295.833,148.5 277.167,148.5 258.5,148.5C 261.833,141.5 265.167,134.5 268.5,127.5C 278.5,127.5 288.5,127.5 298.5,127.5C 305.5,127.5 312.5,127.5 319.5,127.5C 319.832,91.6628 319.498,55.9961 318.5,20.5C 321.773,13.6205 324.773,6.6205 327.5,-0.5 Z"/></g>
<g><path style="opacity:1" fill="#fffdef" d="M 191.5,21.5 C 198.5,21.5 205.5,21.5 212.5,21.5C 212.5,56.8333 212.5,92.1667 212.5,127.5C 205.5,127.5 198.5,127.5 191.5,127.5C 191.5,92.1667 191.5,56.8333 191.5,21.5 Z"/></g>
<g><path style="opacity:1" fill="#fefcea" d="M 212.5,21.5 C 241.167,21.5 269.833,21.5 298.5,21.5C 298.5,56.8333 298.5,92.1667 298.5,127.5C 288.5,127.5 278.5,127.5 268.5,127.5C 252.5,127.5 236.5,127.5 220.5,127.5C 217.833,127.5 215.167,127.5 212.5,127.5C 212.5,92.1667 212.5,56.8333 212.5,21.5 Z"/></g>
<g><path style="opacity:1" fill="#e6e4d3" d="M 191.5,21.5 C 217.995,20.5021 244.661,20.1688 271.5,20.5C 287.167,20.5 302.833,20.5 318.5,20.5C 319.498,55.9961 319.832,91.6628 319.5,127.5C 312.5,127.5 305.5,127.5 298.5,127.5C 298.5,92.1667 298.5,56.8333 298.5,21.5C 269.833,21.5 241.167,21.5 212.5,21.5C 205.5,21.5 198.5,21.5 191.5,21.5 Z"/></g>
<g><path style="opacity:0.974" fill="#161616" d="M 341.5,73.5 C 341.5,91.5 341.5,109.5 341.5,127.5C 351.167,127.5 360.833,127.5 370.5,127.5C 367.773,134.62 364.773,141.62 361.5,148.5C 354.5,148.5 347.5,148.5 340.5,148.5C 331.833,148.5 323.167,148.5 314.5,148.5C 322.714,129.736 331.214,111.069 340,92.5C 340.172,85.9867 340.672,79.6534 341.5,73.5 Z"/></g>
<g><path style="opacity:1" fill="#222222" d="M 220.5,127.5 C 236.5,127.5 252.5,127.5 268.5,127.5C 265.167,134.5 261.833,141.5 258.5,148.5C 242.833,148.5 227.167,148.5 211.5,148.5C 214.775,141.616 217.775,134.616 220.5,127.5 Z"/></g>
<g><path style="opacity:1" fill="#fafafa" d="M 340.5,149.5 C 340.667,229.167 340.5,308.834 340,388.5C 338.167,397 333,402.167 324.5,404C 266.168,404.5 207.834,404.667 149.5,404.5C 149.5,319.5 149.5,234.5 149.5,149.5C 213.167,149.5 276.833,149.5 340.5,149.5 Z"/></g>
<g><path style="opacity:1" fill="#e1e1e1" d="M 340.5,149.5 C 347.5,149.5 354.5,149.5 361.5,149.5C 361.5,235.833 361.5,322.167 361.5,408.5C 359.427,417.741 353.76,423.574 344.5,426C 322.503,426.5 300.503,426.667 278.5,426.5C 247.167,426.5 215.833,426.5 184.5,426.5C 178.158,426.666 171.825,426.5 165.5,426C 156.808,423.145 151.475,417.312 149.5,408.5C 149.5,407.167 149.5,405.833 149.5,404.5C 207.834,404.667 266.168,404.5 324.5,404C 333,402.167 338.167,397 340,388.5C 340.5,308.834 340.667,229.167 340.5,149.5 Z"/></g>
<g><path style="opacity:1" fill="#9f9f9f" d="M 340.5,149.5 C 340.5,149.167 340.5,148.833 340.5,148.5C 347.5,148.5 354.5,148.5 361.5,148.5C 362.833,235.167 362.833,321.833 361.5,408.5C 361.5,322.167 361.5,235.833 361.5,149.5C 354.5,149.5 347.5,149.5 340.5,149.5 Z"/></g>
<g><path style="opacity:1" fill="#282828" d="M 148.5,182.5 C 148.5,216.5 148.5,250.5 148.5,284.5C 141.5,298.5 134.5,312.5 127.5,326.5C 127.5,292.833 127.5,259.167 127.5,225.5C 134.308,211.08 141.308,196.747 148.5,182.5 Z"/></g>
<g><path style="opacity:1" fill="#b3b3b3" d="M 211.5,148.5 C 227.167,148.5 242.833,148.5 258.5,148.5C 277.167,148.5 295.833,148.5 314.5,148.5C 323.167,148.5 331.833,148.5 340.5,148.5C 340.5,148.833 340.5,149.167 340.5,149.5C 276.833,149.5 213.167,149.5 149.5,149.5C 149.5,234.5 149.5,319.5 149.5,404.5C 149.5,405.833 149.5,407.167 149.5,408.5C 148.508,401.018 148.175,393.352 148.5,385.5C 148.5,351.833 148.5,318.167 148.5,284.5C 148.5,250.5 148.5,216.5 148.5,182.5C 148.5,171.167 148.5,159.833 148.5,148.5C 169.5,148.5 190.5,148.5 211.5,148.5 Z"/></g>
<g><path style="opacity:0.999" fill="#222222" d="M 148.5,284.5 C 148.5,318.167 148.5,351.833 148.5,385.5C 142.5,397.5 136.5,409.5 130.5,421.5C 129.213,419.363 128.379,417.03 128,414.5C 127.5,385.169 127.333,355.835 127.5,326.5C 134.5,312.5 141.5,298.5 148.5,284.5 Z"/></g>
<g><path style="opacity:0.985" fill="#1c1c1c" d="M 148.5,385.5 C 148.175,393.352 148.508,401.018 149.5,408.5C 151.475,417.312 156.808,423.145 165.5,426C 171.825,426.5 178.158,426.666 184.5,426.5C 180.894,433.379 177.561,440.379 174.5,447.5C 153.983,448.58 139.317,439.913 130.5,421.5C 136.5,409.5 142.5,397.5 148.5,385.5 Z"/></g>
<g><path style="opacity:0.993" fill="#111111" d="M 184.5,426.5 C 215.833,426.5 247.167,426.5 278.5,426.5C 275.775,433.616 272.775,440.616 269.5,447.5C 257.833,447.5 246.167,447.5 234.5,447.5C 233.504,461.657 233.171,475.99 233.5,490.5C 238.5,490.5 243.5,490.5 248.5,490.5C 245.779,497.61 242.779,504.61 239.5,511.5C 232.5,511.5 225.5,511.5 218.5,511.5C 215.8,509.954 213.967,507.621 213,504.5C 212.5,485.503 212.333,466.503 212.5,447.5C 199.833,447.5 187.167,447.5 174.5,447.5C 177.561,440.379 180.894,433.379 184.5,426.5 Z"/></g>
<g><path style="opacity:0.995" fill="#080808" d="M 370.5,127.5 C 376.204,126.436 380.371,128.436 383,133.5C 383.667,227.167 383.667,320.833 383,414.5C 378.765,429.736 369.265,440.236 354.5,446C 335.888,447.448 317.222,447.948 298.5,447.5C 298.667,466.503 298.5,485.503 298,504.5C 297.033,507.621 295.2,509.954 292.5,511.5C 274.833,511.5 257.167,511.5 239.5,511.5C 242.779,504.61 245.779,497.61 248.5,490.5C 258.167,490.5 267.833,490.5 277.5,490.5C 277.829,475.99 277.496,461.657 276.5,447.5C 274.167,447.5 271.833,447.5 269.5,447.5C 272.775,440.616 275.775,433.616 278.5,426.5C 300.503,426.667 322.503,426.5 344.5,426C 353.76,423.574 359.427,417.741 361.5,408.5C 362.833,321.833 362.833,235.167 361.5,148.5C 364.773,141.62 367.773,134.62 370.5,127.5 Z"/></g>
<g><path style="opacity:1" fill="#7e7e7e" d="M 234.5,447.5 C 234.5,461.5 234.5,475.5 234.5,489.5C 248.5,489.5 262.5,489.5 276.5,489.5C 276.5,475.5 276.5,461.5 276.5,447.5C 277.496,461.657 277.829,475.99 277.5,490.5C 267.833,490.5 258.167,490.5 248.5,490.5C 243.5,490.5 238.5,490.5 233.5,490.5C 233.171,475.99 233.504,461.657 234.5,447.5 Z"/></g>
<g><path style="opacity:1" fill="#f2f2f2" d="M 234.5,447.5 C 246.167,447.5 257.833,447.5 269.5,447.5C 271.833,447.5 274.167,447.5 276.5,447.5C 276.5,461.5 276.5,475.5 276.5,489.5C 262.5,489.5 248.5,489.5 234.5,489.5C 234.5,475.5 234.5,461.5 234.5,447.5 Z"/></g>
</svg>
