<?xml version="1.0" encoding="UTF-8"?>
<!DOCTYPE svg PUBLIC "-//W3C//DTD SVG 1.1//EN" "http://www.w3.org/Graphics/SVG/1.1/DTD/svg11.dtd">
<!-- Creator: CorelDRAW 2021.5 -->
<svg xmlns="http://www.w3.org/2000/svg" xml:space="preserve" width="196.804mm" height="51.6819mm" version="1.1" style="shape-rendering:geometricPrecision; text-rendering:geometricPrecision; image-rendering:optimizeQuality; fill-rule:evenodd; clip-rule:evenodd"
viewBox="0 0 1994.296 523.713"
 xmlns:xlink="http://www.w3.org/1999/xlink"
 xmlns:xodm="http://www.corel.com/coreldraw/odm/2003">
 <defs>
  <style type="text/css">
   <![CDATA[
    .fil0 {fill:#000066;fill-rule:nonzero}
    .fil6 {fill:url(#id0)}
    .fil8 {fill:url(#id1)}
    .fil3 {fill:url(#id2)}
    .fil5 {fill:url(#id3)}
    .fil7 {fill:url(#id4)}
    .fil4 {fill:url(#id5)}
    .fil2 {fill:url(#id6);fill-rule:nonzero}
    .fil1 {fill:url(#id7);fill-rule:nonzero}
   ]]>
  </style>
  <linearGradient id="id0" gradientUnits="userSpaceOnUse" x1="350.804" y1="177.945" x2="55.451" y2="458.819">
   <stop offset="0" style="stop-opacity:1; stop-color:#569AFF"/>
   <stop offset="1" style="stop-opacity:1; stop-color:#9B1ECC"/>
  </linearGradient>
  <linearGradient id="id1" gradientUnits="userSpaceOnUse" x1="304.44" y1="209.638" x2="183.825" y2="339.888">
   <stop offset="0" style="stop-opacity:1; stop-color:#9933CC"/>
   <stop offset="1" style="stop-opacity:1; stop-color:#6698F8"/>
  </linearGradient>
  <linearGradient id="id2" gradientUnits="userSpaceOnUse" xlink:href="#id0" x1="311.713" y1="147.053" x2="172.724" y2="312.103">
  </linearGradient>
  <linearGradient id="id3" gradientUnits="userSpaceOnUse" xlink:href="#id0" x1="350.804" y1="177.945" x2="55.451" y2="458.819">
  </linearGradient>
  <linearGradient id="id4" gradientUnits="userSpaceOnUse" x1="350.804" y1="177.945" x2="55.451" y2="458.819">
   <stop offset="0" style="stop-opacity:1; stop-color:#6699FF"/>
   <stop offset="1" style="stop-opacity:1; stop-color:#9B1ECC"/>
  </linearGradient>
  <linearGradient id="id5" gradientUnits="userSpaceOnUse" xlink:href="#id0" x1="350.804" y1="177.945" x2="55.451" y2="458.819">
  </linearGradient>
  <linearGradient id="id6" gradientUnits="userSpaceOnUse" x1="1933.649" y1="417.754" x2="1908.798" y2="386.125">
   <stop offset="0" style="stop-opacity:1; stop-color:#A900D4"/>
   <stop offset="1" style="stop-opacity:1; stop-color:#6698F8"/>
  </linearGradient>
  <linearGradient id="id7" gradientUnits="userSpaceOnUse" xlink:href="#id6" x1="1935.481" y1="386.483" x2="1902.146" y2="423.571">
  </linearGradient>
 </defs>
 <g id="Layer_x0020_1">
  <metadata id="CorelCorpID_0Corel-Layer"/>
  <g id="_105554138538400">
   <g>
    <path class="fil0" d="M735.813 447.86c-23.38,0 -44.162,-4.677 -62.348,-14.029 -18.184,-9.352 -31.693,-22.861 -41.564,-40.006 -9.872,-17.146 -15.067,-37.408 -15.067,-60.269l0 -144.438c0,-22.341 5.195,-42.605 15.067,-59.75 9.871,-17.146 23.38,-30.135 41.564,-39.487 18.185,-9.352 38.968,-14.029 62.348,-14.029 23.381,0 44.163,4.677 62.348,13.509 18.184,9.352 32.213,22.341 42.085,38.967 9.871,16.626 14.547,35.85 14.547,58.191l0 2.598c0,1.559 -0.52,3.117 -1.559,4.676 -1.56,1.559 -3.118,2.078 -4.677,2.078l-60.788 2.598c-4.157,0 -6.235,-2.078 -6.235,-5.715l0 -6.755c0,-14.028 -4.157,-25.458 -12.47,-34.29 -8.312,-8.833 -19.223,-12.989 -33.252,-12.989 -14.028,0 -24.938,4.156 -33.252,12.989 -8.313,8.832 -12.469,20.263 -12.469,34.29l0 152.232c0,14.029 4.156,25.459 12.469,33.772 8.313,8.833 19.224,12.989 33.252,12.989 14.029,0 24.939,-4.156 33.252,-12.989 8.313,-8.312 12.47,-19.743 12.47,-33.772l0 -6.754c0,-3.637 2.078,-5.715 6.235,-5.715l60.788 2.597c1.559,0 3.117,0.52 4.677,1.56 1.039,1.559 1.559,3.117 1.559,4.676l0 1.559c0,22.341 -4.677,41.565 -14.547,58.711 -9.872,17.146 -23.901,30.135 -42.085,38.967 -18.184,9.352 -38.967,14.029 -62.348,14.029z"/>
    <path class="fil0" d="M1072.492 443.704c-3.637,0 -6.234,-1.559 -7.274,-5.195l-52.476 -143.4c-0.52,-1.559 -1.559,-2.078 -2.598,-2.078l-32.732 0c-1.559,0 -2.598,1.04 -2.598,2.598l0 141.84c0,1.559 -0.519,3.118 -1.559,4.157 -1.559,1.559 -3.117,2.078 -4.676,2.078l-60.789 0c-1.559,0 -3.117,-0.52 -4.157,-2.078 -1.559,-1.039 -2.078,-2.598 -2.078,-4.157l0 -351.223c0,-1.56 0.52,-3.118 2.078,-4.677 1.04,-1.039 2.598,-1.559 4.157,-1.559l126.773 0c20.264,0 38.448,4.676 54.554,13.509 16.107,9.352 28.056,22.341 36.89,38.967 8.832,16.626 12.989,35.85 12.989,57.151 0,22.342 -4.677,41.565 -14.549,57.672 -9.871,16.106 -23.38,28.575 -41.045,36.369 -1.559,0.52 -2.078,2.078 -1.559,3.637l59.231 149.115c0.519,0.52 0.519,1.559 0.519,2.597 0,3.118 -2.078,4.677 -5.715,4.677l-63.386 0zm-95.08 -300.827c-1.559,0 -2.598,1.04 -2.598,2.598l0 88.846c0,1.559 1.04,2.597 2.598,2.597l45.202 0c12.989,0 23.38,-4.157 31.173,-12.989 7.794,-8.312 11.95,-19.743 11.95,-33.772 0,-14.547 -4.157,-25.978 -11.95,-34.81 -7.794,-8.313 -18.184,-12.47 -31.173,-12.47l-45.202 0z"/>
    <path class="fil0" d="M1189.916 443.704c-1.559,0 -3.117,-0.52 -4.157,-2.078 -1.559,-1.039 -2.078,-2.598 -2.078,-4.157l0 -351.223c0,-1.56 0.52,-3.118 2.078,-4.677 1.04,-1.039 2.598,-1.559 4.157,-1.559l60.789 0c1.559,0 3.117,0.52 4.676,1.559 1.04,1.559 1.559,3.117 1.559,4.677l0 351.223c0,1.559 -0.519,3.118 -1.559,4.157 -1.559,1.559 -3.117,2.078 -4.676,2.078l-60.789 0z"/>
    <path class="fil0" d="M1490.224 86.245c0,-1.56 0.52,-3.118 2.078,-4.677 1.039,-1.039 2.598,-1.559 4.157,-1.559l60.269 0c1.559,0 3.117,0.52 4.676,1.559 1.04,1.559 1.559,3.117 1.559,4.677l0 351.223c0,1.559 -0.519,3.118 -1.559,4.157 -1.559,1.559 -3.117,2.078 -4.676,2.078l-63.387 0c-3.637,0 -5.715,-1.559 -7.274,-4.677l-99.236 -211.462c-0.52,-1.039 -1.559,-1.559 -2.078,-1.559 -0.519,0 -1.039,0.52 -1.039,2.078l0.52 209.383c0,1.559 -0.52,3.118 -1.56,4.157 -1.559,1.559 -3.117,2.078 -4.676,2.078l-60.269 0c-1.559,0 -3.117,-0.52 -4.157,-2.078 -1.559,-1.039 -2.078,-2.598 -2.078,-4.157l0 -351.223c0,-1.56 0.52,-3.118 2.078,-4.677 1.04,-1.039 2.598,-1.559 4.157,-1.559l62.867 0c3.638,0 5.715,1.559 7.275,4.676l99.236 211.463c0.519,1.039 1.559,1.559 2.078,1.559 0.519,0 1.039,-0.52 1.039,-2.078l0 -209.383z"/>
    <path class="fil0" d="M1730.786 447.86c-23.38,0 -44.162,-4.677 -62.348,-14.029 -18.184,-9.352 -31.693,-22.861 -41.564,-40.006 -9.872,-17.146 -15.067,-36.89 -15.067,-59.231l0 -145.997c0,-22.341 5.195,-42.085 15.067,-59.23 9.871,-17.146 23.38,-30.135 41.564,-39.487 18.185,-9.352 38.968,-14.029 62.348,-14.029 23.381,0 44.163,4.677 62.348,13.509 18.184,9.352 32.213,22.341 42.085,38.447 9.871,16.627 14.547,35.331 14.547,56.114l0 11.429c0,1.56 -0.52,3.118 -1.559,4.157 -1.56,1.559 -3.118,2.078 -4.677,2.078l-60.788 0c-1.56,0 -3.118,-0.52 -4.157,-2.078 -1.559,-1.039 -2.078,-2.597 -2.078,-4.157l0 -10.911c0,-12.989 -4.157,-23.9 -12.47,-32.732 -8.312,-8.833 -19.223,-12.989 -33.252,-12.989 -14.028,0 -24.938,4.676 -33.252,13.508 -8.832,8.833 -12.989,20.783 -12.989,35.331l0 148.594c0,14.549 4.676,26.498 13.509,35.331 8.832,8.832 20.263,13.508 34.29,13.508 13.509,0 24.419,-4.156 32.733,-11.949 7.794,-7.794 11.95,-18.704 11.95,-32.733l0 -32.213c0,-1.559 -1.04,-2.597 -2.598,-2.597l-40.525 0c-1.56,0 -3.118,-0.52 -4.157,-2.078 -1.559,-1.04 -2.078,-2.598 -2.078,-4.157l0 -47.28c0,-1.559 0.52,-3.117 2.078,-4.676 1.039,-1.04 2.597,-1.559 4.157,-1.559l109.627 0c1.559,0 3.117,0.519 4.677,1.559 1.039,1.559 1.559,3.117 1.559,4.676l0 82.61c0,34.811 -10.911,62.348 -32.213,82.61 -21.821,20.263 -50.917,30.655 -86.767,30.655z"/>
    <path class="fil1" d="M1920.216 443.183c-11.777,0 -21.103,-3.897 -27.977,-11.691 -6.872,-7.794 -9.745,-17.578 -8.617,-29.355 1.161,-12.123 5.831,-21.995 14.008,-29.615 8.177,-7.62 18.326,-11.43 30.45,-11.43 12.124,0 21.63,3.81 28.52,11.43 6.89,7.62 9.754,17.492 8.593,29.615 -1.128,11.777 -5.962,21.562 -14.502,29.355 -8.54,7.794 -18.699,11.691 -30.475,11.691z"/>
    <path class="fil0" d="M1904.792 336.458c-1.889,0 -3.431,-0.661 -4.626,-1.983 -1.195,-1.322 -1.702,-2.928 -1.522,-4.816l15.733 -247.01c0.181,-1.889 0.995,-3.494 2.443,-4.815 1.449,-1.322 3.117,-1.983 5.006,-1.983l66.285 0c1.889,0 3.431,0.661 4.626,1.983 1.196,1.321 1.703,2.927 1.522,4.815l-31.596 247.01c-0.18,1.889 -0.994,3.494 -2.443,4.816 -1.449,1.322 -3.117,1.983 -5.006,1.983l-50.422 0z"/>
    <path class="fil2" d="M1927.329 373.634c8.179,0 14.654,2.706 19.428,8.118 4.773,5.411 6.767,12.207 5.984,20.384 -0.807,8.419 -4.048,15.274 -9.727,20.566 -5.678,5.291 -12.727,7.937 -21.145,7.937 -8.418,0 -15.02,-2.647 -19.805,-7.937 -4.784,-5.292 -6.774,-12.147 -5.968,-20.566 0.783,-8.178 4.141,-14.973 10.071,-20.384 5.931,-5.412 12.985,-8.118 21.163,-8.118z"/>
   </g>
   <path class="fil3" d="M262.04 415.892c81.622,0 148.424,-63.414 153.851,-143.661l-68.166 0c-5.207,42.698 -41.581,75.771 -85.685,75.771 -47.679,0 -86.329,-38.651 -86.329,-86.328 0,-47.679 38.651,-86.329 86.329,-86.329 44.104,0 80.478,33.073 85.685,75.771l68.166 0c-5.427,-80.247 -72.229,-143.66 -153.851,-143.66 -85.172,0 -154.218,69.046 -154.218,154.218 0,85.171 69.046,154.218 154.218,154.218z"/>
   <path class="fil4" d="M45.166 45.166c-59.618,59.617 -60.21,155.896 -1.796,216.255 -19.718,-59.922 -5.758,-128.503 41.894,-176.156 47.653,-47.652 116.234,-61.612 176.156,-41.895 -60.358,-58.413 -156.637,-57.821 -216.255,1.797z"/>
   <path class="fil5" d="M478.548 478.548c-59.618,59.617 -155.897,60.209 -216.256,1.796 59.923,19.717 128.504,5.758 176.156,-41.895 47.653,-47.652 61.612,-116.233 41.895,-176.156 58.414,60.359 57.822,156.638 -1.796,216.256z"/>
   <path class="fil6" d="M45.166 478.547c59.618,59.618 155.897,60.21 216.256,1.797 -59.923,19.717 -128.504,5.757 -176.156,-41.895 -47.653,-47.653 -61.612,-116.234 -41.895,-176.156 -58.413,60.359 -57.821,156.638 1.796,216.255z"/>
   <path class="fil7" d="M478.548 45.165c59.618,59.618 60.21,155.897 1.797,216.256 19.717,-59.923 5.757,-128.504 -41.895,-176.156 -47.653,-47.653 -116.234,-61.612 -176.156,-41.895 60.359,-58.413 156.638,-57.821 216.255,1.796z"/>
   <path class="fil8" d="M425.435 425.432c44.229,-44.229 55.964,-108.631 35.224,-163.579 20.737,-54.945 9.005,-119.346 -35.224,-163.575 -44.227,-44.228 -108.629,-55.961 -163.575,-35.223 -54.947,-20.74 -119.35,-9.007 -163.579,35.223 -44.229,44.229 -55.963,108.631 -35.223,163.578 -20.74,54.946 -9.008,119.348 35.222,163.577 44.229,44.229 108.633,55.962 163.578,35.223 54.946,20.739 119.349,9.007 163.577,-35.224zm-322.041 -236.745c8.325,-18.229 19.983,-35.307 34.986,-50.31 15.013,-15.012 32.102,-26.676 50.344,-35.002 7.161,-3.31 14.585,-6.149 22.232,-8.479 40.876,-12.446 85.224,-9.45 124.021,8.472 18.247,8.325 35.344,19.993 50.36,35.01 15.01,15.01 26.674,32.096 34.999,50.334 17.882,38.665 20.963,83.074 8.484,124.048 -2.33,7.646 -5.168,15.069 -8.48,22.232 -8.325,18.241 -19.99,35.331 -35.002,50.343 -15.003,15.003 -32.081,26.661 -50.31,34.987 -38.718,17.917 -83.178,20.985 -124.209,8.454 0.841,0.841 -17.297,-6.22 -22.104,-8.443 -18.237,-8.324 -35.324,-19.988 -50.334,-34.998 -15.017,-15.017 -26.685,-32.113 -35.01,-50.36 -21.475,-46.503 -21.285,-100.222 0.024,-146.287z"/>
  </g>
 </g>
</svg>
