<?xml version="1.0" encoding="UTF-8"?>
<!DOCTYPE svg PUBLIC "-//W3C//DTD SVG 1.1//EN" "http://www.w3.org/Graphics/SVG/1.1/DTD/svg11.dtd">
<!-- Creator: CorelDRAW 2021.5 -->
<svg xmlns="http://www.w3.org/2000/svg" xml:space="preserve" width="196.804mm" height="51.6818mm" version="1.1" style="shape-rendering:geometricPrecision; text-rendering:geometricPrecision; image-rendering:optimizeQuality; fill-rule:evenodd; clip-rule:evenodd"
viewBox="0 0 199.4296 52.3712"
 xmlns:xlink="http://www.w3.org/1999/xlink"
 xmlns:xodm="http://www.corel.com/coreldraw/odm/2003">
 <defs>
  <style type="text/css">
   <![CDATA[
    .fil1 {fill:white}
    .fil0 {fill:white;fill-rule:nonzero}
   ]]>
  </style>
 </defs>
 <g id="Layer_x0020_1">
  <metadata id="CorelCorpID_0Corel-Layer"/>
  <g id="_105554137753184">
   <g>
    <path class="fil0" d="M73.5813 44.7859c-2.338,0 -4.4162,-0.4677 -6.2348,-1.4029 -1.8184,-0.9352 -3.1693,-2.2861 -4.1564,-4.0006 -0.9872,-1.7146 -1.5067,-3.7408 -1.5067,-6.0269l0 -14.4438c0,-2.2341 0.5195,-4.2605 1.5067,-5.975 0.9871,-1.7146 2.338,-3.0135 4.1564,-3.9487 1.8185,-0.9352 3.8968,-1.4029 6.2348,-1.4029 2.3381,0 4.4163,0.4677 6.2348,1.3509 1.8184,0.9352 3.2213,2.2341 4.2085,3.8967 0.9871,1.6626 1.4547,3.585 1.4547,5.8191l0 0.2598c0,0.1559 -0.052,0.3117 -0.1559,0.4676 -0.156,0.1559 -0.3118,0.2078 -0.4677,0.2078l-6.0788 0.2598c-0.4157,0 -0.6235,-0.2078 -0.6235,-0.5715l0 -0.6755c0,-1.4028 -0.4157,-2.5458 -1.247,-3.429 -0.8312,-0.8833 -1.9223,-1.2989 -3.3252,-1.2989 -1.4028,0 -2.4938,0.4156 -3.3252,1.2989 -0.8313,0.8832 -1.2469,2.0263 -1.2469,3.429l0 15.2232c0,1.4029 0.4156,2.5459 1.2469,3.3772 0.8313,0.8833 1.9224,1.2989 3.3252,1.2989 1.4029,0 2.4939,-0.4156 3.3252,-1.2989 0.8313,-0.8312 1.247,-1.9743 1.247,-3.3772l0 -0.6754c0,-0.3637 0.2078,-0.5715 0.6235,-0.5715l6.0788 0.2597c0.1559,0 0.3117,0.052 0.4677,0.156 0.1039,0.1559 0.1559,0.3117 0.1559,0.4676l0 0.1559c0,2.2341 -0.4677,4.1565 -1.4547,5.8711 -0.9872,1.7146 -2.3901,3.0135 -4.2085,3.8967 -1.8184,0.9352 -3.8967,1.4029 -6.2348,1.4029z"/>
    <path class="fil0" d="M107.2492 44.3703c-0.3637,0 -0.6234,-0.1559 -0.7274,-0.5195l-5.2476 -14.34c-0.052,-0.1559 -0.1559,-0.2078 -0.2598,-0.2078l-3.2732 0c-0.1559,0 -0.2598,0.104 -0.2598,0.2598l0 14.184c0,0.1559 -0.0519,0.3118 -0.1559,0.4157 -0.1559,0.1559 -0.3117,0.2078 -0.4676,0.2078l-6.0789 0c-0.1559,0 -0.3117,-0.052 -0.4157,-0.2078 -0.1559,-0.1039 -0.2078,-0.2598 -0.2078,-0.4157l0 -35.1223c0,-0.156 0.052,-0.3118 0.2078,-0.4677 0.104,-0.1039 0.2598,-0.1559 0.4157,-0.1559l12.6773 0c2.0264,0 3.8448,0.4676 5.4554,1.3509 1.6107,0.9352 2.8056,2.2341 3.689,3.8967 0.8832,1.6626 1.2989,3.585 1.2989,5.7151 0,2.2342 -0.4677,4.1565 -1.4549,5.7672 -0.9871,1.6106 -2.338,2.8575 -4.1045,3.6369 -0.1559,0.052 -0.2078,0.2078 -0.1559,0.3637l5.9231 14.9115c0.0519,0.052 0.0519,0.1559 0.0519,0.2597 0,0.3118 -0.2078,0.4677 -0.5715,0.4677l-6.3386 0zm-9.508 -30.0827c-0.1559,0 -0.2598,0.104 -0.2598,0.2598l0 8.8846c0,0.1559 0.104,0.2597 0.2598,0.2597l4.5202 0c1.2989,0 2.338,-0.4157 3.1173,-1.2989 0.7794,-0.8312 1.195,-1.9743 1.195,-3.3772 0,-1.4547 -0.4157,-2.5978 -1.195,-3.481 -0.7794,-0.8313 -1.8184,-1.247 -3.1173,-1.247l-4.5202 0z"/>
    <path class="fil0" d="M118.9916 44.3703c-0.1559,0 -0.3117,-0.052 -0.4157,-0.2078 -0.1559,-0.1039 -0.2078,-0.2598 -0.2078,-0.4157l0 -35.1223c0,-0.156 0.052,-0.3118 0.2078,-0.4677 0.104,-0.1039 0.2598,-0.1559 0.4157,-0.1559l6.0789 0c0.1559,0 0.3117,0.052 0.4676,0.1559 0.104,0.1559 0.1559,0.3117 0.1559,0.4677l0 35.1223c0,0.1559 -0.0519,0.3118 -0.1559,0.4157 -0.1559,0.1559 -0.3117,0.2078 -0.4676,0.2078l-6.0789 0z"/>
    <path class="fil0" d="M149.0224 8.6244c0,-0.156 0.052,-0.3118 0.2078,-0.4677 0.1039,-0.1039 0.2598,-0.1559 0.4157,-0.1559l6.0269 0c0.1559,0 0.3117,0.052 0.4676,0.1559 0.104,0.1559 0.1559,0.3117 0.1559,0.4677l0 35.1223c0,0.1559 -0.0519,0.3118 -0.1559,0.4157 -0.1559,0.1559 -0.3117,0.2078 -0.4676,0.2078l-6.3387 0c-0.3637,0 -0.5715,-0.1559 -0.7274,-0.4677l-9.9236 -21.1462c-0.052,-0.1039 -0.1559,-0.1559 -0.2078,-0.1559 -0.0519,0 -0.1039,0.052 -0.1039,0.2078l0.052 20.9383c0,0.1559 -0.052,0.3118 -0.156,0.4157 -0.1559,0.1559 -0.3117,0.2078 -0.4676,0.2078l-6.0269 0c-0.1559,0 -0.3117,-0.052 -0.4157,-0.2078 -0.1559,-0.1039 -0.2078,-0.2598 -0.2078,-0.4157l0 -35.1223c0,-0.156 0.052,-0.3118 0.2078,-0.4677 0.104,-0.1039 0.2598,-0.1559 0.4157,-0.1559l6.2867 0c0.3638,0 0.5715,0.1559 0.7275,0.4676l9.9236 21.1463c0.0519,0.1039 0.1559,0.1559 0.2078,0.1559 0.0519,0 0.1039,-0.052 0.1039,-0.2078l0 -20.9383z"/>
    <path class="fil0" d="M173.0786 44.7859c-2.338,0 -4.4162,-0.4677 -6.2348,-1.4029 -1.8184,-0.9352 -3.1693,-2.2861 -4.1564,-4.0006 -0.9872,-1.7146 -1.5067,-3.689 -1.5067,-5.9231l0 -14.5997c0,-2.2341 0.5195,-4.2085 1.5067,-5.923 0.9871,-1.7146 2.338,-3.0135 4.1564,-3.9487 1.8185,-0.9352 3.8968,-1.4029 6.2348,-1.4029 2.3381,0 4.4163,0.4677 6.2348,1.3509 1.8184,0.9352 3.2213,2.2341 4.2085,3.8447 0.9871,1.6627 1.4547,3.5331 1.4547,5.6114l0 1.1429c0,0.156 -0.052,0.3118 -0.1559,0.4157 -0.156,0.1559 -0.3118,0.2078 -0.4677,0.2078l-6.0788 0c-0.156,0 -0.3118,-0.052 -0.4157,-0.2078 -0.1559,-0.1039 -0.2078,-0.2597 -0.2078,-0.4157l0 -1.0911c0,-1.2989 -0.4157,-2.39 -1.247,-3.2732 -0.8312,-0.8833 -1.9223,-1.2989 -3.3252,-1.2989 -1.4028,0 -2.4938,0.4676 -3.3252,1.3508 -0.8832,0.8833 -1.2989,2.0783 -1.2989,3.5331l0 14.8594c0,1.4549 0.4676,2.6498 1.3509,3.5331 0.8832,0.8832 2.0263,1.3508 3.429,1.3508 1.3509,0 2.4419,-0.4156 3.2733,-1.1949 0.7794,-0.7794 1.195,-1.8704 1.195,-3.2733l0 -3.2213c0,-0.1559 -0.104,-0.2597 -0.2598,-0.2597l-4.0525 0c-0.156,0 -0.3118,-0.052 -0.4157,-0.2078 -0.1559,-0.104 -0.2078,-0.2598 -0.2078,-0.4157l0 -4.728c0,-0.1559 0.052,-0.3117 0.2078,-0.4676 0.1039,-0.104 0.2597,-0.1559 0.4157,-0.1559l10.9627 0c0.1559,0 0.3117,0.0519 0.4677,0.1559 0.1039,0.1559 0.1559,0.3117 0.1559,0.4676l0 8.261c0,3.4811 -1.0911,6.2348 -3.2213,8.261 -2.1821,2.0263 -5.0917,3.0655 -8.6767,3.0655z"/>
    <path class="fil0" d="M192.0216 44.3182c-1.1777,0 -2.1103,-0.3896 -2.7977,-1.169 -0.6872,-0.7794 -0.9745,-1.7578 -0.8617,-2.9355 0.1161,-1.2124 0.5831,-2.1996 1.4008,-2.9616 0.8177,-0.7619 1.8326,-1.1429 3.045,-1.1429 1.2124,0 2.163,0.381 2.852,1.1429 0.689,0.762 0.9754,1.7492 0.8593,2.9616 -0.1128,1.1777 -0.5962,2.1562 -1.4502,2.9355 -0.854,0.7794 -1.8699,1.169 -3.0475,1.169z"/>
    <path class="fil0" d="M190.4792 33.6457c-0.1889,0 -0.3431,-0.0661 -0.4626,-0.1983 -0.1195,-0.1322 -0.1702,-0.2928 -0.1522,-0.4815l1.5733 -24.701c0.0181,-0.189 0.0995,-0.3495 0.2443,-0.4816 0.1449,-0.1321 0.3117,-0.1982 0.5006,-0.1982l6.6285 0c0.1889,0 0.3431,0.0661 0.4626,0.1982 0.1196,0.1321 0.1703,0.2927 0.1522,0.4816l-3.1596 24.701c-0.018,0.1888 -0.0994,0.3493 -0.2443,0.4815 -0.1449,0.1322 -0.3117,0.1983 -0.5006,0.1983l-5.0422 0z"/>
    <path class="fil0" d="M192.7329 37.3633c0.8179,0 1.4654,0.2706 1.9428,0.8118 0.4773,0.5412 0.6767,1.2207 0.5984,2.0384 -0.0807,0.8419 -0.4048,1.5274 -0.9727,2.0566 -0.5678,0.5292 -1.2727,0.7937 -2.1145,0.7937 -0.8418,0 -1.502,-0.2646 -1.9805,-0.7937 -0.4784,-0.5292 -0.6774,-1.2147 -0.5968,-2.0566 0.0783,-0.8178 0.4141,-1.4972 1.0071,-2.0384 0.5931,-0.5412 1.2985,-0.8118 2.1163,-0.8118z"/>
   </g>
   <g>
    <path class="fil1" d="M26.204 41.5891c8.1622,0 14.8424,-6.3414 15.3851,-14.366l-6.8166 0c-0.5207,4.2698 -4.1581,7.5771 -8.5685,7.5771 -4.7679,0 -8.6329,-3.8651 -8.6329,-8.6329 0,-4.7679 3.8651,-8.6329 8.6329,-8.6329 4.4104,0 8.0478,3.3073 8.5685,7.5771l6.8166 0c-0.5427,-8.0246 -7.2229,-14.366 -15.3851,-14.366 -8.5172,0 -15.4218,6.9046 -15.4218,15.4218 0,8.5172 6.9046,15.4218 15.4218,15.4218z"/>
    <g>
     <path class="fil1" d="M4.5166 4.5165c-5.9618,5.9618 -6.021,15.5897 -0.1796,21.6256 -1.9718,-5.9923 -0.5758,-12.8504 4.1894,-17.6156 4.7653,-4.7653 11.6234,-6.1613 17.6156,-4.1895 -6.0358,-5.8414 -15.6637,-5.7822 -21.6255,0.1796z"/>
     <path class="fil1" d="M47.8548 47.8547c-5.9618,5.9618 -15.5897,6.021 -21.6256,0.1796 5.9923,1.9718 12.8504,0.5758 17.6156,-4.1894 4.7653,-4.7653 6.1612,-11.6234 4.1895,-17.6156 5.8414,6.0358 5.7822,15.6637 -0.1796,21.6255z"/>
     <path class="fil1" d="M4.5166 47.8547c5.9618,5.9617 15.5897,6.0209 21.6256,0.1796 -5.9923,1.9717 -12.8504,0.5758 -17.6156,-4.1895 -4.7653,-4.7653 -6.1612,-11.6233 -4.1895,-17.6156 -5.8413,6.0359 -5.7821,15.6638 0.1796,21.6256z"/>
     <path class="fil1" d="M47.8548 4.5165c5.9618,5.9617 6.021,15.5896 0.1797,21.6255 1.9717,-5.9922 0.5757,-12.8503 -4.1895,-17.6156 -4.7653,-4.7652 -11.6234,-6.1612 -17.6156,-4.1895 6.0359,-5.8413 15.6638,-5.7821 21.6255,0.1797z"/>
    </g>
    <g>
     <path class="fil1" d="M42.5436 42.5432c5.9617,-5.9618 6.0209,-15.5897 0.1796,-21.6256 1.9717,5.9923 0.5758,12.8504 -4.1895,17.6156 -4.7653,4.7653 -11.6233,6.1613 -17.6156,4.1895 6.0359,5.8414 15.6638,5.7822 21.6256,-0.1796z"/>
     <path class="fil1" d="M9.8281 9.8277c5.9617,-5.9618 15.5896,-6.0209 21.6255,-0.1796 -5.9922,-1.9717 -12.8503,-0.5758 -17.6156,4.1895 -4.7652,4.7652 -6.1612,11.6233 -4.1895,17.6156 -5.8413,-6.0359 -5.7821,-15.6638 0.1797,-21.6256z"/>
     <path class="fil1" d="M42.5435 9.8278c-5.9617,-5.9618 -15.5896,-6.021 -21.6255,-0.1797 5.9922,-1.9717 12.8503,-0.5758 17.6156,4.1895 4.7652,4.7653 6.1612,11.6233 4.1895,17.6156 5.8413,-6.0359 5.7821,-15.6638 -0.1797,-21.6255z"/>
     <path class="fil1" d="M9.828 42.5432c-5.9617,-5.9617 -6.0209,-15.5896 -0.1796,-21.6255 -1.9717,5.9922 -0.5758,12.8503 4.1895,17.6156 4.7653,4.7653 11.6233,6.1612 17.6156,4.1895 -6.0359,5.8413 -15.6638,5.7821 -21.6256,-0.1797z"/>
    </g>
   </g>
  </g>
 </g>
</svg>
