<?xml version="1.0" encoding="UTF-8"?>
<!DOCTYPE svg PUBLIC "-//W3C//DTD SVG 1.1//EN" "http://www.w3.org/Graphics/SVG/1.1/DTD/svg11.dtd">
<!-- Creator: CorelDRAW 2021.5 -->
<svg xmlns="http://www.w3.org/2000/svg" xml:space="preserve" width="77.6076mm" height="77.6075mm" version="1.1" style="shape-rendering:geometricPrecision; text-rendering:geometricPrecision; image-rendering:optimizeQuality; fill-rule:evenodd; clip-rule:evenodd"
viewBox="0 0 28.2803 28.2802"
 xmlns:xlink="http://www.w3.org/1999/xlink"
 xmlns:xodm="http://www.corel.com/coreldraw/odm/2003">
 <defs>
  <style type="text/css">
   <![CDATA[
    .fil0 {fill:#1A1A1A}
   ]]>
  </style>
 </defs>
 <g id="Layer_x0020_1">
  <metadata id="CorelCorpID_0Corel-Layer"/>
  <g id="_105554135946656">
   <path class="fil0" d="M14.15 22.4579c4.4076,0 8.0148,-3.4243 8.3079,-7.7576l-3.6809 0c-0.2812,2.3057 -2.2454,4.0916 -4.627,4.0916 -2.5746,0 -4.6617,-2.0871 -4.6617,-4.6617 0,-2.5746 2.0871,-4.6617 4.6617,-4.6617 2.3815,0 4.3458,1.7859 4.627,4.0916l3.6809 0c-0.2931,-4.3333 -3.9003,-7.7576 -8.3079,-7.7576 -4.5993,0 -8.3277,3.7284 -8.3277,8.3277 0,4.5992 3.7284,8.3277 8.3277,8.3277z"/>
   <g>
    <path class="fil0" d="M2.4389 2.4389c-3.2193,3.2193 -3.2513,8.4184 -0.097,11.6777 -1.0647,-3.2358 -0.3109,-6.9391 2.2623,-9.5124 2.5733,-2.5733 6.2766,-3.327 9.5124,-2.2623 -3.2593,-3.1543 -8.4584,-3.1223 -11.6777,0.097z"/>
    <path class="fil0" d="M25.8414 25.8414c-3.2193,3.2193 -8.4184,3.2513 -11.6777,0.097 3.2358,1.0647 6.9391,0.3109 9.5124,-2.2623 2.5733,-2.5733 3.3271,-6.2765 2.2623,-9.5124 3.1543,3.2593 3.1223,8.4584 -0.097,11.6777z"/>
    <path class="fil0" d="M2.4389 25.8414c3.2193,3.2193 8.4184,3.2513 11.6777,0.097 -3.2358,1.0647 -6.9391,0.3109 -9.5124,-2.2623 -2.5733,-2.5732 -3.3271,-6.2765 -2.2623,-9.5124 -3.1543,3.2593 -3.1223,8.4584 0.097,11.6777z"/>
    <path class="fil0" d="M25.8414 2.4388c3.2193,3.2193 3.2513,8.4184 0.097,11.6777 1.0647,-3.2358 0.3109,-6.9391 -2.2623,-9.5124 -2.5733,-2.5732 -6.2766,-3.327 -9.5124,-2.2623 3.2593,-3.1543 8.4584,-3.1224 11.6777,0.097z"/>
   </g>
   <path class="fil0" d="M22.9733 22.9731c2.3884,-2.3884 3.022,-5.8661 1.902,-8.8332 1.1198,-2.9671 0.4863,-6.4447 -1.902,-8.833 -2.3883,-2.3883 -5.8659,-3.0219 -8.833,-1.902 -2.9671,-1.1199 -6.4449,-0.4863 -8.8332,1.902 -2.3884,2.3884 -3.022,5.8661 -1.9021,8.8331 -1.1199,2.9671 -0.4864,6.4448 1.902,8.8331 2.3884,2.3884 5.8661,3.0219 8.8331,1.902 2.9671,1.1199 6.4448,0.4864 8.8331,-1.9021zm-17.3902 -12.7842c0.4496,-0.9844 1.0791,-1.9066 1.8892,-2.7168 0.8106,-0.8106 1.7335,-1.4405 2.7185,-1.89 0.3867,-0.1788 0.7877,-0.3321 1.2005,-0.4579 2.2073,-0.672 4.6021,-0.5103 6.6971,0.4575 0.9854,0.4495 1.9086,1.0796 2.7195,1.8905 0.8105,0.8105 1.4404,1.7332 1.8899,2.718 0.9656,2.0879 1.132,4.486 0.4581,6.6985 -0.1258,0.4129 -0.2791,0.8138 -0.4579,1.2005 -0.4495,0.985 -1.0794,1.9079 -1.8901,2.7185 -0.8101,0.8102 -1.7324,1.4397 -2.7167,1.8892 -2.0907,0.9675 -4.4916,1.1332 -6.7072,0.4566 0.0454,0.0454 -0.9341,-0.3359 -1.1936,-0.4559 -0.9848,-0.4495 -1.9075,-1.0794 -2.718,-1.8899 -0.8109,-0.8109 -1.441,-1.7341 -1.8905,-2.7195 -1.1596,-2.5111 -1.1494,-5.412 0.0013,-7.8994z"/>
  </g>
 </g>
</svg>
