<?xml version="1.0" encoding="UTF-8"?>
<!DOCTYPE svg PUBLIC "-//W3C//DTD SVG 1.1//EN" "http://www.w3.org/Graphics/SVG/1.1/DTD/svg11.dtd">
<!-- Creator: CorelDRAW 2021.5 -->
<svg xmlns="http://www.w3.org/2000/svg" xml:space="preserve" width="77.6076mm" height="77.6075mm" version="1.1" style="shape-rendering:geometricPrecision; text-rendering:geometricPrecision; image-rendering:optimizeQuality; fill-rule:evenodd; clip-rule:evenodd"
viewBox="0 0 104.3172 104.317"
 xmlns:xlink="http://www.w3.org/1999/xlink"
 xmlns:xodm="http://www.corel.com/coreldraw/odm/2003">
 <defs>
  <style type="text/css">
   <![CDATA[
    .fil0 {fill:white}
   ]]>
  </style>
 </defs>
 <g id="Layer_x0020_1">
  <metadata id="CorelCorpID_0Corel-Layer"/>
  <g id="_105554195769184">
   <path class="fil0" d="M52.1951 82.8403c16.2582,0 29.5643,-12.6311 30.6453,-28.6153l-13.5778 0c-1.0372,8.5049 -8.2827,15.0927 -17.0675,15.0927 -9.497,0 -17.1957,-7.6987 -17.1957,-17.1956 0,-9.497 7.6987,-17.1957 17.1957,-17.1957 8.7848,0 16.0303,6.5877 17.0675,15.0927l13.5778 0c-1.081,-15.9842 -14.3871,-28.6153 -30.6453,-28.6153 -16.9653,0 -30.7184,13.7531 -30.7184,30.7184 0,16.9652 13.7531,30.7183 30.7184,30.7183z"/>
   <g>
    <path class="fil0" d="M8.9962 8.9962c-11.8751,11.875 -11.993,31.0527 -0.3577,43.0754 -3.9274,-11.9358 -1.1468,-25.5962 8.345,-35.0881 9.4919,-9.4919 23.1524,-12.2723 35.0881,-8.3451 -12.0226,-11.6352 -31.2003,-11.5173 -43.0754,0.3578z"/>
    <path class="fil0" d="M95.321 95.3208c-11.8751,11.8751 -31.0528,11.993 -43.0755,0.3578 11.9359,3.9274 25.5963,1.1468 35.0881,-8.3451 9.4919,-9.4919 12.2725,-23.1522 8.3451,-35.0881 11.6352,12.0227 11.5173,31.2004 -0.3577,43.0754z"/>
    <path class="fil0" d="M8.9963 95.3208c11.875,11.875 31.0527,11.9929 43.0754,0.3577 -11.9359,3.9274 -25.5962,1.1468 -35.0881,-8.3451 -9.4919,-9.4918 -12.2725,-23.1522 -8.3451,-35.0881 -11.6352,12.0227 -11.5173,31.2004 0.3578,43.0755z"/>
    <path class="fil0" d="M95.321 8.9961c11.8751,11.8751 11.993,31.0528 0.3578,43.0755 3.9272,-11.9359 1.1468,-25.5963 -8.3451,-35.0883 -9.4919,-9.4918 -23.1524,-12.2723 -35.0881,-8.345 12.0226,-11.6352 31.2003,-11.5175 43.0754,0.3577z"/>
   </g>
   <path class="fil0" d="M84.7415 84.7408c8.8099,-8.8099 11.1471,-21.638 7.016,-32.5829 4.1307,-10.9446 1.7938,-23.7724 -7.016,-32.5823 -8.8096,-8.8098 -21.6376,-11.1467 -32.5823,-7.016 -10.9448,-4.1311 -23.7731,-1.7939 -32.5829,7.016 -8.8099,8.8099 -11.1471,21.638 -7.0161,32.5828 -4.131,10.9447 -1.7941,23.7728 7.0159,32.5828 8.8099,8.8099 21.6383,11.1469 32.5828,7.0159 10.9447,4.131 23.7728,1.7941 32.5828,-7.0161zm-64.1469 -47.1568c1.6583,-3.631 3.9803,-7.0328 6.9688,-10.0213 2.9902,-2.9901 6.3943,-5.3136 10.0277,-6.9718 1.4266,-0.6594 2.9054,-1.2249 4.4283,-1.6891 8.1421,-2.4789 16.9757,-1.8824 24.7034,1.6876 3.6347,1.6582 7.0402,3.9822 10.0312,6.9735 2.9897,2.9898 5.3132,6.3932 6.9712,10.0258 3.5619,7.7016 4.1756,16.5473 1.6899,24.7088 -0.4641,1.5229 -1.0294,3.0018 -1.6891,4.4283 -1.6582,3.6334 -3.9817,7.0375 -6.9719,10.0277 -2.9883,2.9885 -6.3901,5.3105 -10.0211,6.9688 -7.7121,3.5689 -16.5681,4.1799 -24.7409,1.6841 0.1675,0.1675 -3.4455,-1.2389 -4.4029,-1.6817 -3.6326,-1.658 -7.036,-3.9815 -10.0258,-6.9712 -2.9912,-2.991 -5.3154,-6.3965 -6.9735,-10.0312 -4.2775,-9.2628 -4.2399,-19.9631 0.0047,-29.1385z"/>
  </g>
 </g>
</svg>
